<svg xmlns="http://www.w3.org/2000/svg" xml:space="preserve" width="285" class="img-fluid" viewBox="0 0 1094.177 377.217"><defs><clipPath id="a" clipPathUnits="userSpaceOnUse"><path d="M0 282.913h820.633V0H0Z"/></clipPath></defs><g clip-path="url(#a)" transform="matrix(1.33333 0 0 -1.33333 0 377.217)"><path d="M0 0c-15.116 10.401-23.262 15.955-30.904 21.631A40.064 40.064 0 0 1-36.701.812c0-13.821 6.968-26.011 17.58-33.259C-14.699-23.732-8.757-14.028 0 0" style="fill:#000;fill-opacity:1;fill-rule:nonzero;stroke:none" transform="translate(371.94 141.536)"/><path d="M0 0c-6.225-6.606-16.196-7.576-23.333-3.077-1.376.867-11.21 7.648-11.21 7.648-10.865-15.342-16.446-23.053-22.441-30.106a40.065 40.065 0 0 1 20.949-5.877c21.582 0 39.193 16.986 40.203 38.317A18.961 18.961 0 0 0 0 0" style="fill:#000;fill-opacity:1;fill-rule:nonzero;stroke:none" transform="translate(411.526 133.508)"/><path d="M0 0c-1.34.882-9.969 6.624-9.969 6.624-7.067-10.422-8.177-11.952-13.58-19.689 0 0 9.392-6.08 10.746-6.915 4.861-2.997 11.31-2.102 15.095 2.111 1.457 1.619 2.493 3.627 2.888 5.747C5.934-8.209 4.686-3.082 0 0" style="fill:#000;fill-opacity:1;fill-rule:nonzero;stroke:none" transform="translate(404.087 156.18)"/><path d="M0 0c5.107 8.136 9.716 15.385 16.97 26.339 0 0 15.212-10.032 16.566-10.997a19.35 19.35 0 0 0 3.686-3.387C30.983 26.106 16.84 35.989.382 35.989c-13.118 0-24.767-6.278-32.116-15.99C-23.63 15.195-13.95 8.969 0 0" style="fill:#000;fill-opacity:1;fill-rule:nonzero;stroke:none" transform="translate(375.11 146.61)"/><path d="M0 0a5.077 5.077 0 1 1-10.153.035A5.077 5.077 0 0 1 0 0" style="fill:#000;fill-opacity:1;fill-rule:nonzero;stroke:none" transform="translate(337.432 171.332)"/><path d="M0 0c.806.576.986 1.386.534 2.019l-.012.017c-.508.71-1.285.718-2.083.148L-2.8 1.298l1.561-2.183Zm-4.56 1.507 2.393 1.71c1.412 1.009 2.881.841 3.754-.381l.012-.017c.973-1.361.389-2.852-.946-3.806l-1.204-.86 1.393-1.95-1.066-.762z" style="fill:#000;fill-opacity:1;fill-rule:nonzero;stroke:none" transform="translate(345.55 184.617)"/><path d="m0 0-.009.02c-.585 1.325-2.036 2-3.391 1.401C-4.755.823-5.222-.676-4.637-2.002l.009-.019c.586-1.326 2.037-2.001 3.391-1.402C.118-2.824.585-1.326 0 0m-5.877-2.596-.008.019c-.848 1.92-.077 4.183 2.018 5.108C-1.772 3.457.392 2.514 1.24.595l.009-.02c.848-1.92.077-4.182-2.019-5.108-2.095-.926-4.259.017-5.107 1.937" style="fill:#000;fill-opacity:1;fill-rule:nonzero;stroke:none" transform="translate(356.785 190.85)"/><path d="m0 0 1.28.28 1.341-6.117 3.828.838.256-1.165-5.109-1.119Z" style="fill:#000;fill-opacity:1;fill-rule:nonzero;stroke:none" transform="translate(361.201 196.196)"/><path d="m0 0-3.223 4.335 1.542.091 2.28-3.174L2.51 4.674l1.499.088L1.317.11l.175-2.967-1.318-.078Z" style="fill:#000;fill-opacity:1;fill-rule:nonzero;stroke:none" transform="translate(371.742 193.345)"/><path d="m0 0-2.349.272.14 1.205L3.8.782 3.66-.424l-2.348.272-.718-6.2-1.311.152Z" style="fill:#000;fill-opacity:1;fill-rule:nonzero;stroke:none" transform="translate(381.096 196.487)"/><path d="m0 0 5.286-1.622-.344-1.12L.909-1.504.34-3.358l3.575-1.097-.344-1.12-3.574 1.097-.588-1.914 4.083-1.254-.343-1.12-5.336 1.637Z" style="fill:#000;fill-opacity:1;fill-rule:nonzero;stroke:none" transform="translate(389.341 196.3)"/><path d="m0 0 .01.019C1.016 1.885 3.237 2.66 5.224 1.588 6.434.937 6.938.121 7.243-.819l-1.201-.453C5.78-.502 5.394.129 4.644.534 3.388 1.211 1.922.67 1.229-.614L1.22-.633c-.693-1.285-.349-2.825.907-3.502.806-.435 1.499-.385 2.345-.163l.336-1.15c-1.069-.343-2.061-.389-3.289.273C-.394-4.143-1.016-1.885 0 0" style="fill:#000;fill-opacity:1;fill-rule:nonzero;stroke:none" transform="translate(397.209 189.597)"/><path d="m0 0 1.004-.842-1.991-2.376 2.728-2.286 1.992 2.377 1.004-.842-4.79-5.718-1.005.843L.961-6.435l-2.728 2.286-2.019-2.41-1.005.842z" style="fill:#000;fill-opacity:1;fill-rule:nonzero;stroke:none" transform="translate(408.825 187.01)"/><path d="m0 0 .743-.96-1.63-6.313 4.075 3.155.789-1.019L-1.918-9.7l-.671.867 1.677 6.497-4.193-3.246-.789 1.019z" style="fill:#000;fill-opacity:1;fill-rule:nonzero;stroke:none" transform="translate(417.532 178.927)"/><path d="m0 0 .626-1.15-6.546-3.566-.626 1.149Z" style="fill:#000;fill-opacity:1;fill-rule:nonzero;stroke:none" transform="translate(424.088 169.47)"/><path d="m0 0 .613 1.562 1.179-.485-.689-1.599c.455-.114.95-.079 1.444.09l.02.007c1.371.47 2.167 1.859 1.686 3.26-.481 1.4-1.935 1.993-3.305 1.523l-.021-.007c-1.37-.471-2.166-1.859-1.685-3.26A2.37 2.37 0 0 1 0 0m-.501-1.197C-1.129-.748-1.62-.106-1.904.72c-.744 2.167.379 4.242 2.365 4.924l.02.007c1.985.681 4.173-.279 4.917-2.446.745-2.166-.379-4.241-2.364-4.923l-.02-.007a3.788 3.788 0 0 0-2.412-.028L.193-2.795l-1.16.492z" style="fill:#000;fill-opacity:1;fill-rule:nonzero;stroke:none" transform="translate(422.87 157.226)"/><path d="m0 0 4.263.502L4.416-.8l-4.21-.495c-1.376-.162-2.033-.958-1.896-2.122.136-1.153.917-1.78 2.282-1.619l4.263.501.153-1.301-4.2-.494c-2.211-.26-3.469.857-3.696 2.794C-3.115-1.611-2.148-.253 0 0" style="fill:#000;fill-opacity:1;fill-rule:nonzero;stroke:none" transform="translate(426.142 151.49)"/><path d="m0 0-.425-5.514-1.168.09.323 4.207-1.933.149-.287-3.729-1.168.09.286 3.729-1.997.154-.328-4.26-1.169.09.43 5.567z" style="fill:#000;fill-opacity:1;fill-rule:nonzero;stroke:none" transform="translate(431.194 140.61)"/><path d="m0 0-1.069.758L3.249 6.84l1.069-.759Z" style="fill:#000;fill-opacity:1;fill-rule:nonzero;stroke:none" transform="translate(343.773 96.575)"/><path d="m0 0-.856.861.842 6.466-3.656-3.633-.908.915L.71 9.863l.773-.779L.618 2.43l3.763 3.738.908-.914Z" style="fill:#000;fill-opacity:1;fill-rule:nonzero;stroke:none" transform="translate(338.28 100.796)"/><path d="m0 0-1.217.143c.124.936.025 1.725-.485 2.499-.445.676-1.038.898-1.509.587l-.018-.012c-.445-.293-.521-.7-.026-2.032.553-1.536.653-2.541-.494-3.297l-.018-.012c-1.067-.703-2.391-.3-3.206.937-.597.907-.796 1.809-.705 2.775l1.214-.042c-.049-.836.098-1.543.473-2.112.422-.641.997-.798 1.406-.528l.018.011c.48.317.506.742.005 2.121-.546 1.528-.526 2.524.506 3.203l.018.012c1.165.767 2.462.308 3.324-1A4.595 4.595 0 0 0 0 0" style="fill:#000;fill-opacity:1;fill-rule:nonzero;stroke:none" transform="translate(335.977 112.698)"/><path d="m0 0 .934-2.173-1.116-.48-2.39 5.56 1.116.479.934-2.173 5.736 2.466.522-1.214z" style="fill:#000;fill-opacity:1;fill-rule:nonzero;stroke:none" transform="translate(325.746 120.183)"/><path d="m0 0-.343 1.265 7.199 1.95.343-1.265Z" style="fill:#000;fill-opacity:1;fill-rule:nonzero;stroke:none" transform="translate(321.946 127.125)"/><path d="m0 0 .292-2.347-1.205-.151-.748 6.006 1.205.15.292-2.347 6.196.772.163-1.311z" style="fill:#000;fill-opacity:1;fill-rule:nonzero;stroke:none" transform="translate(321.54 134.98)"/><path d="m0 0-4.285.276.085 1.307 4.231-.272c1.382-.089 2.172.575 2.248 1.745.074 1.158-.582 1.916-1.953 2.004l-4.285.277.085 1.308 4.22-.273c2.222-.143 3.258-1.47 3.133-3.415C3.354 1.022 2.158-.139 0 0" style="fill:#000;fill-opacity:1;fill-rule:nonzero;stroke:none" transform="translate(324.02 142.505)"/><path d="m0 0-.595-2.289-1.176.306 1.522 5.856 1.176-.305-.595-2.289 6.042-1.57-.332-1.279Z" style="fill:#000;fill-opacity:1;fill-rule:nonzero;stroke:none" transform="translate(322.614 155.388)"/><path d="M0 0c1.149-.327 2.024-.065 2.332 1.019l.006.022C2.647 2.125 2.04 2.808.892 3.135l-.419.119L-.419.119Zm-1.416 6.158 2.877-.818C4.445 4.491 5.519 2.596 4.887.374L4.881.352C4.249-1.87 2.276-3.014-.762-2.15l-2.792.794z" style="fill:#000;fill-opacity:1;fill-rule:nonzero;stroke:none" transform="translate(360.296 91.037)"/><path d="m0 0 6.657-.326-.105-2.141-4.092.2-.039-.791 3.813-.187-.092-1.885-3.813.187-.042-.847 4.148-.203-.105-2.141-6.712.329Z" style="fill:#000;fill-opacity:1;fill-rule:nonzero;stroke:none" transform="translate(369.933 94.577)"/><path d="M0 0c.641.196.979.614.816 1.148l-.006.021c-.167.544-.646.701-1.308.499l-.683-.209.509-1.664zm-4.288 2.692 3.362 1.027c1.985.607 3.61.135 4.152-1.636l.006-.022C3.783.258 2.7-1.123.683-1.74l-.811-.248.62-2.027-2.497-.763z" style="fill:#000;fill-opacity:1;fill-rule:nonzero;stroke:none" transform="translate(390.743 92.773)"/><path d="m0 0-1.559 1.298.316-2.004zm-4.182 3.338 2.251 1.28L4.822-.598 2.356-2l-.878.709L-.9-2.643l.169-1.111-2.426-1.379Z" style="fill:#000;fill-opacity:1;fill-rule:nonzero;stroke:none" transform="translate(402.282 96.655)"/><path d="M0 0c.457.426.544.89.217 1.241l-.015.016c-.343.367-.796.28-1.237-.131l-.833-.777L-.824-.769zm-5.271.166 2.792 2.605c1.012.945 1.893 1.294 2.666 1.267.663-.023 1.238-.28 1.787-.867l.015-.016c.777-.833.885-1.817.504-2.798l3.143-.702-2.179-2.033-2.601.627-.016-.016-.392-.365 1.523-1.633-1.91-1.782Z" style="fill:#000;fill-opacity:1;fill-rule:nonzero;stroke:none" transform="translate(410.978 104.65)"/><path d="m0 0 1.544 2.107 6.302-4.62L6.302-4.62Z" style="fill:#000;fill-opacity:1;fill-rule:nonzero;stroke:none" transform="translate(413.535 112.946)"/><path d="m0 0-.885 1.982a4.486 4.486 0 0 1 2.02 2.059c.205.421.182.656-.009.749l-.019.01c-.201.097-.419-.07-.936-.75-1.088-1.419-2.213-2.585-3.699-1.862l-.02.01c-1.334.65-1.861 2.196-.918 4.133.659 1.356 1.469 2.203 2.507 2.703L-.93 7.119a4.103 4.103 0 0 1-1.718-1.771c-.171-.352-.129-.571.042-.654l.02-.009c.19-.093.404.039.906.713C-.475 7.033.633 7.984 2.048 7.295l.02-.009c1.475-.718 1.788-2.372.87-4.259C2.244 1.602 1.218.513 0 0" style="fill:#000;fill-opacity:1;fill-rule:nonzero;stroke:none" transform="translate(423.014 114.952)"/><path d="M450.949 184.423h3.631v-20.665h-3.631z" style="fill:#000;fill-opacity:1;fill-rule:nonzero;stroke:none"/><path d="M0 0h3.366l11.07-14.288V0h3.573v-20.665h-3.041L3.572-5.963v-14.702H0Z" style="fill:#000;fill-opacity:1;fill-rule:nonzero;stroke:none" transform="translate(464.794 184.423)"/><path d="M0 0c-3.956.945-4.9 1.683-4.9 3.277 0 1.358 1.24 2.48 3.365 2.48 1.889 0 3.749-.738 5.609-2.126l1.949 2.746C3.927 8.06 1.536 8.974-1.476 8.974c-4.103 0-7.055-2.479-7.055-6.022 0-3.808 2.479-5.136 6.878-6.2 3.838-.885 4.664-1.712 4.664-3.188 0-1.565-1.417-2.627-3.66-2.627-2.569 0-4.546.974-6.525 2.686l-2.184-2.598c2.479-2.214 5.461-3.306 8.62-3.306 4.34 0 7.381 2.332 7.381 6.2C6.643-2.657 4.37-1.063 0 0" style="fill:#000;fill-opacity:1;fill-rule:nonzero;stroke:none" transform="translate(500.784 175.744)"/><path d="M0 0h-6.554v3.365h16.769V0H3.661v-17.3H0Z" style="fill:#000;fill-opacity:1;fill-rule:nonzero;stroke:none" transform="translate(520.483 181.058)"/><path d="M538.694 184.423h3.631v-20.665h-3.631z" style="fill:#000;fill-opacity:1;fill-rule:nonzero;stroke:none"/><path d="M0 0h-6.554v3.365h16.768V0H3.66v-17.3H0Z" style="fill:#000;fill-opacity:1;fill-rule:nonzero;stroke:none" transform="translate(556.872 181.058)"/><path d="M0 0v11.897h3.631V.148c0-3.838 1.978-5.905 5.226-5.905 3.217 0 5.195 1.948 5.195 5.757v11.897h3.631V.177c0-6.17-3.482-9.27-8.886-9.27C3.424-9.093 0-5.993 0 0" style="fill:#000;fill-opacity:1;fill-rule:nonzero;stroke:none" transform="translate(574.366 172.526)"/><path d="M0 0h-6.554v3.365h16.769V0H3.661v-17.3H0Z" style="fill:#000;fill-opacity:1;fill-rule:nonzero;stroke:none" transform="translate(605.883 181.058)"/><path d="M0 0h-4.222v7.439H0c2.716 0 4.458-1.299 4.458-3.72C4.458 1.565 2.746 0 0 0m.295 10.745h-8.148V-9.92h3.631v6.642h4.104c4.546 0 8.266 2.451 8.266 7.086 0 4.163-3.04 6.937-7.853 6.937" style="fill:#000;fill-opacity:1;fill-rule:nonzero;stroke:none" transform="translate(458.802 141.935)"/><path d="M0 0c-4.103 0-7.026 3.366-7.026 7.38 0 4.015 2.864 7.322 6.967 7.322 4.104 0 7.026-3.366 7.026-7.381C6.967 3.307 4.104 0 0 0m0 18.038c-6.347 0-10.834-4.901-10.834-10.717 0-5.816 4.428-10.657 10.775-10.657S10.776 1.565 10.776 7.38c0 5.816-4.429 10.658-10.776 10.658" style="fill:#000;fill-opacity:1;fill-rule:nonzero;stroke:none" transform="translate(484.355 134.997)"/><path d="M0 0h3.631v-17.359h10.864v-3.306H0z" style="fill:#000;fill-opacity:1;fill-rule:nonzero;stroke:none" transform="translate(503.296 152.68)"/><path d="m0 0-8.207 12.517h4.28L1.86 3.365l5.845 9.152h4.163L3.66.089v-8.237H0Z" style="fill:#000;fill-opacity:1;fill-rule:nonzero;stroke:none" transform="translate(527.583 140.163)"/><path d="M0 0h-6.554v3.365h16.769V0H3.66v-17.3H0Z" style="fill:#000;fill-opacity:1;fill-rule:nonzero;stroke:none" transform="translate(551.668 149.315)"/><path d="M0 0h15.321v-3.247H3.631V-8.62h10.362v-3.248H3.631v-5.549h11.838v-3.248H0z" style="fill:#000;fill-opacity:1;fill-rule:nonzero;stroke:none" transform="translate(569.859 152.68)"/><path d="M0 0c-1.772-1.654-3.395-2.687-5.934-2.687-3.956 0-6.82 3.337-6.82 7.381 0 4.045 2.864 7.321 6.82 7.321 2.362 0 4.133-1.033 5.787-2.568l2.332 2.686c-1.978 1.89-4.281 3.218-8.089 3.218-6.259 0-10.658-4.841-10.658-10.716 0-5.934 4.488-10.658 10.51-10.658 3.867 0 6.229 1.418 8.384 3.661z" style="fill:#000;fill-opacity:1;fill-rule:nonzero;stroke:none" transform="translate(609.794 137.684)"/><path d="M0 0h3.631v-8.591h9.86V0h3.631v-20.665h-3.631v8.709h-9.86v-8.709H0Z" style="fill:#000;fill-opacity:1;fill-rule:nonzero;stroke:none" transform="translate(620.073 152.68)"/><path d="M0 0h3.365l11.071-14.288V0h3.572v-20.665h-3.04L3.572-5.963v-14.702H0Z" style="fill:#000;fill-opacity:1;fill-rule:nonzero;stroke:none" transform="translate(647.578 152.68)"/><path d="M675.989 152.68h3.631v-20.665h-3.631z" style="fill:#000;fill-opacity:1;fill-rule:nonzero;stroke:none"/><path d="m0 0-3.572 3.248L-5.904.59l3.543-3.011c-.975-.62-2.185-1.004-3.543-1.004-4.104 0-7.027 3.366-7.027 7.381 0 4.015 2.865 7.321 6.967 7.321 4.105 0 7.027-3.366 7.027-7.38C1.063 2.45.709 1.092 0 0m2.776-2.421C4.133-.62 4.871 1.624 4.871 3.956c0 5.816-4.428 10.657-10.775 10.657S-16.739 9.712-16.739 3.897c0-5.816 4.429-10.658 10.775-10.658 2.422 0 4.547.709 6.289 1.949l2.48-2.215 2.332 2.599z" style="fill:#000;fill-opacity:1;fill-rule:nonzero;stroke:none" transform="translate(704.542 138.422)"/><path d="M0 0v11.897h3.631V.148c0-3.838 1.978-5.905 5.226-5.905 3.217 0 5.195 1.948 5.195 5.757v11.897h3.631V.177c0-6.17-3.482-9.27-8.885-9.27C3.424-9.093 0-5.993 0 0" style="fill:#000;fill-opacity:1;fill-rule:nonzero;stroke:none" transform="translate(717.626 140.784)"/><path d="M0 0h15.321v-3.247H3.631V-8.62h10.362v-3.248H3.631v-5.549h11.838v-3.248H0z" style="fill:#000;fill-opacity:1;fill-rule:nonzero;stroke:none" transform="translate(744.251 152.68)"/><path d="M0 0h-2.332v10.509H0c3.424 0 5.698-1.948 5.698-5.254C5.698 1.919 3.424 0 0 0m-.089 15.587h-7.97V-5.078h7.852c7.44 0 11.78 4.458 11.78 10.421 0 5.964-4.281 10.244-11.662 10.244" style="fill:#000;fill-opacity:1;fill-rule:nonzero;stroke:none" transform="translate(459.009 105.35)"/><path d="M0 0h16.621v-4.871H5.668V-8h9.919v-4.517H5.668v-3.277h11.1v-4.871H0Z" style="fill:#000;fill-opacity:1;fill-rule:nonzero;stroke:none" transform="translate(480.034 120.938)"/><path d="M0 0h-2.716v5.461H-.03c2.067 0 3.307-.974 3.307-2.745C3.277 1.093 2.037 0 0 0m.413 10.273h-8.857v-20.665h5.728v5.904H.118c5.136 0 8.886 2.599 8.886 7.47 0 4.576-3.365 7.291-8.591 7.291" style="fill:#000;fill-opacity:1;fill-rule:nonzero;stroke:none" transform="translate(529.716 110.664)"/><path d="m0 0-2.303 5.875L-4.635 0Zm-5.019 12.665H.502L9.299-8.148h-6.14l-1.506 3.69h-7.971l-1.476-3.69h-6.022z" style="fill:#000;fill-opacity:1;fill-rule:nonzero;stroke:none" transform="translate(557.363 108.42)"/><path d="M0 0h-3.779v4.959h3.75c1.918 0 3.099-.855 3.099-2.479C3.07.974 1.949 0 0 0m4.576-3.543C7.144-2.451 8.827-.325 8.827 2.834c0 4.565-3.188 7.085-8.561 7.085h-9.772v-20.665h5.727v6.258h2.51l4.162-6.258h6.613z" style="fill:#000;fill-opacity:1;fill-rule:nonzero;stroke:none" transform="translate(583.933 111.019)"/><path d="M603.016 120.938h5.757v-20.665h-5.757z" style="fill:#000;fill-opacity:1;fill-rule:nonzero;stroke:none"/><path d="M0 0c-2.864.65-3.572 1.093-3.572 2.037 0 .738.679 1.358 2.066 1.358 1.83 0 3.897-.709 5.787-2.037l2.863 4.044C4.9 7.203 2.155 8.148-1.358 8.148c-4.96 0-8.001-2.805-8.001-6.643 0-4.25 3.396-5.52 7.794-6.524C1.24-5.668 1.919-6.17 1.919-7.026c0-.886-.827-1.446-2.362-1.446-2.391 0-4.664.855-6.701 2.479l-3.189-3.808c2.54-2.273 6.023-3.425 9.684-3.425 5.018 0 8.354 2.54 8.354 6.761C7.705-2.598 4.753-1.033 0 0" style="fill:#000;fill-opacity:1;fill-rule:nonzero;stroke:none" transform="translate(627.817 113.144)"/><path d="M259.356 11.127H256.9v262.296h2.456z" style="fill:#000;fill-opacity:1;fill-rule:nonzero;stroke:none"/><path d="m0 0-62.496 108.255-2.569 4.446-2.571-4.446L-130.138 0l-2.57-4.455H2.569Zm-33.272 1.483-13.121 21.245 26.426-.01.019-.037L-33.05 1.483Zm-63.596 0-13.185 21.352 26.47-.008-13.202-21.344zm31.949 1.247-26.829 46.93 53.68-.017zm3.112 52.456 11.939 19.324 11.155-19.324zm-3.198.095-13.232 21.422 26.47-.007zm-3.204-.091-23.209.003 11.217 19.424zm-16.166-29.587h-24.126l12.119 20.99zm2.765-4.848 11.026-19.272h-22.938zm33.287-.182 11.795-19.09h-22.721zm2.818 4.923 11.913 20.82 12.025-20.83zm-19.56 75.339 12.333-21.375-24.669.011zm-46.587-80.688 11.53-18.664h-22.305zm81.854-18.664 11.422 18.476L-7.709 1.483Z" style="fill:#7b7c80;fill-opacity:1;fill-rule:nonzero;stroke:none" transform="translate(194.083 129.75)"/><path d="m0 0-.492.715 1.939 1.587.614-.886Zm-1.911-10.41v9.652h4.737v-1.087H-.655v-3.06h3.317v-1.058H-.655v-3.346h3.481v-1.101z" style="fill:#00a6c6;fill-opacity:1;fill-rule:nonzero;stroke:none" transform="translate(62.823 110.39)"/><path d="M0 0c-2.963 0-4.191 1.973-4.191 4.69 0 2.946 1.392 5.162 4.505 5.162.71 0 1.433-.115 2.089-.286l-.137-1.201a6.713 6.713 0 0 1-2.089.343c-2.102 0-3.003-1.687-3.003-3.804 0-2.373.983-3.732 3.126-3.732.669 0 1.516.201 2.062.487L2.498.486C1.802.186.928 0 0 0" style="fill:#00a6c6;fill-opacity:1;fill-rule:nonzero;stroke:none" transform="translate(71.614 99.865)"/><path d="M0 0c-1.529 0-2.894-1.301-2.894-3.732 0-2.302.928-3.875 2.88-3.875 1.502 0 2.922 1.258 2.922 3.746C2.908-1.387 1.843 0 0 0m-.123-8.779c-2.771 0-4.109 1.93-4.109 4.861 0 3.217 1.966 5.076 4.368 5.076 2.485 0 4.11-1.687 4.11-4.861 0-3.218-1.966-5.076-4.369-5.076" style="fill:#00a6c6;fill-opacity:1;fill-rule:nonzero;stroke:none" transform="translate(79.422 108.616)"/><path d="M0 0v9.652h1.256V1.13H4.56V0Z" style="fill:#00a6c6;fill-opacity:1;fill-rule:nonzero;stroke:none" transform="translate(85.605 99.98)"/><path d="M0 0v9.652h4.737V8.565H1.256v-3.06h3.317V4.447H1.256V1.101h3.481V0Z" style="fill:#00a6c6;fill-opacity:1;fill-rule:nonzero;stroke:none" transform="translate(91.624 99.98)"/><path d="m0 0-3.509 5.977c-.423.701-.75 1.358-1.051 2.002.055-1.03.096-3.346.096-4.876V0h-1.229v9.652h1.652l3.426-5.791c.41-.687.792-1.43 1.134-2.116C.464 2.931.423 5.305.423 6.906v2.746h1.215V0Z" style="fill:#00a6c6;fill-opacity:1;fill-rule:nonzero;stroke:none" transform="translate(107.541 99.98)"/><path d="M0 0c-.177.486-.3.944-.409 1.444h-.028A12.519 12.519 0 0 0-.86-.014l-1.188-3.432h3.249Zm2.307-6.749L1.543-4.49h-3.918l-.765-2.259h-1.283l3.358 9.652H.328l3.385-9.652z" style="fill:#00a6c6;fill-opacity:1;fill-rule:nonzero;stroke:none" transform="translate(115.103 106.729)"/><path d="M0 0v-8.551h-1.256V0h-2.649v1.101h6.567V0Z" style="fill:#00a6c6;fill-opacity:1;fill-rule:nonzero;stroke:none" transform="translate(122.269 108.53)"/><path d="M126.391 109.631h1.256v-9.652h-1.256z" style="fill:#00a6c6;fill-opacity:1;fill-rule:nonzero;stroke:none"/><path d="M0 0c-1.529 0-2.895-1.301-2.895-3.732 0-2.302.929-3.875 2.881-3.875 1.502 0 2.922 1.258 2.922 3.746C2.908-1.387 1.843 0 0 0m-.123-8.779c-2.772 0-4.109 1.93-4.109 4.861 0 3.217 1.966 5.076 4.368 5.076 2.485 0 4.109-1.687 4.109-4.861 0-3.218-1.965-5.076-4.368-5.076" style="fill:#00a6c6;fill-opacity:1;fill-rule:nonzero;stroke:none" transform="translate(133.817 108.616)"/><path d="m0 0-3.508 5.977A20.688 20.688 0 0 0-4.56 7.979c.055-1.03.096-3.346.096-4.876V0h-1.228v9.652h1.651l3.427-5.791c.409-.687.792-1.43 1.133-2.116C.465 2.931.424 5.305.424 6.906v2.746h1.215V0Z" style="fill:#00a6c6;fill-opacity:1;fill-rule:nonzero;stroke:none" transform="translate(145.692 99.98)"/><path d="M0 0c-.178.486-.3.944-.41 1.444h-.027A12.519 12.519 0 0 0-.86-.014l-1.188-3.432h3.25zm2.307-6.749L1.543-4.49h-3.918l-.765-2.259h-1.283l3.358 9.652H.328l3.385-9.652z" style="fill:#00a6c6;fill-opacity:1;fill-rule:nonzero;stroke:none" transform="translate(153.254 106.729)"/><path d="M0 0v9.652h1.256V1.13H4.56V0Z" style="fill:#00a6c6;fill-opacity:1;fill-rule:nonzero;stroke:none" transform="translate(158.454 99.98)"/><path d="M0 0v9.652h4.737V8.565H1.256v-3.06h3.317V4.447H1.256V1.101h3.481V0Z" style="fill:#00a6c6;fill-opacity:1;fill-rule:nonzero;stroke:none" transform="translate(164.474 99.98)"/><path d="M0 0c-.478 0-1.037-.029-1.379-.043v-7.435a8.295 8.295 0 0 1 1.215-.086c2.157 0 3.672 1.172 3.672 3.789C3.508-1.315 2.389 0 0 0m-.3-8.68c-.929 0-1.652.058-2.335.058v9.637c.71.014 1.748.057 2.758.057 2.949 0 4.71-1.444 4.71-4.761C4.833-6.992 2.717-8.68-.3-8.68" style="fill:#00a6c6;fill-opacity:1;fill-rule:nonzero;stroke:none" transform="translate(177.332 108.602)"/><path d="M0 0v9.652h4.737V8.565H1.256v-3.06h3.317V4.447H1.256V1.101h3.481V0Z" style="fill:#00a6c6;fill-opacity:1;fill-rule:nonzero;stroke:none" transform="translate(184.157 99.98)"/><path d="M0 0c-.669 0-1.324.086-1.857.229l.068 1.258A5.774 5.774 0 0 1 .109 1.13c1.106 0 2.021.472 2.021 1.658 0 2.174-4.151 1.316-4.151 4.39 0 1.587 1.202 2.731 3.277 2.731a8.16 8.16 0 0 0 1.665-.171l-.068-1.173a6.045 6.045 0 0 1-1.665.258c-1.256 0-1.912-.601-1.912-1.502 0-2.088 4.164-1.33 4.164-4.347C3.44 1.244 2.143 0 0 0" style="fill:#00a6c6;fill-opacity:1;fill-rule:nonzero;stroke:none" transform="translate(192.757 99.85)"/><path d="M0 0c0 1.207-.379 2.165-1.137 2.875S-3.094 3.94-4.735 3.94h-.875c-.287 0-.566-.013-.839-.036v-7.986a9.506 9.506 0 0 1 1.416-.106c1.491.023 2.703.402 3.635 1.136C-.466-2.319 0-1.301 0 0m4.995.319a8.042 8.042 0 0 0-.669-3.265A7.428 7.428 0 0 0 2.375-5.59C1.521-6.335.487-6.921-.727-7.347c-1.214-.426-2.576-.639-4.087-.639h-.762c-.285 0-.576.023-.873.071v-8.447h-4.846V7.595c1.041.048 2.113.083 3.216.107 1.104.023 2.276.035 3.516.035 3.099 0 5.466-.645 7.103-1.934C4.177 4.513 4.995 2.685 4.995.319" style="fill:#00a6c6;fill-opacity:1;fill-rule:nonzero;stroke:none" transform="translate(72.67 83.807)"/><path d="M0 0c0 2.673-.572 4.714-1.715 6.122C-2.858 7.53-4.524 8.234-6.71 8.234a6.575 6.575 0 0 1-2.517-.497 5.908 5.908 0 0 1-2.125-1.49c-.609-.663-1.099-1.497-1.472-2.503s-.559-2.182-.559-3.531c0-1.278.13-2.431.391-3.461.261-1.029.665-1.905 1.212-2.626A5.61 5.61 0 0 1-9.711-7.56c.832-.403 1.808-.603 2.926-.603.82 0 1.634.153 2.442.461a6.048 6.048 0 0 1 2.181 1.455c.646.663 1.168 1.509 1.566 2.538C-.199-2.68 0-1.444 0 0m5.182.355c0-1.988-.324-3.762-.97-5.324-.646-1.562-1.522-2.892-2.628-3.993a11.23 11.23 0 0 0-3.895-2.52c-1.492-.58-3.095-.869-4.809-.869-1.914 0-3.592.278-5.033.834-1.442.555-2.635 1.36-3.579 2.413-.944 1.053-1.653 2.325-2.125 3.816-.472 1.49-.708 3.158-.708 5.004 0 1.988.323 3.762.969 5.324.646 1.561 1.529 2.886 2.647 3.975a11.564 11.564 0 0 0 3.914 2.502c1.492.58 3.082.87 4.772.87 1.665 0 3.2-.243 4.604-.728s2.615-1.224 3.635-2.218c1.019-.994 1.808-2.242 2.367-3.745.559-1.502.839-3.283.839-5.341" style="fill:#00a6c6;fill-opacity:1;fill-rule:nonzero;stroke:none" transform="translate(105.588 79.406)"/><path d="m0 0-7.381 12.103a28.505 28.505 0 0 0-1.51 2.662 170.04 170.04 0 0 0-1.212 2.484c.025-.52.056-1.13.093-1.827.038-.699.062-1.438.075-2.219l.037-2.378c.013-.805.019-1.561.019-2.271V0h-4.697v23.957h6.3l7.008-11.428a45.717 45.717 0 0 0 1.622-2.84l1.472-2.804c-.05.592-.092 1.29-.13 2.094a81.207 81.207 0 0 0-.075 2.521l-.037 2.608a159.63 159.63 0 0 0-.019 2.396v7.453h4.697V0Z" style="fill:#00a6c6;fill-opacity:1;fill-rule:nonzero;stroke:none" transform="translate(136.417 67.445)"/><path d="M0 0v-20.018h-4.847V0h-6.523v3.94H6.524V0z" style="fill:#00a6c6;fill-opacity:1;fill-rule:nonzero;stroke:none" transform="translate(164.45 87.463)"/><path d="M0 0c0-1.138-.23-2.181-.69-3.129A7.247 7.247 0 0 0-2.664-5.6c-.858-.699-1.901-1.244-3.131-1.635-1.229-.391-2.614-.587-4.154-.587-.894 0-1.776.048-2.645.142a20.33 20.33 0 0 0-2.497.426l.298 4.295a18.18 18.18 0 0 1 2.477-.604 15.88 15.88 0 0 1 2.776-.248c1.241 0 2.278.248 3.11.745.832.497 1.248 1.301 1.248 2.414 0 .757-.261 1.36-.782 1.81-.522.449-1.175.84-1.958 1.171-.783.331-1.628.657-2.535.976-.907.32-1.752.733-2.535 1.242a6.6 6.6 0 0 0-1.957 1.97c-.522.804-.783 1.869-.783 3.194 0 1.065.22 2.041.657 2.929a6.367 6.367 0 0 0 1.896 2.271c.826.627 1.832 1.118 3.015 1.473 1.184.355 2.534.532 4.05.532.721 0 1.473-.041 2.256-.123a43.993 43.993 0 0 0 2.292-.299l-.261-4.014c-.721.189-1.46.343-2.218.461s-1.522.178-2.293.178c-1.416 0-2.473-.273-3.168-.818-.696-.545-1.044-1.245-1.044-2.098 0-.711.26-1.286.78-1.724.52-.438 1.17-.829 1.95-1.173.78-.344 1.628-.682 2.545-1.013a11.829 11.829 0 0 0 2.545-1.28A7.011 7.011 0 0 0-.78 3.057C-.26 2.275 0 1.256 0 0" style="fill:#00a6c6;fill-opacity:1;fill-rule:nonzero;stroke:none" transform="translate(195.988 74.876)"/><path d="M0 0v9.652h4.737V8.565H1.256v-3.06h3.318V4.447H1.256V1.101h3.481V0Z" style="fill:#00a6c6;fill-opacity:1;fill-rule:nonzero;stroke:none" transform="translate(60.912 42.798)"/><path d="M0 0v-8.551h-1.256V0h-2.649v1.101h6.567V0Z" style="fill:#00a6c6;fill-opacity:1;fill-rule:nonzero;stroke:none" transform="translate(71.082 51.348)"/><path d="M0 0a11.117 11.117 0 0 0-2.079-.189c-1.34 0-2.459.213-3.355.639-.896.425-1.619.997-2.169 1.715a6.706 6.706 0 0 0-1.175 2.461 11.7 11.7 0 0 0-.35 2.875c0 1.261.158 2.421.475 3.478.316 1.056.79 1.964 1.423 2.721a6.487 6.487 0 0 0 2.384 1.774c.956.426 2.074.639 3.355.639.542 0 1.092-.035 1.649-.106a10.694 10.694 0 0 0 1.582-.319l-.317-2.792a10.402 10.402 0 0 1-3.073.473c-.708 0-1.329-.134-1.863-.403a3.707 3.707 0 0 1-1.333-1.112c-.355-.473-.618-1.037-.791-1.691a8.371 8.371 0 0 1-.26-2.142c0-1.751.354-3.092 1.062-4.022.708-.931 1.837-1.396 3.389-1.396.467 0 .979.062 1.536.189a6.703 6.703 0 0 1 1.424.473L1.853.52A10.704 10.704 0 0 0 0 0" style="fill:#00a6c6;fill-opacity:1;fill-rule:nonzero;stroke:none" transform="translate(88.42 42.774)"/><path d="M0 0v6.933h-6.462V0h-2.937v15.972h2.937V9.583H0v6.389h2.937V0Z" style="fill:#00a6c6;fill-opacity:1;fill-rule:nonzero;stroke:none" transform="translate(102.766 42.798)"/><path d="M0 0c-.151.441-.283.864-.395 1.266-.113.402-.215.831-.305 1.289h-.023a26.767 26.767 0 0 0-.723-2.673l-1.378-4.07h4.247Zm3.253-9.891L2.192-6.625H-3.57l-1.062-3.266h-2.959l5.332 15.972h3.321L6.507-9.891Z" style="fill:#00a6c6;fill-opacity:1;fill-rule:nonzero;stroke:none" transform="translate(115.486 52.688)"/><path d="M0 0c-1.105-1.049-2.657-1.574-4.657-1.574-1.202 0-2.183.157-2.942.469-.759.313-1.357.734-1.794 1.266a4.492 4.492 0 0 0-.902 1.85 9.539 9.539 0 0 0-.248 2.189v10.434h2.938V4.389c0-.505.045-.966.135-1.384.091-.418.256-.781.497-1.089.241-.307.565-.544.972-.709.407-.166.926-.249 1.559-.249 1.13 0 1.946.28 2.451.84.504.56.757 1.518.757 2.875v9.961h2.892V4.863C1.658 2.67 1.105 1.049 0 0" style="fill:#00a6c6;fill-opacity:1;fill-rule:nonzero;stroke:none" transform="translate(134.704 44.11)"/><path d="M0 0c0-.759-.14-1.454-.418-2.086a4.791 4.791 0 0 0-1.197-1.647c-.52-.466-1.152-.83-1.897-1.09-.745-.261-1.584-.391-2.517-.391-.543 0-1.077.031-1.604.094a11.23 11.23 0 0 0-1.513.284l.181 2.863c.436-.158.937-.292 1.501-.402a8.772 8.772 0 0 1 1.682-.165c.752 0 1.381.165 1.885.496.504.332.756.867.756 1.609 0 .505-.158.907-.474 1.207-.316.3-.712.56-1.186.781-.475.22-.987.438-1.537.65a6.96 6.96 0 0 0-1.536.829A4.22 4.22 0 0 0-9.06 4.345c-.316.536-.475 1.246-.475 2.129 0 .71.133 1.361.399 1.952a4.177 4.177 0 0 0 1.149 1.515c.5.418 1.11.745 1.827.982.717.237 1.536.355 2.455.355.436 0 .892-.028 1.366-.082.475-.055.938-.121 1.39-.199l-.158-2.677c-.437.126-.885.229-1.344.308-.46.079-.923.118-1.39.118-.858 0-1.499-.182-1.92-.545a1.763 1.763 0 0 1-.633-1.398c0-.475.158-.858.473-1.15a4.778 4.778 0 0 1 1.182-.782c.472-.229.987-.455 1.542-.676a6.931 6.931 0 0 0 1.542-.853A4.471 4.471 0 0 0-.473 2.038C-.158 1.517 0 .838 0 0" style="fill:#00a6c6;fill-opacity:1;fill-rule:nonzero;stroke:none" transform="translate(148.97 47.752)"/><path d="M0 0c0-.759-.14-1.454-.418-2.086a4.791 4.791 0 0 0-1.197-1.647c-.519-.466-1.152-.83-1.897-1.09-.745-.261-1.584-.391-2.517-.391-.543 0-1.077.031-1.604.094a11.23 11.23 0 0 0-1.513.284l.181 2.863c.436-.158.937-.292 1.501-.402a8.772 8.772 0 0 1 1.682-.165c.752 0 1.381.165 1.885.496.504.332.756.867.756 1.609 0 .505-.158.907-.474 1.207-.316.3-.712.56-1.186.781-.475.22-.987.438-1.537.65a6.96 6.96 0 0 0-1.536.829A4.22 4.22 0 0 0-9.06 4.345c-.316.536-.475 1.246-.475 2.129 0 .71.133 1.361.399 1.952a4.177 4.177 0 0 0 1.149 1.515c.5.418 1.11.745 1.827.982.717.237 1.536.355 2.455.355.436 0 .892-.028 1.366-.082.475-.055.938-.121 1.39-.199l-.158-2.677c-.437.126-.885.229-1.344.308-.46.079-.923.118-1.39.118-.858 0-1.499-.182-1.92-.545a1.763 1.763 0 0 1-.633-1.398c0-.475.158-.858.473-1.15a4.778 4.778 0 0 1 1.182-.782c.472-.229.987-.455 1.542-.676a6.931 6.931 0 0 0 1.542-.853A4.471 4.471 0 0 0-.473 2.038C-.158 1.517 0 .838 0 0" style="fill:#00a6c6;fill-opacity:1;fill-rule:nonzero;stroke:none" transform="translate(160.899 47.752)"/><path d="m0 0-.994 1.727L2.96 4.33l1.197-2.082Zm-3.095-17.013v15.972h8.292V-3.62H-.158v-3.904h5.083v-2.532H-.158v-4.33h5.355v-2.627z" style="fill:#00a6c6;fill-opacity:1;fill-rule:nonzero;stroke:none" transform="translate(167.066 59.81)"/><path d="M0 0v15.972h8.292v-2.58H2.937V9.488h5.084V6.957H2.937V2.626h5.355V0Z" style="fill:#00a6c6;fill-opacity:1;fill-rule:nonzero;stroke:none" transform="translate(175.674 42.798)"/><path d="M0 0c0-.759-.14-1.454-.418-2.086a4.791 4.791 0 0 0-1.197-1.647c-.52-.466-1.152-.83-1.897-1.09-.745-.261-1.584-.391-2.517-.391-.543 0-1.077.031-1.604.094a11.23 11.23 0 0 0-1.513.284l.18 2.863a10.16 10.16 0 0 1 1.502-.402 8.772 8.772 0 0 1 1.682-.165c.752 0 1.381.165 1.885.496.504.332.756.867.756 1.609 0 .505-.158.907-.474 1.207-.316.3-.712.56-1.186.781-.475.22-.987.438-1.537.65a6.96 6.96 0 0 0-1.536.829A4.22 4.22 0 0 0-9.06 4.345c-.316.536-.475 1.246-.475 2.129 0 .71.133 1.361.399 1.952a4.177 4.177 0 0 0 1.149 1.515c.5.418 1.11.745 1.827.982.717.237 1.536.355 2.455.355.436 0 .892-.028 1.366-.082.475-.055.938-.121 1.39-.199l-.158-2.677c-.437.126-.885.229-1.344.308-.46.079-.923.118-1.39.118-.858 0-1.499-.182-1.92-.545a1.763 1.763 0 0 1-.633-1.398c0-.475.158-.858.473-1.15a4.778 4.778 0 0 1 1.182-.782c.472-.229.987-.455 1.542-.676a6.931 6.931 0 0 0 1.542-.853A4.471 4.471 0 0 0-.473 2.038C-.158 1.517 0 .838 0 0" style="fill:#00a6c6;fill-opacity:1;fill-rule:nonzero;stroke:none" transform="translate(196.234 47.752)"/></g></svg>