<svg xmlns="http://www.w3.org/2000/svg" xml:space="preserve" id="Layer_1" x="0" y="0" viewBox="0 0 3217.55 470.45"><style>.st0{fill:#e91c24}</style><path d="M1081.56 248.72h106.88v-30.01h-106.88v-64.72h159.41v-29.87h-191.74v228.42h197.36v-29.47h-165.03zM1924.93 261.52c0 40.82-26.16 67.8-65.02 67.8-37.7 0-61.29-27.3-61.29-67.8V124.7h-32v138.35c0 62.3 43.53 96.25 93.07 96.25 73.13 0 96.91-51.6 96.91-96.25V124.7h-31.67zM2134.65 124.12h31.75v228.45h-31.75zM2545.41 303.11l-156.93-178.99h-31.38v228.42h31.71V172.1l157.24 180.44h30.97V124.12h-31.61zM2769.56 124.12h31.72v228.45h-31.72zM3109.94 228.58l92.09-104.71h-39.14l-73.1 82.11-71.11-82.11h-41.45l88.84 104.78-111.12 123.85h40.59l91.1-101.68 86.89 101.68h44.02zM1572.69 238.2c0 32.25-10.09 53.26-28.53 71.2l-17.2-20.57-36.81-.04 30.15 35.76c-7.36 3.65-20.64 6.62-30.98 6.69-47.34.33-85.03-39.16-85.03-92.78l-.02-.87c0-54.6 35.31-93.25 82.91-93.51 47.62-.4 85.52 38.91 85.52 93.15v.97zm-84.8-123.34c-65.89.43-116.69 51.96-116.69 123.85v.87c0 71.45 52.04 121.75 117.46 121.28 16.81-.14 36.68-4.67 51.55-12.62l18.05 21.44 36.92-.04-31.61-37.35c25.86-20.36 42.15-53.88 42.15-95.28v-.9c.02-71.02-52.2-121.75-117.83-121.25"/><path d="M852.81 337.24c24.09 0 43.21-19.92 43.21-43.5v-.25c0-23.61-18.88-43.28-43.21-43.28-24.13 0-43.27 19.92-43.27 43.54v.25c0 23.57 18.9 43.24 43.27 43.24m0-4.74c-21.87 0-38.27-17.39-38.27-38.51v-.25c0-21.15 16.63-38.76 38.27-38.76 21.84 0 38.25 17.39 38.25 38.51v.25c0 21.12-16.64 38.76-38.25 38.76m-17.9-17.13h10.94v-14.18h6.96l9.69 14.18h13.16l-11.41-16.16c5.96-1.99 9.92-6.69 9.92-13.92 0-10.16-7.72-14.93-18.18-14.93H834.9v45.01zm10.95-23.11v-12.44h9.42c4.7 0 7.72 2.24 7.72 6.22 0 3.73-2.72 6.22-7.72 6.22zM360.02 0l-72 25.08v377.73l-48-16.7V41.88l-144 50.29v243.65l-47.98-16.77V108.9L0 125.7v227.46l144.01 50.26V126.23l48.03-16.74v310.7l144 50.26V59.19l23.98-8.37 23.99 8.37v411.26l144.06-50.26v-310.7L576 126.23v277.19l144-50.26V125.7l-48.01-16.8v210.15l-47.95 16.77V92.17L480.01 41.88v344.23l-48.03 16.7V25.08z" class="st0"/></svg>