<svg xmlns="http://www.w3.org/2000/svg" width="393.747" height="166.16"><path d="M1298.1 744.855c-19.25-17.816-41.46-26.73-66.64-26.73-16.64 0-32.31 3.145-47.05 9.445-14.74 6.293-27.62 15.145-38.66 26.551-11.06 11.406-19.79 25.129-26.2 41.164-6.42 16.039-9.62 33.68-9.62 52.922 0 17.344 3.2 33.738 9.62 49.188 6.41 15.441 15.26 28.867 26.55 40.273 11.28 11.406 24.65 20.43 40.1 27.082 15.44 6.652 32.07 9.98 49.89 9.98 23.53 0 44.07-4.933 61.66-14.789 17.58-9.863 30.76-23.343 39.56-40.453l-43.48-32.789c-5.71 11.406-13.96 20.254-24.77 26.555-10.82 6.293-22.52 9.441-35.11 9.441-9.74 0-18.59-1.957-26.55-5.879-7.96-3.921-14.79-9.39-20.49-16.394-5.7-7.008-10.11-15.149-13.19-24.41-3.09-9.27-4.63-19.25-4.63-29.942 0-10.929 1.66-21.027 4.99-30.293 3.32-9.261 7.96-17.285 13.9-24.058 5.93-6.766 13-12.059 21.21-15.86 8.19-3.804 17.28-5.695 27.26-5.695 22.8 0 43.35 10.563 61.65 31.715v7.84h-49.18v42.41h97.66V719.906h-48.48v24.949m192.81 178.911-36.34 9.98 18.52 46.332h51.68zm23.88-92.661c-1.19 11.875-5.47 21.258-12.82 28.153-7.37 6.89-16.52 10.336-27.45 10.336-11.16 0-20.37-3.508-27.62-10.512-7.24-7.012-11.46-16.344-12.65-27.977zm-39.56-114.761c-15.67 0-29.75 2.558-42.23 7.66-12.48 5.109-23.04 12.055-31.71 20.851-8.69 8.79-15.28 18.946-19.79 30.473-4.51 11.524-6.77 23.578-6.77 36.172 0 13.543 2.26 26.313 6.77 38.316 4.51 11.993 11.06 22.508 19.61 31.536 8.55 9.031 19.06 16.16 31.53 21.386 12.48 5.227 26.67 7.844 42.59 7.844 15.92 0 30.06-2.617 42.41-7.844 12.36-5.226 22.82-12.293 31.37-21.203 8.56-8.914 15.02-19.191 19.42-30.832 4.4-11.64 6.6-23.875 6.6-36.707 0-3.332-.12-6.594-.36-9.801s-.59-6-1.07-8.375h-138.28c.95-12.597 5.53-22.156 13.72-28.691 8.19-6.539 17.52-9.797 27.98-9.797 8.31 0 16.33 2.016 24.05 6.059 7.73 4.035 12.89 9.496 15.51 16.39l48.47-13.539c-7.37-14.738-18.77-26.734-34.21-35.996-15.45-9.269-33.99-13.902-55.61-13.902m178.56 96.937c0-14.73 3.92-26.547 11.75-35.457 7.85-8.91 17.83-13.367 29.95-13.367 5.93 0 11.4 1.188 16.39 3.566 4.99 2.368 9.32 5.7 13.01 9.977 3.68 4.277 6.59 9.445 8.73 15.5 2.14 6.063 3.2 12.656 3.2 19.781 0 14.731-3.91 26.555-11.75 35.465-7.85 8.91-17.71 13.363-29.58 13.363-5.94 0-11.47-1.191-16.58-3.562a38.773 38.773 0 0 1-13.18-9.981c-3.69-4.277-6.6-9.445-8.73-15.503-2.14-6.059-3.21-12.653-3.21-19.782zm41.7-96.937c-15.92 0-30.12 2.617-42.59 7.84-12.48 5.226-22.99 12.296-31.55 21.207-8.55 8.91-15.02 19.242-19.42 31.007-4.39 11.762-6.59 24.059-6.59 36.883 0 12.832 2.2 25.129 6.59 36.891 4.4 11.758 10.87 22.094 19.42 31.004 8.56 8.914 19.07 16.043 31.55 21.383 12.47 5.347 26.67 8.023 42.59 8.023 15.91 0 30.05-2.676 42.41-8.023 12.35-5.34 22.81-12.469 31.35-21.383 8.56-8.91 15.09-19.246 19.61-31.004 4.52-11.762 6.77-24.059 6.77-36.891 0-12.824-2.2-25.121-6.59-36.883-4.4-11.765-10.87-22.097-19.42-31.007-8.56-8.911-19.08-15.981-31.55-21.207-12.47-5.223-26.67-7.84-42.58-7.84m226.65 48.113c7.84 0 15.38 2.316 22.63 6.949 7.25 4.633 12.77 10.989 16.57 19.067v39.207c-3.56 9.5-9.32 17.285-17.28 23.343-7.97 6.059-16.22 9.086-24.78 9.086-6.18 0-11.81-1.371-16.92-4.097-5.12-2.735-9.57-6.36-13.37-10.871-3.8-4.52-6.71-9.743-8.73-15.68-2.02-5.941-3.03-12.242-3.03-18.891 0-6.894 1.13-13.308 3.39-19.246 2.26-5.941 5.34-11.047 9.27-15.324 3.92-4.277 8.66-7.609 14.25-9.977 5.58-2.378 11.59-3.566 18-3.566zm-15.33-48.113c-12.83 0-24.65 2.441-35.46 7.304-10.82 4.868-20.13 11.704-27.97 20.493-7.85 8.789-13.97 19.066-18.35 30.832-4.41 11.761-6.61 24.648-6.61 38.664 0 13.547 2.03 26.258 6.07 38.136 4.03 11.879 9.74 22.153 17.11 30.829 7.35 8.671 16.09 15.503 26.19 20.496 10.1 4.988 21.2 7.484 33.32 7.484 13.07 0 24.89-3.09 35.46-9.269 10.58-6.18 18.71-14.497 24.41-24.946v103.711h57.03V784.059c0-5.704.89-9.684 2.67-11.938 1.79-2.262 4.93-3.625 9.44-4.098v-48.117c-5.22-1.183-9.74-1.957-13.53-2.312-3.81-.356-7.37-.539-10.69-.539-9.99 0-18.07 2.086-24.24 6.238-6.18 4.152-9.75 10.16-10.7 17.996l-1.06 9.625c-6.66-11.644-15.63-20.312-26.91-26.016-11.28-5.703-23.34-8.554-36.18-8.554m230.59 40.988c6.18 0 12.18 1.066 18 3.207 5.82 2.137 10.63 4.988 14.43 8.555 5.47 4.269 8.2 8.781 8.2 13.539v17.824c-4.99 1.898-10.4 3.383-16.22 4.449-5.82 1.071-11.22 1.61-16.21 1.61-10.46 0-19.07-2.379-25.84-7.129-6.77-4.758-10.15-10.934-10.15-18.535 0-6.895 2.6-12.536 7.84-16.93 5.21-4.399 11.87-6.59 19.95-6.59zm-16.75-40.988c-9.27 0-17.88 1.488-25.84 4.453-7.96 2.969-14.78 7.129-20.49 12.476-5.7 5.344-10.22 11.641-13.54 18.891-3.33 7.242-4.99 15.145-4.99 23.695 0 9.27 1.96 17.7 5.88 25.309 3.92 7.598 9.44 14.129 16.57 19.598 7.13 5.464 15.56 9.742 25.3 12.832 9.75 3.086 20.55 4.636 32.43 4.636 7.85 0 15.45-.66 22.82-1.964 7.36-1.309 13.78-3.266 19.24-5.879v8.554c0 21.618-12.48 32.434-37.42 32.434-10.22 0-19.96-1.731-29.23-5.172-9.26-3.449-19.01-8.613-29.22-15.504l-16.75 35.641c12.35 8.074 25.18 14.136 38.49 18.179 13.3 4.036 27.44 6.059 42.42 6.059 28.27 0 50.12-6.656 65.57-19.961 15.44-13.312 23.17-32.789 23.17-58.449v-48.113c0-5.704.88-9.684 2.67-11.938 1.78-2.262 4.92-3.625 9.44-4.098v-48.117c-4.99-1.183-9.51-1.957-13.54-2.312-4.04-.356-7.72-.539-11.05-.539-10.69 0-18.77 2.086-24.23 6.238-5.47 4.152-8.91 10.039-10.34 17.641l-1.07 8.554c-8.32-10.695-18.23-18.886-29.76-24.59-11.53-5.703-23.7-8.554-36.53-8.554m280.85 13.543c-7.84-3.328-16.82-6.414-26.91-9.266-10.1-2.851-20.26-4.277-30.47-4.277-7.13 0-13.85.894-20.14 2.676-6.3 1.777-11.82 4.628-16.57 8.55-4.76 3.918-8.5 9.09-11.23 15.5-2.74 6.418-4.09 14.137-4.09 23.172v97.649h-23.89v43.125h23.89v59.519h57.02v-59.519h38.13v-43.125h-38.13V785.84c0-6.18 1.54-10.633 4.63-13.363 3.08-2.735 7.01-4.098 11.76-4.098 4.27 0 8.67.715 13.19 2.141 4.51 1.425 8.43 2.96 11.76 4.628l11.05-45.261m97.29 27.445c6.18 0 12.17 1.066 17.99 3.207 5.82 2.137 10.64 4.988 14.44 8.555 5.47 4.269 8.2 8.781 8.2 13.539v17.824c-4.99 1.898-10.4 3.383-16.22 4.449-5.82 1.071-11.22 1.61-16.21 1.61-10.46 0-19.07-2.379-25.84-7.129-6.78-4.758-10.16-10.934-10.16-18.535 0-6.895 2.61-12.536 7.84-16.93 5.22-4.399 11.88-6.59 19.96-6.59zm-16.75-40.988c-9.27 0-17.88 1.488-25.84 4.453-7.96 2.969-14.79 7.129-20.49 12.476-5.7 5.344-10.22 11.641-13.55 18.891-3.33 7.242-4.99 15.145-4.99 23.695 0 9.27 1.97 17.7 5.88 25.309 3.93 7.598 9.45 14.129 16.58 19.598 7.12 5.464 15.55 9.742 25.3 12.832 9.74 3.086 20.55 4.636 32.43 4.636 7.84 0 15.45-.66 22.81-1.964 7.37-1.309 13.78-3.266 19.25-5.879v8.554c0 21.618-12.48 32.434-37.42 32.434-10.23 0-19.96-1.731-29.23-5.172-9.27-3.449-19.01-8.613-29.22-15.504l-16.76 35.641c12.36 8.074 25.19 14.136 38.5 18.179 13.3 4.036 27.44 6.059 42.41 6.059 28.27 0 50.13-6.656 65.58-19.961 15.44-13.312 23.16-32.789 23.16-58.449v-48.113c0-5.704.89-9.684 2.68-11.938 1.78-2.262 4.92-3.625 9.44-4.098v-48.117c-4.99-1.183-9.51-1.957-13.54-2.312-4.05-.356-7.73-.539-11.05-.539-10.69 0-18.78 2.086-24.24 6.238-5.47 4.152-8.9 10.039-10.33 17.641l-1.07 8.554c-8.32-10.695-18.24-18.886-29.76-24.59-11.53-5.703-23.7-8.554-36.53-8.554M1156.62 495.383h80.9c7.36 0 14.08 1.601 20.13 4.808a49.048 49.048 0 0 1 15.51 12.832c4.27 5.348 7.6 11.52 9.97 18.532 2.37 7.004 3.57 14.308 3.57 21.918 0 7.84-1.37 15.261-4.1 22.273-2.73 7.008-6.41 13.125-11.05 18.356a50.575 50.575 0 0 1-16.39 12.296c-6.3 2.969-12.9 4.454-19.78 4.454h-78.76zm-24.59-115.477v253.043h104.77c10.93 0 20.97-2.32 30.12-6.949 9.14-4.633 17.04-10.691 23.7-18.176 6.65-7.488 11.82-15.984 15.5-25.484 3.68-9.504 5.53-19.125 5.53-28.867 0-10.461-1.73-20.493-5.17-30.118-3.45-9.621-8.38-18.121-14.79-25.48-6.42-7.367-14.08-13.309-22.99-17.82-8.91-4.516-18.83-6.774-29.76-6.774h-82.32v-93.375h-24.59m272.28 14.973c10.7 0 21.32 2.312 31.9 6.949 10.56 4.633 18.94 10.985 25.12 19.067a37.806 37.806 0 0 1 4.28 6.949c1.18 2.492 1.78 4.812 1.78 6.945v30.301c-8.08 3.078-16.51 5.457-25.3 7.121-8.79 1.66-17.35 2.496-25.66 2.496-17.35 0-31.42-3.504-42.23-10.512-10.81-7.011-16.21-16.695-16.21-29.047 0-4.984.93-9.859 2.84-14.609 1.9-4.758 4.81-9.035 8.74-12.832 3.91-3.805 8.73-6.894 14.43-9.269 5.7-2.379 12.47-3.559 20.31-3.559zm-6.06-18.535c-9.5 0-18.17 1.488-26.02 4.453-7.84 2.969-14.55 7.07-20.13 12.301-5.59 5.218-9.93 11.277-13.01 18.172-3.09 6.89-4.63 14.136-4.63 21.742 0 8.551 1.89 16.328 5.7 23.34 3.8 7.007 9.14 13.007 16.04 18 6.88 4.988 15.14 8.851 24.76 11.586 9.63 2.726 20.26 4.097 31.91 4.097 9.27 0 18.76-.836 28.5-2.496 9.75-1.664 18.42-4.043 26.02-7.129v16.754c0 16.391-4.69 29.399-14.07 39.024-9.39 9.625-22.04 14.433-37.96 14.433-9.98 0-19.9-1.906-29.76-5.703-9.86-3.805-19.9-9.262-30.11-16.391l-8.56 16.036c12.12 8.074 23.88 14.132 35.28 18.175 11.41 4.039 23.28 6.063 35.65 6.063 22.57 0 40.51-6.539 53.81-19.606 13.31-13.066 19.96-31.129 19.96-54.172V411.27c0-6.657 2.85-9.981 8.55-9.981v-21.383c-1.9-.234-3.68-.41-5.34-.531-1.67-.117-3.1-.18-4.28-.18-4.75 0-9.09 1.426-13 4.278-3.93 2.851-6.13 7.129-6.61 12.832l-.71 14.609c-8.08-10.934-18.71-19.426-31.89-25.484-13.19-6.055-26.56-9.086-40.1-9.086m244.13 167.863c-16.4-.48-30.65-4.988-42.77-13.543-12.11-8.555-20.67-20.316-25.66-35.281V379.906h-24.24V565.59h22.82v-44.551c6.41 13.066 14.84 23.938 25.3 32.613 10.45 8.668 21.74 13.008 33.86 13.008h6.05c1.91 0 3.45-.121 4.64-.355v-22.098m37.77-164.301V565.59h24.24V379.906Zm0 224.532v35.64h24.24v-35.64h-24.24m143.99-228.094c-14.5 0-28.64 2.379-42.41 7.129-13.78 4.75-25.67 11.636-35.65 20.668l11.06 16.398c10.44-8.555 21.08-14.973 31.89-19.25 10.81-4.273 22.39-6.41 34.75-6.41 14.97 0 26.91 3.027 35.82 9.086 8.9 6.058 13.37 14.668 13.37 25.84 0 5.218-1.2 9.562-3.57 13.008-2.38 3.441-5.89 6.468-10.52 9.085-4.63 2.614-10.46 4.93-17.46 6.95-7.01 2.015-15.14 4.101-24.41 6.242-10.69 2.605-19.96 5.219-27.8 7.836-7.85 2.613-14.32 5.582-19.43 8.91-5.11 3.328-8.9 7.422-11.4 12.297-2.49 4.867-3.74 10.984-3.74 18.351 0 9.27 1.83 17.469 5.52 24.598 3.68 7.125 8.67 13.008 14.97 17.641 6.29 4.629 13.66 8.132 22.09 10.511 8.44 2.375 17.41 3.567 26.92 3.567 14.26 0 27.19-2.321 38.85-6.953 11.63-4.629 21.02-10.754 28.15-18.356l-11.77-14.254c-6.88 7.129-15.26 12.473-25.12 16.035-9.86 3.567-20.13 5.348-30.83 5.348-6.41 0-12.36-.656-17.82-1.957-5.47-1.309-10.28-3.391-14.43-6.242-4.16-2.848-7.43-6.473-9.81-10.867-2.37-4.403-3.56-9.567-3.56-15.504 0-4.992.83-9.035 2.5-12.113 1.66-3.094 4.39-5.77 8.19-8.024 3.8-2.262 8.62-4.277 14.44-6.059 5.82-1.785 12.89-3.625 21.21-5.523 11.87-2.852 22.32-5.703 31.35-8.555 9.04-2.851 16.58-6.183 22.64-9.976 6.06-3.805 10.63-8.438 13.72-13.903 3.09-5.468 4.63-12.117 4.63-19.953 0-17.109-6.53-30.656-19.6-40.632-13.06-9.981-30.65-14.969-52.74-14.969" style="fill:#2c378f;fill-opacity:1;fill-rule:nonzero;stroke:none" transform="matrix(.13333 0 0 -.13333 0 166.16)"/><path d="M1138.42 216.301h-10.77v68.066h10.77v-68.066m14.87 45.379-5.5 3.41c2.67 3.871 4.03 7.961 4.12 12.273v7.004h9.44v-6.113c0-3.043-.78-6.109-2.32-9.195-1.55-3.09-3.47-5.547-5.74-7.379m40.61 22.687h12.28l-12.28-13.429-8.64.023zm-2.44-27.871c-2.95 0-5.33-1.035-7.15-3.101-1.81-2.071-2.98-4.954-3.48-8.645h20.51v.801c-.23 3.601-1.19 6.328-2.88 8.176-1.68 1.843-4.01 2.769-7 2.769zm1.29-41.074c-6.83 0-12.35 2.148-16.59 6.449-4.24 4.289-6.36 10.02-6.36 17.16v1.34c0 4.777.92 9.055 2.77 12.824 1.84 3.762 4.44 6.7 7.78 8.793 3.33 2.098 7.05 3.149 11.16 3.149 6.52 0 11.57-2.086 15.13-6.25 3.56-4.164 5.34-10.059 5.34-17.676v-4.34h-31.33c.33-3.961 1.65-7.09 3.97-9.402 2.32-2.297 5.24-3.457 8.76-3.457 4.93 0 8.94 2 12.05 5.988l5.8-5.539c-1.93-2.871-4.49-5.09-7.69-6.672-3.2-1.578-6.8-2.367-10.79-2.367m48.18 8.59c2.69 0 4.92.789 6.69 2.347 1.77 1.571 2.72 3.5 2.84 5.813h10.14c-.11-2.992-1.04-5.774-2.78-8.363-1.75-2.579-4.11-4.629-7.09-6.129-2.99-1.508-6.21-2.258-9.67-2.258-6.7 0-12.02 2.168-15.95 6.508-3.92 4.34-5.89 10.34-5.89 17.992v1.109c0 7.293 1.95 13.141 5.85 17.524 3.9 4.386 9.21 6.582 15.95 6.582 5.71 0 10.34-1.664 13.94-4.985 3.58-3.324 5.47-7.691 5.64-13.097h-10.14c-.12 2.75-1.06 5.008-2.82 6.777-1.75 1.773-3.99 2.664-6.71 2.664-3.48 0-6.17-1.266-8.06-3.789-1.9-2.527-2.85-6.359-2.88-11.496v-1.731c0-5.199.93-9.082 2.81-11.628 1.87-2.563 4.59-3.84 8.13-3.84m37.47 15.777c0-4.937 1.01-8.801 3.05-11.59 2.04-2.789 4.88-4.187 8.51-4.187s6.46 1.418 8.48 4.258c2.03 2.832 3.04 6.98 3.04 12.449 0 4.84-1.04 8.687-3.12 11.523-2.08 2.836-4.92 4.254-8.49 4.254-3.52 0-6.31-1.398-8.37-4.191-2.07-2.789-3.1-6.965-3.1-12.516zm-10.78.93c0 4.703.94 8.929 2.8 12.695 1.86 3.77 4.48 6.66 7.84 8.688 3.37 2.019 7.24 3.035 11.61 3.035 6.47 0 11.72-2.086 15.75-6.25 4.04-4.164 6.21-9.688 6.54-16.578l.04-2.52c0-4.73-.9-8.949-2.72-12.68-1.82-3.718-4.41-6.597-7.8-8.629-3.38-2.039-7.29-3.058-11.72-3.058-6.76 0-12.18 2.25-16.24 6.75-4.06 4.508-6.1 10.519-6.1 18.019v.528m66.06-24.418h-10.77v68.066h10.77v-68.066m32.45 40.195c-2.95 0-5.33-1.035-7.15-3.101-1.82-2.071-2.98-4.954-3.49-8.645h20.52v.801c-.23 3.601-1.19 6.328-2.88 8.176-1.68 1.843-4.01 2.769-7 2.769zm1.29-41.074c-6.83 0-12.35 2.148-16.59 6.449-4.24 4.289-6.36 10.02-6.36 17.16v1.34c0 4.777.92 9.055 2.76 12.824 1.85 3.762 4.45 6.7 7.79 8.793 3.33 2.098 7.05 3.149 11.16 3.149 6.52 0 11.57-2.086 15.13-6.25 3.56-4.164 5.34-10.059 5.34-17.676v-4.34h-31.33c.33-3.961 1.65-7.09 3.96-9.402 2.33-2.297 5.25-3.457 8.76-3.457 4.94 0 8.95 2 12.05 5.988l5.81-5.539c-1.93-2.871-4.49-5.09-7.69-6.672-3.2-1.578-6.81-2.367-10.79-2.367m60.74 24.277c0-4.879.94-8.679 2.81-11.41 1.88-2.73 4.54-4.098 8-4.098 4.41 0 7.63 1.969 9.66 5.891v20.477c-1.97 3.836-5.17 5.761-9.57 5.761-3.49 0-6.17-1.382-8.07-4.148-1.88-2.762-2.83-6.922-2.83-12.473zm-10.77.93c0 7.391 1.72 13.316 5.15 17.793 3.42 4.473 8.01 6.715 13.78 6.715 5.07 0 9.18-1.774 12.31-5.317v24.547h10.77v-68.066h-9.74l-.54 4.969c-3.21-3.899-7.52-5.848-12.89-5.848-5.62 0-10.16 2.258-13.63 6.777-3.47 4.52-5.21 10.66-5.21 18.43m73.98 15.867c-2.95 0-5.33-1.035-7.14-3.101-1.82-2.071-2.98-4.954-3.49-8.645h20.52v.801c-.24 3.601-1.19 6.328-2.88 8.176-1.68 1.843-4.02 2.769-7.01 2.769zm1.29-41.074c-6.82 0-12.35 2.148-16.59 6.449-4.24 4.289-6.36 10.02-6.36 17.16v1.34c0 4.777.92 9.055 2.77 12.824 1.84 3.762 4.44 6.7 7.78 8.793 3.33 2.098 7.05 3.149 11.16 3.149 6.53 0 11.57-2.086 15.13-6.25 3.56-4.164 5.34-10.059 5.34-17.676v-4.34h-31.33c.34-3.961 1.65-7.09 3.97-9.402 2.32-2.297 5.24-3.457 8.76-3.457 4.93 0 8.94 2 12.05 5.988l5.8-5.539c-1.92-2.871-4.48-5.09-7.69-6.672-3.2-1.578-6.8-2.367-10.79-2.367m55.36 13.91c0 1.918-.79 3.387-2.37 4.387-1.58 1-4.2 1.89-7.86 2.66-3.66.762-6.72 1.742-9.18 2.922-5.37 2.597-8.06 6.371-8.06 11.301 0 4.136 1.74 7.593 5.23 10.367 3.48 2.777 7.92 4.168 13.29 4.168 5.73 0 10.36-1.422 13.9-4.258 3.52-2.832 5.29-6.512 5.29-11.031h-10.77c0 2.066-.76 3.789-2.31 5.164-1.53 1.371-3.57 2.058-6.11 2.058-2.36 0-4.29-.547-5.78-1.64-1.5-1.094-2.24-2.555-2.24-4.383 0-1.656.69-2.942 2.08-3.859 1.39-.915 4.2-1.836 8.42-2.766 4.23-.934 7.54-2.043 9.95-3.332 2.41-1.281 4.2-2.82 5.36-4.621 1.17-1.809 1.75-3.989 1.75-6.559 0-4.308-1.79-7.808-5.36-10.48-3.58-2.68-8.25-4.008-14.04-4.008-3.93 0-7.44.707-10.5 2.117-3.08 1.422-5.47 3.371-7.19 5.852-1.71 2.48-2.57 5.16-2.57 8.031h10.46c.15-2.551 1.11-4.512 2.88-5.883 1.78-1.367 4.12-2.059 7.05-2.059 2.83 0 4.99.54 6.47 1.622 1.47 1.078 2.21 2.488 2.21 4.23m55.83-13.031h-10.77v47.949h10.77zm-11.43 60.398c0 1.656.53 3.028 1.57 4.121 1.06 1.094 2.55 1.641 4.5 1.641 1.95 0 3.46-.547 4.52-1.641 1.07-1.093 1.6-2.465 1.6-4.121 0-1.625-.53-2.972-1.6-4.051-1.06-1.082-2.57-1.617-4.52-1.617-1.95 0-3.44.535-4.5 1.617-1.04 1.079-1.57 2.426-1.57 4.051m34.05-12.449.31-5.539c3.55 4.281 8.2 6.426 13.96 6.426 9.99 0 15.07-5.719 15.24-17.149v-31.687h-10.77v31.066c0 3.043-.65 5.297-1.96 6.754-1.32 1.465-3.47 2.199-6.46 2.199-4.33 0-7.57-1.968-9.69-5.894v-34.125h-10.77v47.949h10.14m50.23-24.551c0-4.82.98-8.609 2.95-11.359 1.96-2.77 4.68-4.149 8.17-4.149 4.34 0 7.56 1.86 9.66 5.59v21.082c-2.04 3.641-5.23 5.457-9.57 5.457-3.55 0-6.3-1.406-8.26-4.211-1.97-2.808-2.95-6.937-2.95-12.41zm-10.73.93c0 7.449 1.75 13.391 5.26 17.84 3.49 4.441 8.14 6.668 13.93 6.668 5.46 0 9.77-1.91 12.89-5.719l.49 4.832h9.71v-46.488c0-6.282-1.96-11.25-5.87-14.883-3.92-3.641-9.2-5.449-15.85-5.449-3.52 0-6.94.73-10.3 2.191-3.35 1.461-5.9 3.379-7.64 5.738l5.1 6.473c3.3-3.934 7.38-5.902 12.22-5.902 3.58 0 6.4.968 8.47 2.91 2.06 1.93 3.1 4.781 3.1 8.531v3.231c-3.1-3.461-7.24-5.18-12.4-5.18-5.62 0-10.21 2.226-13.76 6.687-3.57 4.461-5.35 10.629-5.35 18.52m76.51 43.738h12.27l-12.27-13.429-8.65.023zm-2.44-27.871c-2.95 0-5.34-1.035-7.15-3.101-1.82-2.071-2.98-4.954-3.49-8.645h20.52v.801c-.24 3.601-1.19 6.328-2.88 8.176-1.68 1.843-4.02 2.769-7 2.769zm1.29-41.074c-6.83 0-12.36 2.148-16.6 6.449-4.24 4.289-6.35 10.02-6.35 17.16v1.34c0 4.777.91 9.055 2.76 12.824 1.85 3.762 4.44 6.7 7.78 8.793 3.33 2.098 7.05 3.149 11.16 3.149 6.53 0 11.58-2.086 15.13-6.25 3.57-4.164 5.34-10.059 5.34-17.676v-4.34h-31.32c.33-3.961 1.65-7.09 3.96-9.402 2.32-2.297 5.24-3.457 8.76-3.457 4.93 0 8.95 2 12.05 5.988l5.8-5.539c-1.92-2.871-4.48-5.09-7.68-6.672-3.21-1.578-6.81-2.367-10.79-2.367m38.48 48.828.31-5.539c3.55 4.281 8.2 6.426 13.96 6.426 9.99 0 15.07-5.719 15.24-17.149v-31.687h-10.77v31.066c0 3.043-.65 5.297-1.96 6.754-1.32 1.465-3.47 2.199-6.46 2.199-4.33 0-7.57-1.968-9.69-5.894v-34.125h-10.78v47.949h10.15m52.84-47.949h-10.77v47.949h10.77zm-11.43 60.398c0 1.656.52 3.028 1.57 4.121 1.05 1.094 2.55 1.641 4.5 1.641 1.95 0 3.46-.547 4.52-1.641 1.07-1.093 1.6-2.465 1.6-4.121 0-1.625-.53-2.972-1.6-4.051-1.06-1.082-2.57-1.617-4.52-1.617-1.95 0-3.45.535-4.5 1.617-1.05 1.079-1.57 2.426-1.57 4.051m43.88-20.203c-2.94 0-5.33-1.035-7.14-3.101-1.82-2.071-2.98-4.954-3.49-8.645h20.52v.801c-.24 3.601-1.19 6.328-2.88 8.176-1.68 1.843-4.02 2.769-7.01 2.769zm1.29-41.074c-6.82 0-12.35 2.148-16.59 6.449-4.24 4.289-6.36 10.02-6.36 17.16v1.34c0 4.777.92 9.055 2.77 12.824 1.84 3.762 4.44 6.7 7.78 8.793 3.33 2.098 7.05 3.149 11.16 3.149 6.53 0 11.58-2.086 15.13-6.25 3.56-4.164 5.34-10.059 5.34-17.676v-4.34h-31.33c.34-3.961 1.65-7.09 3.97-9.402 2.32-2.297 5.24-3.457 8.76-3.457 4.93 0 8.94 2 12.05 5.988l5.8-5.539c-1.92-2.871-4.48-5.09-7.69-6.672-3.2-1.578-6.8-2.367-10.79-2.367m57.53 5.578c-3.16-3.719-7.64-5.578-13.46-5.578-5.21 0-9.14 1.519-11.81 4.558-2.68 3.04-4.01 7.45-4.01 13.211v31.059h10.77v-30.93c0-6.09 2.52-9.129 7.57-9.129 5.23 0 8.76 1.868 10.59 5.629v34.43h10.77v-47.949h-10.15l-.27 4.699m47.4 33.41c-1.42.238-2.89.356-4.39.356-4.93 0-8.25-1.891-9.97-5.672v-32.793h-10.76v47.949h10.27l.27-5.363c2.6 4.164 6.21 6.25 10.82 6.25 1.53 0 2.8-.211 3.8-.625l-.04-10.102m8.48-6.469c0 1.711.55 3.149 1.64 4.301 1.1 1.153 2.63 1.727 4.61 1.727 1.98 0 3.53-.574 4.63-1.727 1.11-1.152 1.66-2.59 1.66-4.301 0-1.746-.58-3.16-1.73-4.25-1.15-1.101-2.66-1.64-4.56-1.64-1.92 0-3.44.539-4.56 1.64-1.12 1.09-1.69 2.504-1.69 4.25m45.57 8.555c-2.95 0-5.33-1.035-7.15-3.101-1.82-2.071-2.98-4.954-3.49-8.645h20.52v.801c-.23 3.601-1.19 6.328-2.88 8.176-1.68 1.843-4.01 2.769-7 2.769zm1.29-41.074c-6.83 0-12.36 2.148-16.59 6.449-4.24 4.289-6.36 10.02-6.36 17.16v1.34c0 4.777.92 9.055 2.76 12.824 1.85 3.762 4.44 6.7 7.78 8.793 3.33 2.098 7.06 3.149 11.17 3.149 6.52 0 11.57-2.086 15.12-6.25 3.57-4.164 5.35-10.059 5.35-17.676v-4.34h-31.33c.33-3.961 1.65-7.09 3.96-9.402 2.33-2.297 5.25-3.457 8.76-3.457 4.93 0 8.95 2 12.05 5.988l5.8-5.539c-1.92-2.871-4.48-5.09-7.68-6.672-3.21-1.578-6.81-2.367-10.79-2.367m55.37 13.91c0 1.918-.79 3.387-2.37 4.387-1.59 1-4.2 1.89-7.87 2.66-3.66.762-6.71 1.742-9.18 2.922-5.37 2.597-8.05 6.371-8.05 11.301 0 4.136 1.74 7.593 5.22 10.367 3.49 2.777 7.92 4.168 13.29 4.168 5.74 0 10.36-1.422 13.9-4.258 3.52-2.832 5.29-6.512 5.29-11.031h-10.77c0 2.066-.76 3.789-2.3 5.164-1.54 1.371-3.58 2.058-6.12 2.058-2.36 0-4.28-.547-5.78-1.64-1.49-1.094-2.23-2.555-2.23-4.383 0-1.656.69-2.942 2.08-3.859 1.38-.915 4.19-1.836 8.41-2.766 4.23-.934 7.54-2.043 9.95-3.332 2.42-1.281 4.2-2.82 5.37-4.621 1.17-1.809 1.74-3.989 1.74-6.559 0-4.308-1.78-7.808-5.36-10.48-3.57-2.68-8.25-4.008-14.04-4.008-3.93 0-7.43.707-10.5 2.117-3.07 1.422-5.47 3.371-7.19 5.852-1.7 2.48-2.56 5.16-2.56 8.031h10.45c.15-2.551 1.12-4.512 2.89-5.883 1.77-1.367 4.12-2.059 7.05-2.059 2.83 0 4.99.54 6.46 1.622 1.48 1.078 2.22 2.488 2.22 4.23m53.21 10.367c0-4.82.99-8.609 2.95-11.359 1.96-2.77 4.69-4.149 8.17-4.149 4.35 0 7.56 1.86 9.66 5.59v21.082c-2.04 3.641-5.22 5.457-9.57 5.457-3.54 0-6.3-1.406-8.26-4.211-1.96-2.808-2.95-6.937-2.95-12.41zm-10.72.93c0 7.449 1.75 13.391 5.25 17.84 3.5 4.441 8.15 6.668 13.94 6.668 5.46 0 9.76-1.91 12.89-5.719l.49 4.832h9.7v-46.488c0-6.282-1.96-11.25-5.87-14.883-3.91-3.641-9.19-5.449-15.84-5.449-3.52 0-6.95.73-10.31 2.191-3.35 1.461-5.9 3.379-7.63 5.738l5.09 6.473c3.3-3.934 7.39-5.902 12.23-5.902 3.57 0 6.4.968 8.47 2.91 2.06 1.93 3.09 4.781 3.09 8.531v3.231c-3.09-3.461-7.23-5.18-12.4-5.18-5.62 0-10.21 2.226-13.76 6.687-3.56 4.461-5.34 10.629-5.34 18.52m76.5 43.738h12.28l-12.28-13.429-8.64.023zm-2.44-27.871c-2.95 0-5.33-1.035-7.15-3.101-1.81-2.071-2.98-4.954-3.48-8.645h20.51v.801c-.23 3.601-1.19 6.328-2.88 8.176-1.68 1.843-4.01 2.769-7 2.769zm1.29-41.074c-6.83 0-12.35 2.148-16.59 6.449-4.24 4.289-6.36 10.02-6.36 17.16v1.34c0 4.777.92 9.055 2.76 12.824 1.85 3.762 4.45 6.7 7.79 8.793 3.33 2.098 7.05 3.149 11.16 3.149 6.52 0 11.57-2.086 15.13-6.25 3.56-4.164 5.34-10.059 5.34-17.676v-4.34h-31.33c.33-3.961 1.65-7.09 3.97-9.402 2.32-2.297 5.24-3.457 8.75-3.457 4.94 0 8.95 2 12.06 5.988l5.8-5.539c-1.93-2.871-4.49-5.09-7.69-6.672-3.2-1.578-6.81-2.367-10.79-2.367m37.25 24.367c0-4.937 1.01-8.801 3.05-11.59 2.04-2.789 4.88-4.187 8.51-4.187s6.46 1.418 8.48 4.258c2.03 2.832 3.04 6.98 3.04 12.449 0 4.84-1.04 8.687-3.12 11.523-2.08 2.836-4.92 4.254-8.49 4.254-3.51 0-6.31-1.398-8.37-4.191-2.07-2.789-3.1-6.965-3.1-12.516zm-10.78.93c0 4.703.94 8.929 2.8 12.695 1.86 3.77 4.48 6.66 7.84 8.688 3.37 2.019 7.25 3.035 11.61 3.035 6.48 0 11.72-2.086 15.75-6.25 4.04-4.164 6.21-9.688 6.55-16.578l.03-2.52c0-4.73-.9-8.949-2.72-12.68-1.82-3.718-4.41-6.597-7.8-8.629-3.38-2.039-7.29-3.058-11.72-3.058-6.76 0-12.18 2.25-16.24 6.75-4.06 4.508-6.1 10.519-6.1 18.019v.528m63.43-1.02c0-4.82.99-8.609 2.95-11.359 1.96-2.77 4.69-4.149 8.18-4.149 4.34 0 7.55 1.86 9.65 5.59v21.082c-2.04 3.641-5.22 5.457-9.57 5.457-3.54 0-6.3-1.406-8.26-4.211-1.96-2.808-2.95-6.937-2.95-12.41zm-10.72.93c0 7.449 1.75 13.391 5.25 17.84 3.5 4.441 8.15 6.668 13.94 6.668 5.46 0 9.76-1.91 12.89-5.719l.49 4.832h9.71v-46.488c0-6.282-1.97-11.25-5.87-14.883-3.92-3.641-9.2-5.449-15.85-5.449-3.52 0-6.95.73-10.31 2.191-3.35 1.461-5.89 3.379-7.63 5.738l5.09 6.473c3.31-3.934 7.39-5.902 12.23-5.902 3.58 0 6.4.968 8.47 2.91 2.06 1.93 3.09 4.781 3.09 8.531v3.231c-3.09-3.461-7.23-5.18-12.4-5.18-5.61 0-10.2 2.226-13.76 6.687-3.56 4.461-5.34 10.629-5.34 18.52m79.34 13.781c-1.42.238-2.89.356-4.39.356-4.93 0-8.25-1.891-9.97-5.672v-32.793h-10.76v47.949h10.27l.28-5.363c2.59 4.164 6.2 6.25 10.81 6.25 1.53 0 2.8-.211 3.8-.625l-.04-10.102m23.2-30.351c2.13 0 4.13.519 6 1.55 1.88 1.032 3.29 2.422 4.23 4.172v9.028h-5.8c-3.99 0-6.99-.688-8.99-2.079-2.01-1.39-3.02-3.351-3.02-5.89 0-2.07.68-3.719 2.06-4.942 1.38-1.226 3.21-1.839 5.52-1.839zm11.82-7.758c-.46.918-.87 2.41-1.24 4.48-3.42-3.582-7.61-5.359-12.57-5.359-4.82 0-8.75 1.367-11.79 4.117-3.05 2.75-4.57 6.141-4.57 10.191 0 5.11 1.9 9.032 5.69 11.758 3.8 2.742 9.23 4.114 16.29 4.114h6.6v3.14c0 2.481-.69 4.465-2.08 5.957-1.38 1.492-3.5 2.239-6.33 2.239-2.46 0-4.47-.614-6.03-1.84-1.57-1.227-2.35-2.782-2.35-4.672h-10.77c0 2.625.87 5.086 2.61 7.379 1.75 2.285 4.12 4.082 7.12 5.379 3 1.3 6.34 1.953 10.03 1.953 5.62 0 10.09-1.41 13.43-4.235 3.34-2.82 5.06-6.785 5.14-11.898v-21.625c0-4.309.61-7.75 1.82-10.32v-.758h-11m52.62 24.418c0 4.781-.95 8.582-2.86 11.39-1.9 2.805-4.63 4.211-8.17 4.211-4.41 0-7.56-1.816-9.49-5.457v-21.261c1.96-3.731 5.15-5.59 9.57-5.59 3.43 0 6.12 1.386 8.05 4.148 1.94 2.762 2.9 6.949 2.9 12.559zm10.72-.93c0-7.418-1.67-13.328-5.04-17.75-3.37-4.41-7.89-6.617-13.57-6.617-5.25 0-9.46 1.719-12.63 5.18v-22.731h-10.76v66.379h9.92l.44-4.875c3.17 3.84 7.47 5.762 12.9 5.762 5.85 0 10.43-2.18 13.76-6.539 3.32-4.356 4.98-10.403 4.98-18.149v-.66m20.64 19.231c3.52 4.078 7.96 6.117 13.33 6.117 10.22 0 15.41-5.836 15.56-17.504v-31.332h-10.78v30.929c0 3.313-.71 5.653-2.14 7.028-1.43 1.371-3.54 2.062-6.31 2.062-4.32 0-7.54-1.925-9.66-5.761v-34.258h-10.77v68.066h10.77V259.02m60.5-2.524c-2.95 0-5.33-1.035-7.15-3.101-1.82-2.071-2.98-4.954-3.49-8.645h20.52v.801c-.23 3.601-1.19 6.328-2.88 8.176-1.68 1.843-4.01 2.769-7 2.769zm1.29-41.074c-6.83 0-12.36 2.148-16.6 6.449-4.23 4.289-6.35 10.02-6.35 17.16v1.34c0 4.777.92 9.055 2.76 12.824 1.85 3.762 4.44 6.7 7.78 8.793 3.33 2.098 7.06 3.149 11.17 3.149 6.52 0 11.57-2.086 15.12-6.25 3.57-4.164 5.35-10.059 5.35-17.676v-4.34h-31.33c.33-3.961 1.65-7.09 3.96-9.402 2.33-2.297 5.25-3.457 8.76-3.457 4.93 0 8.95 2 12.05 5.988l5.8-5.539c-1.92-2.871-4.48-5.09-7.68-6.672-3.21-1.578-6.81-2.367-10.79-2.367m55.36 13.91c0 1.918-.79 3.387-2.38 4.387-1.58 1-4.19 1.89-7.86 2.66-3.66.762-6.72 1.742-9.18 2.922-5.37 2.597-8.05 6.371-8.05 11.301 0 4.136 1.74 7.593 5.22 10.367 3.49 2.777 7.92 4.168 13.29 4.168 5.74 0 10.36-1.422 13.9-4.258 3.52-2.832 5.29-6.512 5.29-11.031H2594c0 2.066-.76 3.789-2.3 5.164-1.54 1.371-3.58 2.058-6.12 2.058-2.36 0-4.28-.547-5.78-1.64-1.49-1.094-2.23-2.555-2.23-4.383 0-1.656.69-2.942 2.08-3.859 1.38-.915 4.19-1.836 8.41-2.766 4.23-.934 7.54-2.043 9.95-3.332 2.42-1.281 4.2-2.82 5.37-4.621 1.17-1.809 1.74-3.989 1.74-6.559 0-4.308-1.78-7.808-5.36-10.48-3.57-2.68-8.25-4.008-14.04-4.008-3.93 0-7.43.707-10.5 2.117-3.07 1.422-5.47 3.371-7.19 5.852-1.7 2.48-2.56 5.16-2.56 8.031h10.45c.15-2.551 1.12-4.512 2.89-5.883 1.77-1.367 4.12-2.059 7.05-2.059 2.83 0 4.99.54 6.46 1.622 1.48 1.078 2.22 2.488 2.22 4.23" style="fill:#2b398c;fill-opacity:1;fill-rule:nonzero;stroke:none" transform="matrix(.13333 0 0 -.13333 0 166.16)"/><path d="m440.129 892.383 55.301-10.922 108.058-11.555 160.914 54.219 164.95 37.668v6.148l-166.571-38.05-159.961-53.879-106.496 11.375-55.996 11.074-190.281-25.055v-6.051l190.082 25.028" style="fill:#f9b273;fill-opacity:1;fill-rule:nonzero;stroke:none" transform="matrix(.13333 0 0 -.13333 0 166.16)"/><path d="m265.406 860.715 197.047-6.164 52.676-3.965 101.719-.453 91.367 31.93 62.23 13.839 158.907 22.215v6.055l-159.973-22.371-62.809-13.973-90.73-31.687-100.477.433-52.593 3.965-197.657 6.188-.476.019-14.59-4.312v-6.246l15.359 4.527" style="fill:#f19f5a;fill-opacity:1;fill-rule:nonzero;stroke:none" transform="matrix(.13333 0 0 -.13333 0 166.16)"/><path d="m267.02 852.219 217.625-35.524.328-.054 49.894 3.105 94.992 10.582 86.993 31.488 59.605 5.879 152.895 6.586v6.004l-153.317-6.609-60.144-5.926-87.047-31.496-94.496-10.531-49.075-3.051-219.027 35.75-16.199-7.067v-6.515l16.973 7.379" style="fill:#e89043;fill-opacity:1;fill-rule:nonzero;stroke:none" transform="matrix(.13333 0 0 -.13333 0 166.16)"/><path d="m268.645 835.801 238.14-64.813.703-.191 47.153 10.266 89.132 21.722 81.528 30.836 57.133-1.992 146.918-9.227v5.989l-146.625 9.226-58.422 2.047-82.301-31.156-88.711-21.598-45.641-9.941-239.804 65.261-17.801-9.968v-6.821l18.598 10.36" style="fill:#e1812d;fill-opacity:1;fill-rule:nonzero;stroke:none" transform="matrix(.13333 0 0 -.13333 0 166.16)"/><path d="m270.262 807.598 259.804-94.469 203.664 80.516 195.622-35.149v6.094l-195.399 35.113-.844.149-203.136-80.309-260.524 94.734-19.402-12.992v-7.222l20.215 13.535" style="fill:#dc741a;fill-opacity:1;fill-rule:nonzero;stroke:none" transform="matrix(.13333 0 0 -.13333 0 166.16)"/><path d="M298.633 730.48c78.844-22.777 117.476-33.089 127.418-30.894l60.222-12.074 187.524 76.34 22.105 6.812 233.45-24.504v6.637l-234.106 24.57-23.668-7.304-185.949-75.692-59.09 11.844-1.055.312-1.062-.601c-7.895-2.613-80.563 18.355-123.957 30.894-26.113 7.543-42.875 12.344-50.418 13.985v-6.739c8.648-2.05 28.156-7.687 48.586-13.586" style="fill:#ab5842;fill-opacity:1;fill-rule:nonzero;stroke:none" transform="matrix(.13333 0 0 -.13333 0 166.16)"/><path d="M263.973 667.531c58.843-11.312 108.902-20.058 124.66-12.601l53.965-.082 192.367 80.437 23.113 5.285 271.274-9.562v7.203l-271.489 9.574-.472.016-24.328-5.567-191.911-80.183-54.332.082-.828-.465c-13.551-7.652-80.594 5.23-120.66 12.937a4346.533 4346.533 0 0 1-15.285 2.915v-7.329c4.394-.828 9.066-1.726 13.926-2.66" style="fill:#7c415d;fill-opacity:1;fill-rule:nonzero;stroke:none" transform="matrix(.13333 0 0 -.13333 0 166.16)"/><path d="m351.078 605.152 47.656 11.75 197.258 84.493 24.016 3.796 309.344 9.247v7.8l-310.067-9.293-24.984-3.922-197.742-84.625-47.856-11.796-.98-.391c-19.567-11.043-61.239-10.953-97.676-8.875v-7.813c37.094-2.074 79.723-2.043 101.031 9.629" style="fill:#543b7c;fill-opacity:1;fill-rule:nonzero;stroke:none" transform="matrix(.13333 0 0 -.13333 0 166.16)"/><path d="m313.57 549.426 41.844 23.644 201.594 88.414 372.344 33.856v8.433L554.887 669.73l-203.223-89.156-42.219-23.836c-18.769-10.593-59.398-23.55-59.398-23.55v-8.672c22.055 5.32 43.476 13.589 63.523 24.91m55.024-45.293 1.527.777c27.152 13.934 35.121 17.188 37.395 17.942l.222-.02 199.52 49.391c7.019.23 37.035 1.871 164.113 9.011 59.692 3.356 125.176 7.036 157.981 8.789v16.821c-22.383-1.172-67.344-3.688-158.922-8.832-77.496-4.36-157.59-8.86-164.047-9.032l-1.008.086-199.352-49.351c-3.347-.305-10.832-3.059-43.574-19.856l-1.453-.746c-27.293-13.832-69.918-27.422-110.949-33.074v-16.934s88.887 19.993 118.547 35.028m-42.914-80.192c40.726 11.028 80.937 26.231 98.101 34.926 8.582 4.356 30.371 13.524 36.059 14.203l.348-.027 196.148 9.844c6.906-.168 39.262.125 131.492 1.058 50.176.512 108.985 1.125 141.524 1.305v25.184c-22.653-.125-64.27-.508-141.782-1.289-61.879-.625-125.84-1.274-130.351-1.094l-.844.07-196.219-9.848c-13.898-.07-47.429-16.757-47.769-16.929-33.953-17.211-162.34-45.672-162.34-45.672v-25.07s44.359 4.867 75.633 13.339m61.664-68.976c40.832 14.871 82.187 31.969 91.621 36.754 9.633 4.886 26.769 9.988 32.941 9.691l191.801-29.492 1.137-.137c3.582-.301 30.453-1.75 77.636-4.289 46.899-2.523 110.758-5.957 146.872-8.09v33.653c-24.868 1.468-68.325 3.863-145.067 7.992-36.305 1.949-70.672 3.797-76.101 4.18l-191.887 29.507-1.145.133c-16.265 1.36-42.105-8.476-51.386-13.183-20.828-10.559-187.504-72.629-213.719-68.496V319s74.512 13.094 137.297 35.965" style="fill:#2b398c;fill-opacity:1;fill-rule:nonzero;stroke:none" transform="matrix(.13333 0 0 -.13333 0 166.16)"/><path d="m365.605 242.172 167.696 75.808c9.211 4.161 19.336 6.118 29.406 5.665l189.102-68.969 2.789-.235c8.054-.683 174.754-25.73 174.754-25.73v42.465s-148.309 22.297-168.114 24.765l-189.601 69.153-2.789.238a106.9 106.9 0 0 1-52.844-9.078l-167.695-75.809c-31.012-14.019-98.262-24.504-98.262-24.504v-42.109s79.121 11.867 115.558 28.34" style="fill:#2b398c;fill-opacity:1;fill-rule:nonzero;stroke:none" transform="matrix(.13333 0 0 -.13333 0 166.16)"/></svg>