<svg xmlns="http://www.w3.org/2000/svg" xml:space="preserve" width="600" height="660"><path d="M504.795 66.513h5.446V94.37h-5.446V66.513zm58.343 27.857V77.68L547.26 95.3h-.832V66.512h5.058v16.462l15.843-17.39h.87v28.785h-5.06zm-28.219-19.806-.29.011V71.68c-1.814-.688-3.202-.962-4.876-.962-5.955 0-9.802 3.985-9.802 10.151 0 5.852 3.623 9.491 9.453 9.491 3.297 0 6.017-1.22 8.084-3.625l.45-.522.4 6.345-.123.091c-.877.64-1.29.843-2.338 1.31-2.185.953-4.04 1.341-6.396 1.341-4.236 0-8.061-1.472-10.77-4.146-2.712-2.675-4.204-6.452-4.204-10.634 0-8.656 6.166-14.936 14.665-14.936 2.129 0 4.535.371 6.597 1.02 1.442.44 2.25.771 4.11 1.684l.157.075v7.047l-.374-.135c-1.483-.525-3.077-.764-4.743-.71" style="fill:#676c70;fill-opacity:1;fill-rule:nonzero;stroke:none" transform="matrix(9.45656 0 0 -9.46923 -4773.204 902.411)"/><path d="M533.85 83.507c-.011.005-.026.007-.037.012-3.47.9-6.995.39-9.6-1.332 1.444-2.757 4.269-4.902 7.729-5.8l.028-.008c3.47-.899 6.99-.389 9.595 1.33-1.438 2.756-4.257 4.902-7.714 5.798" style="fill:#80cc28;fill-opacity:1;fill-rule:nonzero;stroke:none" transform="matrix(9.45656 0 0 -9.46923 -4773.204 902.411)"/><path d="M510.313 55.077a.528.528 0 0 0-.153-.389.598.598 0 0 0-.452-.175c-.177 0-.313.045-.41.133-.042.04-.116.15-.224.336l-1.726 2.92v-3.33h-.708v3.545c0 .403.202.605.604.605.184 0 .323-.043.418-.129.052-.047.128-.158.231-.335l1.71-2.916v3.343h.71v-3.608zm4.327 3.041h-1.9c-.312 0-.506-.064-.582-.191-.045-.077-.068-.253-.068-.526a.38.38 0 0 1 .176-.335c.097-.064.254-.096.473-.096h.786c.336 0 .604-.074.805-.223a.739.739 0 0 0 .302-.63v-.654c0-.284-.103-.503-.309-.655-.206-.152-.489-.227-.846-.227h-2.12v.604h1.9c.316 0 .512.069.59.207.034.072.051.259.051.56 0 .28-.206.422-.618.422h-.787c-.326 0-.593.069-.802.207a.711.711 0 0 0-.343.622v.645a.8.8 0 0 0 .373.692c.174.12.426.183.757.183h2.162v-.605zm4.13.012h-1.266v-3.55h-.742v3.55h-1.26v.605h3.269v-.605zm1.534-3.55h-.742v4.154h.742V54.58zm4.059 3.55h-1.267v-3.55h-.742v3.55h-1.26v.605h3.27v-.605zm4.456-2.505c0-.189-.018-.332-.053-.432a.83.83 0 0 0-.272-.368 1.011 1.011 0 0 0-.425-.216 2.973 2.973 0 0 0-.504-.029h-1.159c-.224 0-.389.012-.495.037a.965.965 0 0 0-.429.207.92.92 0 0 0-.284.37 1.509 1.509 0 0 0-.044.43v3.098h.741v-2.987c0-.215.051-.36.153-.436.102-.077.288-.114.556-.114h.764c.263 0 .447.036.552.11.105.072.157.214.157.424v3.003h.742v-3.098zm4.063 2.505h-1.267v-3.55h-.743v3.55h-1.26v.605h3.27v-.605zm6.294-3.053a.528.528 0 0 0-.153-.389.6.6 0 0 0-.451-.175c-.176 0-.313.045-.41.133-.042.04-.117.15-.224.336l-1.726 2.92v-3.33h-.708v3.545c0 .403.202.605.604.605.185 0 .323-.043.418-.129.052-.047.129-.158.23-.335l1.71-2.916v3.343h.71v-3.608zm3.75 1.086-.809 1.843-.734-1.843h1.543zm1.472-1.582h-.794l-.444 1.015h-2.01l-.445-1.015h-.794l1.654 3.764c.112.249.31.373.59.373.28 0 .477-.124.588-.373l1.655-3.764zm3.262 3.549h-1.266v-3.55h-.742v3.55h-1.26v.605h3.269v-.605zm1.533-3.55h-.742v4.154h.742V54.58zm3.989 1.09v1.93c0 .193-.05.327-.153.403-.1.077-.27.115-.503.115h-.779c-.239 0-.409-.039-.51-.115-.102-.075-.154-.21-.154-.403v-1.914c0-.17.057-.302.168-.392.092-.073.257-.108.496-.108h.78c.227 0 .394.035.498.108.105.07.157.197.157.376m.73-.15c0-.626-.406-.94-1.219-.94h-1.12c-.394 0-.687.07-.88.208-.235.166-.35.407-.35.725v2.26c0 .316.117.56.356.734.19.144.48.216.873.216h1.13c.806 0 1.21-.317 1.21-.95v-2.252zm4.832-.443a.527.527 0 0 0-.152-.389.598.598 0 0 0-.451-.175c-.177 0-.313.045-.41.133-.043.04-.117.15-.224.336l-1.726 2.92v-3.33h-.707v3.545c0 .403.2.605.603.605.184 0 .323-.043.417-.129.052-.047.129-.158.232-.335l1.71-2.916v3.343h.708v-3.608zm3.75 1.086-.808 1.843-.735-1.843h1.543zm1.473-1.582h-.794l-.444 1.015h-2.013l-.443-1.015h-.794l1.655 3.764c.112.249.307.373.59.373.28 0 .476-.124.588-.373l1.655-3.764zm4.045-.001h-1.973c-.432 0-.763.075-.995.222-.23.147-.346.404-.346.772v3.153h.741V55.72c0-.212.061-.361.183-.443.092-.064.29-.096.59-.096h1.8v-.6zm-60.305-8.513v1.905c0 .332-.204.498-.611.498h-1.604v-2.949h1.604c.407 0 .61.182.61.546m.731-.199c0-.29-.096-.52-.286-.69-.19-.173-.46-.258-.815-.258h-2.586v4.146h2.572c.743 0 1.115-.309 1.115-.927v-2.27zm4.352.821h-2.42v-.7c0-.31.217-.464.649-.464h1.916v-.605h-2.117c-.365 0-.65.07-.853.21a.768.768 0 0 0-.336.669v2.332c0 .286.099.512.298.676.198.165.473.247.824.247h2.184v-.605h-1.923c-.428 0-.641-.152-.641-.456v-.708h2.419v-.596zm7.446-1.769h-1.971c-.433 0-.765.074-.996.221-.232.148-.347.405-.347.773v3.152h.742V46.06c0-.213.061-.36.183-.443.091-.064.288-.096.589-.096h1.8v-.6zm.673 4.307a.65.65 0 0 0-.045-.244l-.325-.762h-.394l.268.65c-.14.16-.21.29-.21.385 0 .12.036.22.106.3a.32.32 0 0 0 .256.123.294.294 0 0 0 .245-.133.516.516 0 0 0 .099-.319m2.118-4.307h-.742v4.154h.742V44.92zm4.858.497a.528.528 0 0 0-.153-.389.598.598 0 0 0-.45-.175c-.177 0-.314.045-.41.133-.043.04-.117.15-.225.336l-1.725 2.92v-3.33h-.709v3.545c0 .403.202.605.604.605.185 0 .324-.043.418-.129.053-.047.13-.158.231-.335l1.711-2.916v3.342h.708v-3.607zm4.506 1.268h-2.573V44.92h-.742v3.292c0 .268.114.485.343.65.184.128.456.19.816.19h2.155v-.604h-1.953c-.413 0-.619-.142-.619-.426v-.742h2.572v-.596zm4.142-.675v1.93c0 .193-.051.327-.153.403-.102.076-.27.114-.503.114h-.78c-.238 0-.408-.038-.51-.114-.102-.076-.153-.21-.153-.404v-1.913c0-.17.056-.303.168-.393.092-.073.257-.108.495-.108h.78c.228 0 .395.035.499.108.105.071.157.197.157.376m.73-.149c0-.626-.406-.94-1.218-.94h-1.123c-.393 0-.685.07-.88.207-.233.166-.35.407-.35.725v2.262c0 .314.12.558.358.732.19.144.479.216.872.216h1.13c.807 0 1.21-.317 1.21-.948V45.86zm4.832-.94h-.924l-1.816 1.591c-.062.052-.093.14-.093.26 0 .232.153.348.46.348l1.083.008c.361 0 .541.14.541.415v.476c0 .29-.204.435-.61.435H539.2V44.92h-.74v4.138h2.49c.756 0 1.135-.294 1.135-.882v-.717a.757.757 0 0 0-.294-.62c-.196-.158-.455-.237-.775-.237h-.854l1.931-1.682zm6.182-.02h-.71v3.26l-1.306-2.904c-.127-.284-.305-.427-.533-.427a.463.463 0 0 0-.335.125 1.068 1.068 0 0 0-.17.277l-1.337 2.929V44.9h-.708v3.607c0 .158.056.289.168.39.112.105.267.157.466.157.3 0 .507-.13.619-.385l1.29-2.936 1.312 2.94c.116.26.32.39.61.39.204 0 .36-.053.47-.16a.543.543 0 0 0 .164-.408V44.9zm3.789 1.603-.81 1.842-.733-1.842h1.543zm1.472-1.583h-.794l-.443 1.015h-2.013l-.443-1.015h-.795l1.656 3.766c.11.248.307.372.589.372.28 0 .477-.124.589-.372l1.654-3.766zm3.3 3.55h-1.267v-3.55h-.742v3.55h-1.26v.604h3.27v-.604zm1.571-3.55h-.742v4.154h.742V44.92zm4.027 1.09v1.93c0 .193-.05.327-.153.403-.1.076-.269.114-.503.114H561c-.239 0-.409-.038-.51-.114-.102-.076-.154-.21-.154-.404v-1.913c0-.17.057-.303.17-.393.09-.073.255-.108.494-.108h.78c.228 0 .394.035.5.108.103.071.155.197.155.376m.731-.149c0-.626-.407-.94-1.22-.94h-1.12c-.394 0-.687.07-.88.207-.235.166-.35.407-.35.725v2.262c0 .314.118.558.357.732.188.144.48.216.872.216h1.13c.807 0 1.211-.317 1.211-.948V45.86zm4.87-.443a.528.528 0 0 0-.153-.389.598.598 0 0 0-.451-.175c-.177 0-.313.045-.41.133a1.87 1.87 0 0 0-.223.336l-1.726 2.92v-3.33h-.708v3.545c0 .403.2.605.603.605.184 0 .323-.043.418-.129.05-.047.129-.158.23-.335l1.71-2.916v3.342h.71v-3.607zm-59.651-9.155c0-.32-.095-.56-.284-.725-.204-.184-.478-.277-.823-.277h-1.29c-.402 0-.708.08-.917.236a.745.745 0 0 0-.283.381 1.825 1.825 0 0 0-.037.447v2.1c0 .194.019.341.059.443.058.13.164.244.32.344.199.127.485.19.858.19h2.128v-.596h-1.975c-.234 0-.397-.03-.489-.095-.106-.07-.16-.199-.16-.38v-1.982c0-.184.058-.317.176-.397.091-.06.244-.09.458-.09h.962c.375 0 .562.155.562.463v1.226h.735v-1.288zm4.593 4.225-.566-.741h-.552l.499.74h.619zm.838-5.226H511.7c-.366 0-.651.07-.854.214-.224.156-.335.379-.335.672v2.34c0 .289.099.516.298.679.198.162.473.244.823.244h2.184v-.6h-1.923c-.427 0-.641-.158-.641-.473v-.704h2.564v-.596h-2.564v-.7c0-.312.217-.468.648-.468h1.916v-.608zm4.899 1.088v1.93c0 .194-.05.329-.153.405-.102.075-.269.114-.503.114h-.779c-.239 0-.409-.04-.51-.114-.102-.076-.154-.211-.154-.404v-1.914a.48.48 0 0 1 .168-.393c.092-.072.257-.108.496-.108h.78c.228 0 .394.036.5.108.103.07.155.197.155.376m.731-.148c0-.627-.407-.94-1.22-.94h-1.12c-.394 0-.687.069-.88.206-.235.167-.35.408-.35.726v2.26c0 .315.118.56.357.734.188.143.48.215.872.215h1.13c.807 0 1.211-.316 1.211-.948V36.2zm5.764.061c0-.32-.096-.56-.284-.725-.204-.184-.479-.277-.824-.277h-1.29c-.402 0-.708.08-.917.236a.751.751 0 0 0-.283.381 1.825 1.825 0 0 0-.037.447v2.1c0 .194.02.341.06.443a.8.8 0 0 0 .32.344c.198.127.484.19.857.19h2.128v-.596h-1.975c-.234 0-.396-.03-.489-.095-.106-.07-.16-.199-.16-.38v-1.982c0-.184.06-.317.176-.397.091-.06.244-.09.458-.09h.962c.375 0 .563.155.563.463v1.226h.734v-1.288zm5.759-1.002h-.924l-1.815 1.592c-.063.05-.094.138-.094.26 0 .23.153.347.459.347l1.085.008c.36 0 .54.139.54.415v.476c0 .29-.203.435-.611.435h-1.532V35.26h-.742v4.137h2.49c.758 0 1.137-.294 1.137-.882V37.8a.753.753 0 0 0-.295-.621c-.196-.158-.454-.236-.775-.236h-.854l1.931-1.682zm4.613 1.583-.81 1.843-.734-1.843h1.544zm1.472-1.582h-.794l-.444 1.014h-2.012l-.444-1.014h-.794l1.655 3.765c.112.248.308.372.589.372.28 0 .477-.124.589-.372l1.655-3.765zm4.615 2.641v.493c0 .279-.197.419-.592.419h-1.581v-1.379h1.562c.408 0 .61.155.61.467m.743-.194c0-.277-.098-.494-.294-.653-.196-.158-.465-.237-.805-.237h-1.816V35.26h-.742v4.154h2.52c.326 0 .59-.067.794-.203a.721.721 0 0 0 .335-.613c.006-.278.008-.575.008-.89m5.797-2.448h-.738v1.769h-2.229V35.26h-.742v4.142h.742v-1.778h2.23v1.777h.737v-4.14zm2.863 0h-.742v4.154h.742V35.26zm4.989 1.048v1.997c0 .19-.054.319-.161.389-.106.068-.28.103-.517.103h-.78c-.233 0-.403-.035-.51-.103-.107-.07-.16-.2-.16-.39v-1.972c0-.19.056-.318.167-.384.097-.066.265-.1.503-.1h.78c.233 0 .405.032.514.096.109.064.164.184.164.364m.74-.137c0-.488-.25-.785-.755-.89l.734-.633h-1.01l-.723.604h-.626c-.388 0-.68.06-.872.178-.24.166-.358.413-.358.74v2.296c0 .342.119.593.358.75.199.127.489.19.872.19h1.152c.383 0 .672-.063.869-.19.24-.157.36-.408.36-.75V36.17zm5.799.133c0-.188-.017-.332-.053-.43a.84.84 0 0 0-.272-.37 1 1 0 0 0-.424-.214 2.981 2.981 0 0 0-.504-.03h-1.16a2.38 2.38 0 0 0-.495.037.966.966 0 0 0-.428.207.898.898 0 0 0-.284.37 1.47 1.47 0 0 0-.044.43V39.4h.74v-2.986c0-.215.052-.36.154-.437.103-.076.287-.114.556-.114h.764c.263 0 .447.038.552.11.104.074.156.216.156.425V39.4h.742v-3.098zm5.282.725h-2.419v-.701c0-.308.216-.463.65-.463h1.915v-.604h-2.118c-.365 0-.65.07-.853.21a.77.77 0 0 0-.336.668v2.33c0 .288.1.514.298.679.2.164.474.246.824.246h2.185v-.605h-1.924c-.427 0-.64-.152-.64-.455v-.71h2.418v-.595zm-59.97-9.661h-2.42v-.7c0-.309.217-.463.65-.463h1.915V25.6h-2.116c-.366 0-.65.07-.854.211a.766.766 0 0 0-.336.667v2.332c0 .287.1.513.298.677.2.164.474.246.824.246h2.184v-.605h-1.923c-.427 0-.642-.152-.642-.455v-.709h2.42v-.596zm5.319 1.782h-1.266V25.6h-.742v3.55h-1.26v.604h3.269v-.605zm8.593-1.786h-2.572V25.6h-.742v3.293c0 .268.114.484.344.65.183.127.455.19.815.19h2.155v-.605h-1.953c-.412 0-.619-.142-.619-.426v-.742h2.572v-.596zm5.052-.674v1.93c0 .192-.051.327-.153.403-.102.076-.27.114-.503.114h-.78c-.239 0-.409-.038-.51-.114-.102-.076-.153-.21-.153-.404v-1.914c0-.17.056-.302.168-.393.092-.072.257-.107.496-.107h.778c.23 0 .395.035.5.107.104.072.156.197.156.377m.731-.148c0-.628-.406-.94-1.219-.94h-1.123c-.392 0-.685.068-.879.206-.233.165-.35.407-.35.725v2.261c0 .314.12.56.358.733.19.144.48.215.871.215h1.13c.808 0 1.212-.316 1.212-.948v-2.252zm5.741-.941h-.924l-1.815 1.591c-.063.051-.094.14-.094.26 0 .232.153.348.458.348l1.086.008c.359 0 .54.138.54.414v.477c0 .29-.204.434-.612.434h-1.531V25.6h-.742v4.137h2.49c.758 0 1.137-.294 1.137-.882v-.716a.756.756 0 0 0-.295-.62c-.196-.159-.455-.237-.775-.237h-.854l1.93-1.682zm5.152 1.768h-2.42v-.7c0-.309.218-.463.649-.463h1.916V25.6h-2.117c-.365 0-.65.07-.853.211a.766.766 0 0 0-.336.667v2.332c0 .287.1.513.298.677.199.164.473.246.824.246h2.184v-.605h-1.923c-.427 0-.641-.152-.641-.455v-.709h2.419v-.596zm5.584 1.769h-1.9c-.312 0-.506-.064-.583-.19-.045-.077-.068-.253-.068-.527 0-.143.06-.254.176-.335.097-.063.254-.095.474-.095h.786c.336 0 .604-.075.805-.224a.738.738 0 0 0 .302-.63v-.654c0-.284-.103-.502-.309-.654-.207-.151-.489-.228-.847-.228h-2.12v.605h1.9c.316 0 .512.069.59.207.034.07.052.258.052.559 0 .282-.207.423-.619.423h-.786c-.326 0-.594.069-.802.207a.708.708 0 0 0-.343.62v.647c0 .29.124.52.373.69.174.123.426.184.757.184h2.162v-.605zm5.077.013h-1.267V25.6h-.742v3.55h-1.26v.604h3.269v-.605zm2.479-3.55h-.741v4.154h.741V25.6zm4.562 4.473h-.551l-.566.741h.619l.499-.74zm.84-4.473h-2.118c-.364 0-.65.072-.853.215a.756.756 0 0 0-.336.662v2.345c0 .284.1.51.299.675.199.166.473.248.823.248h2.185v-.613h-1.923c-.428 0-.642-.154-.642-.463v-.7h2.565v-.6h-2.565v-.7c0-.313.217-.469.649-.469h1.916v-.6zm5.67 0h-.925l-1.815 1.591c-.062.051-.093.14-.093.26 0 .232.152.348.458.348l1.086.008c.359 0 .54.138.54.414v.477c0 .29-.204.434-.612.434h-1.531V25.6h-.742v4.137h2.49c.757 0 1.137-.294 1.137-.882v-.716a.754.754 0 0 0-.296-.62c-.196-.159-.454-.237-.775-.237h-.853l1.93-1.682zm5.15 1.768h-2.418v-.7c0-.309.217-.463.649-.463h1.916V25.6h-2.118c-.365 0-.65.07-.853.211a.765.765 0 0 0-.335.667v2.332c0 .287.099.513.297.677.199.164.474.246.825.246h2.184v-.605h-1.924c-.427 0-.641-.152-.641-.455v-.709h2.419v-.596zM505.493 54.58h-.742v4.154h.742V54.58z" style="fill:#676c70;fill-opacity:1;fill-rule:nonzero;stroke:none" transform="matrix(9.45656 0 0 -9.46923 -4773.204 902.411)"/></svg>