<svg xmlns="http://www.w3.org/2000/svg" xml:space="preserve" id="Calque_1" width="500" height="103.222" x="0" y="0" version="1.1"><style id="style833" type="text/css">.st0{fill:#fff}</style><g id="g1014" style="fill:#2d2d80;fill-opacity:1" transform="scale(1.02606)"><path id="path835" d="M68.3 83.4c-5.4-3.7-11.8-5.7-18.3-5.7-8.7 0-16.9 3.2-22.9 9.1-3.2 3.2-5.7 6.9-7.3 11.2l-.7 1.7h14.1l.4-.6c.7-1.1 1.6-2.2 2.6-3.1 3.6-3.5 8.5-5.5 13.9-5.5 6.5 0 12.5 3.2 16.2 8.6l.4.5h14.2L80 98c-2.4-5.9-6.5-10.9-11.7-14.6" class="st0" style="opacity:1;fill:#2d2d80;fill-opacity:1;stop-opacity:1"/><path id="path837" d="M12.9 27.2C9.7 24 6 21.5 1.7 19.9L0 19.2v14.1l.6.4c1.1.7 2.2 1.6 3.1 2.6 3.5 3.6 5.5 8.5 5.5 13.9C9.2 56.7 6 62.7.6 66.4l-.6.3v14.2l1.7-.7c5.9-2.4 11-6.5 14.6-11.7C20 63 22 56.7 22 50.1c0-8.7-3.2-16.9-9.1-22.9" class="st0" style="opacity:1;fill:#2d2d80;fill-opacity:1;stop-opacity:1"/><path id="path839" d="M31.7 16.6c5.4 3.7 11.8 5.7 18.3 5.7 8.7 0 16.9-3.2 22.9-9.1C76.1 10 78.6 6.3 80.2 2l.7-1.7H66.8l-.4.6C65.7 2 64.8 3 63.9 4 60.3 7.5 55.3 9.4 50 9.4c-6.5 0-12.5-3.2-16.2-8.6l-.4-.6H19.2l.7 1.8c2.4 5.9 6.5 11 11.8 14.6" class="st0" style="opacity:1;fill:#2d2d80;fill-opacity:1;stop-opacity:1"/><path id="path841" d="m99.4 33.8.5-.4V19.2l-1.7.7c-5.9 2.4-11 6.5-14.6 11.7-3.7 5.4-5.7 11.8-5.7 18.4 0 8.7 3.2 16.9 9.1 22.9 3.2 3.2 6.9 5.7 11.2 7.3l1.7.7V66.8l-.6-.4c-1.1-.7-2.2-1.6-3.1-2.6-3.5-3.6-5.5-8.5-5.5-13.9.1-6.4 3.3-12.5 8.7-16.1" class="st0" style="opacity:1;fill:#2d2d80;fill-opacity:1;stop-opacity:1"/><path id="path843" d="M62.7 50.1c0 7.1-5.8 12.9-12.9 12.9C42.7 63 37 57.2 37 50.1c0-7.1 5.8-12.9 12.9-12.9 7 .1 12.8 5.8 12.8 12.9" class="st0" style="opacity:1;fill:#2d2d80;fill-opacity:1;stop-opacity:1"/></g><g id="g1044" style="fill:#2d2d80;fill-opacity:1" transform="scale(1.02606)"><path id="path845" d="M140.1 29.9c-1.7-1.8-2.6-4-2.6-6.7V.2h-8v23c0 4.7 1.6 8.7 4.8 11.8 3.2 3.2 7.2 4.8 12 4.8s8.9-1.6 12-4.8c3.2-3.2 4.8-7.1 4.8-11.8V.2h-8v23c0 2.6-.9 4.9-2.6 6.7-1.7 1.8-3.8 2.7-6.2 2.7-2.4 0-4.5-.9-6.2-2.7" class="st0" style="opacity:1;fill:#2d2d80;fill-opacity:1;stop-opacity:1"/><path id="path847" d="M188.4 19.9c1 1 1.5 2.4 1.5 4.2V39h7.2V23.2c0-3.6-1-6.5-2.9-8.6-1.9-2.1-4.5-3.2-7.5-3.2-1.5 0-2.9.4-4.2 1.1-1.3.7-2.2 1.3-2.6 1.7-.4.4-.7.8-.9 1.1l-.3.4V12h-7.2v27h7.2V25c0-2.1.5-3.7 1.6-4.9 1-1.1 2.4-1.7 4.2-1.7 1.5-.1 2.9.5 3.9 1.5" class="st0" style="opacity:1;fill:#2d2d80;fill-opacity:1;stop-opacity:1"/><path id="path849" d="M208.4 8c1.3 0 2.4-.4 3.1-1.1.8-.7 1.1-1.7 1.1-2.9s-.4-2.2-1.1-2.9c-.8-.7-1.8-1.1-3.1-1.1-1.2 0-2.2.4-2.9 1.1-.7.7-1.1 1.7-1.1 2.9s.4 2.2 1.1 2.9c.7.8 1.6 1.1 2.9 1.1" class="st0" style="opacity:1;fill:#2d2d80;fill-opacity:1;stop-opacity:1"/><path id="rect851" d="M204.9 12h7.2v27h-7.2z" class="st0" style="opacity:1;fill:#2d2d80;fill-opacity:1;stop-opacity:1"/><path id="polygon853" d="M226.9 39h7.5l10.2-27h-7.4l-6.6 18.4-.1-.4-6.4-18h-7.4z" class="st0" style="opacity:1;fill:#2d2d80;fill-opacity:1;stop-opacity:1"/><path id="path855" d="M265.6 39c1.3-.3 2.4-.7 3.2-1.1.8-.4 1.6-.9 2.4-1.4.7-.5 1.2-.9 1.4-1.1l.4-.4-3.7-4.7-.7.7c-.5.6-1.3 1.1-2.6 1.7-1.2.6-2.6.8-4 .8-2 0-3.7-.5-5-1.6-1.3-1-2.1-2.3-2.4-3.9v-.2h19.8l.3-2.9c0-3.8-1.3-7.1-3.8-9.6-2.5-2.6-5.8-3.9-9.6-3.9s-7.2 1.4-9.9 4.1c-2.7 2.7-4.1 6.1-4.1 9.9 0 3.8 1.4 7.2 4.2 9.9 2.8 2.7 6.2 4.1 10.1 4.1 1.3.1 2.7-.1 4-.4m-10.9-16.4c.5-1.5 1.3-2.8 2.4-3.7 1.1-.9 2.5-1.4 4.2-1.4 1.6 0 3 .5 4.2 1.5 1.1 1 1.8 2.2 2.1 3.7v.2h-13z" class="st0" style="opacity:1;fill:#2d2d80;fill-opacity:1;stop-opacity:1"/><path id="path857" d="M296.7 18.8v-7.1h-.9c-1.5 0-2.9.3-4.2 1-1.3.7-2.2 1.2-2.6 1.6-.4.4-.7.7-.9 1l-.3.3V12h-7.2v27h7.2V26c0-2.4.6-4.2 1.8-5.5 1.2-1.3 2.8-1.9 4.8-1.9 1 0 1.8.1 2.3.2" class="st0" style="opacity:1;fill:#2d2d80;fill-opacity:1;stop-opacity:1"/><path id="path859" d="M319.4 26.9c-.8-1.1-1.9-1.9-3.1-2.4-1.2-.5-2.5-1-3.7-1.3-1.2-.4-2.3-.8-3.2-1.3-.9-.5-1.4-1.1-1.4-1.9 0-.6.3-1.2 1-1.7.6-.5 1.5-.7 2.5-.7.8 0 1.7.2 2.5.6.8.4 1.3.8 1.6 1 .2.2.3.3.4.5l3.7-4.2-.9-.9c-.6-.6-1.7-1.3-3.2-2-1.6-.7-3.3-1-5.1-1-2.9 0-5.4.9-7.4 2.6-2 1.7-3 3.7-3 5.8 0 1.6.4 3 1.2 4.1.8 1.1 1.9 1.9 3.1 2.4 1.2.5 2.5 1 3.7 1.3 1.3.4 2.3.8 3.2 1.3.9.5 1.4 1.2 1.4 2s-.3 1.5-1 1.9c-.6.5-1.6.7-2.8.7-1.1 0-2.2-.3-3.2-.9-1-.6-1.7-1-2-1.4-.2-.3-.4-.5-.6-.7l-4 3.9.3.5c.3.3.7.7 1.3 1.2.6.5 1.3 1 2.1 1.4.8.5 1.9.9 3.1 1.2 1.3.3 2.7.5 4.1.5 3.3 0 6-.8 7.8-2.4 1.9-1.6 2.8-3.6 2.8-6 0-1.6-.4-3-1.2-4.1" class="st0" style="opacity:1;fill:#2d2d80;fill-opacity:1;stop-opacity:1"/><path id="path861" d="M330.2 8c1.3 0 2.4-.4 3.1-1.1.8-.7 1.1-1.7 1.1-2.9s-.4-2.2-1.1-2.9c-.8-.7-1.8-1.1-3.1-1.1-1.2 0-2.2.4-2.9 1.1-.7.7-1.1 1.7-1.1 2.9s.4 2.2 1.1 2.9c.7.8 1.7 1.1 2.9 1.1" class="st0" style="opacity:1;fill:#2d2d80;fill-opacity:1;stop-opacity:1"/><path id="rect863" d="M326.8 12h7.2v27h-7.2z" class="st0" style="opacity:1;fill:#2d2d80;fill-opacity:1;stop-opacity:1"/><path id="path865" d="M355 33.2c-1 0-1.8-.3-2.5-.9-.7-.6-1-1.4-1-2.3V19h5.5v-6.4h-5.5V3.9h-6.4v4.8c0 1.1-.3 2-.9 2.7-.6.7-1.4 1.1-2.3 1.1h-2.3v6.4h4.7v11.3c0 6.3 2.8 9.3 8.5 9.3h.2c1.7 0 3.3-.3 4.7-.8v-6.1h-.1c-.2.1-.6.2-1.1.3-.5.2-1 .3-1.5.3" class="st0" style="opacity:1;fill:#2d2d80;fill-opacity:1;stop-opacity:1"/><path id="path867" d="M374.5 11.4c-3.8 0-7.2 1.4-9.9 4.1-2.7 2.7-4.1 6.1-4.1 9.9 0 3.8 1.4 7.2 4.2 9.9 2.8 2.7 6.2 4.1 10.1 4.1 1.4 0 2.8-.2 4.1-.5 1.3-.3 2.4-.7 3.2-1.1.8-.4 1.6-.9 2.3-1.4.7-.5 1.2-.9 1.4-1.1l.4-.4-3.7-4.7-.7.7c-.5.6-1.4 1.1-2.6 1.7-1.2.6-2.6.8-4 .8-2 0-3.7-.5-5-1.6-1.3-1-2.1-2.3-2.4-3.9v-.2h19.8l.3-2.9c0-3.8-1.3-7.1-3.8-9.6s-5.8-3.8-9.6-3.8m-6.6 11.5.1-.2c.5-1.5 1.3-2.8 2.4-3.7 1.1-.9 2.5-1.4 4.2-1.4 1.6 0 3 .5 4.2 1.5 1.1 1 1.8 2.2 2.1 3.7v.2h-13z" class="st0" style="opacity:1;fill:#2d2d80;fill-opacity:1;stop-opacity:1"/><path id="polygon869" d="M372 8h5.8l5.8-8h-7.3z" class="st0" style="opacity:1;fill:#2d2d80;fill-opacity:1;stop-opacity:1"/><path id="path871" d="m157.4 90.2-.9.8c-.6.5-1.6 1.1-3.1 1.6s-3.1.8-4.8.8c-3.7 0-6.8-1.3-9.3-3.7-2.5-2.5-3.7-5.6-3.7-9.3 0-3.7 1.3-6.8 3.7-9.3 2.5-2.5 5.6-3.7 9.3-3.7 1.3 0 2.7.2 3.9.6 1.3.4 2.3.9 3.1 1.4.8.5 1.5 1.1 2.2 1.7.7.6 1.1 1.1 1.3 1.4l.1.1c.1.1.2.3.3.4l5.1-5.1-.5-.7c-.4-.5-1-1.1-1.9-1.9-.9-.8-2-1.5-3.1-2.3-1.2-.7-2.7-1.4-4.5-1.9-1.8-.5-3.8-.8-5.8-.8-5.9 0-10.9 2-14.9 5.9-4 3.9-6.1 8.7-6.1 14.2s2 10.3 6.1 14.3c4 3.9 9.1 5.9 14.9 5.9 2 0 4.1-.3 6-.8 1.9-.5 3.5-1.1 4.7-1.8 1.2-.7 2.3-1.4 3.4-2.3 1.1-.9 1.8-1.5 2.1-1.8.3-.3.5-.6.6-.7V78.9h-15v5.8h7v5.5z" class="st0" style="opacity:1;fill:#2d2d80;fill-opacity:1;stop-opacity:1"/><path id="path873" d="M181.9 92.1c-1-1-1.6-2.3-1.6-3.9V72.7h-7.2v16.2c0 3.4 1 6.2 2.9 8.3 1.9 2 4.4 3.1 7.5 3.1 1.5 0 2.9-.3 4.2-.9 1.3-.6 2.2-1.1 2.6-1.4l.9-.9.3-.3v3.1h7.2v-27h-7.2v14.3c0 2.1-.5 3.7-1.6 4.8-1 1.1-2.4 1.7-4.2 1.7-1.4-.1-2.8-.6-3.8-1.6" class="st0" style="opacity:1;fill:#2d2d80;fill-opacity:1;stop-opacity:1"/><path id="path875" d="M221.7 85.2c-1.2-.5-2.5-1-3.7-1.3-1.2-.4-2.3-.8-3.1-1.3-.9-.5-1.4-1.2-1.4-1.9 0-.6.3-1.2 1-1.7.6-.5 1.5-.7 2.5-.7.8 0 1.7.2 2.5.6.8.4 1.3.8 1.6 1 .2.2.3.3.4.5l3.7-4.2-.9-.9c-.6-.6-1.7-1.3-3.3-2-1.6-.7-3.3-1-5.1-1-2.9 0-5.4.9-7.4 2.6-2 1.7-3 3.7-3 5.8 0 1.6.4 3 1.2 4.1.8 1.1 1.9 1.9 3.1 2.4 1.2.5 2.5 1 3.7 1.3 1.3.4 2.3.8 3.2 1.3.9.5 1.4 1.2 1.4 2s-.3 1.5-1 1.9c-.6.5-1.6.7-2.8.7-1.1 0-2.2-.3-3.2-.9-1-.6-1.7-1-2-1.4-.2-.3-.4-.5-.6-.7l-4 3.9.3.5c.3.3.7.7 1.3 1.2.6.5 1.3 1 2.1 1.4.8.5 1.9.9 3.1 1.2 1.3.3 2.7.5 4.1.5 3.3 0 6-.8 7.9-2.4 1.9-1.6 2.8-3.6 2.8-6 0-1.7-.4-3.1-1.2-4.2-1-1-2-1.8-3.2-2.3" class="st0" style="opacity:1;fill:#2d2d80;fill-opacity:1;stop-opacity:1"/><path id="path877" d="M242.6 93c-.7-.6-1-1.4-1-2.3v-11h5.6v-6.4h-5.6v-8.6h-6.4v4.8c0 1.1-.3 2-.9 2.7-.6.7-1.4 1.1-2.3 1.1h-2.3v6.4h4.7V91c0 6.3 2.8 9.3 8.5 9.3h.2c1.7 0 3.3-.3 4.7-.8v-6.1h-.1c-.2.1-.6.2-1.1.3-.5.1-1 .2-1.5.2-1 0-1.9-.3-2.5-.9" class="st0" style="opacity:1;fill:#2d2d80;fill-opacity:1;stop-opacity:1"/><path id="path879" d="M264 72.2c-1.3 0-2.6.2-3.8.6-1.2.4-2.3.8-3 1.3-.7.4-1.5 1-2.1 1.6-.7.6-1.1 1-1.3 1.2v.1c-.1.2-.2.3-.3.4l3.9 3.9.5-.5c.4-.5 1.2-1 2.2-1.5 1-.5 2.2-.7 3.4-.7 1.5 0 2.7.4 3.6 1.1.9.8 1.3 1.7 1.3 2.9v.1h-.1l-8.7 1.6c-2.5.4-4.4 1.4-5.8 2.9-1.4 1.4-2.1 3.3-2.1 5.5 0 2.1.8 3.9 2.5 5.4 1.7 1.5 3.9 2.2 6.5 2.2 1.4 0 2.7-.3 4-.9 1.3-.6 2.1-1.1 2.5-1.4l.9-.9.3-.3v3.1h7.2v-17c0-3.1-1.1-5.6-3.2-7.6-2.2-2.1-5-3.1-8.4-3.1m4.4 16c0 2-.5 3.5-1.6 4.6-1 1.1-2.4 1.7-4.2 1.7-2.5 0-3.8-1-3.8-2.9 0-1.8 1.1-2.9 3.2-3.2l6.3-1.2v1z" class="st0" style="opacity:1;fill:#2d2d80;fill-opacity:1;stop-opacity:1"/><path id="polygon881" d="M307.7 72.7h-7.4l-6.5 18.5-.2-.4-6.3-18.1h-7.5l10.2 27h7.6z" class="st0" style="opacity:1;fill:#2d2d80;fill-opacity:1;stop-opacity:1"/><path id="path883" d="M324.4 72.2c-3.8 0-7.2 1.4-9.9 4.1-2.7 2.7-4.1 6.1-4.1 9.9 0 3.8 1.4 7.2 4.2 9.9 2.8 2.7 6.2 4.1 10.1 4.1 1.4 0 2.8-.2 4.1-.5 1.3-.3 2.4-.7 3.2-1.1.8-.4 1.6-.9 2.3-1.4.8-.6 1.2-.9 1.4-1.1l.4-.4-3.7-4.7-.7.7c-.5.6-1.3 1.1-2.6 1.7-1.2.6-2.6.8-4 .8-2 0-3.7-.5-5-1.6-1.3-1-2.1-2.3-2.4-3.9v-.2h19.8l.3-2.9c0-3.8-1.3-7.1-3.8-9.6s-5.8-3.8-9.6-3.8m-6.7 11.4.1-.2c.5-1.5 1.3-2.8 2.4-3.7 1.1-.9 2.5-1.4 4.2-1.4 1.6 0 3 .5 4.2 1.5 1.1 1 1.8 2.2 2.1 3.7v.2h-13z" class="st0" style="opacity:1;fill:#2d2d80;fill-opacity:1;stop-opacity:1"/><path id="polygon885" d="M385.2 68.2V61h-28.4v38.7h28.9v-7.1h-20.9v-9h15.9v-7.2h-15.9v-8.2z" class="st0" style="opacity:1;fill:#2d2d80;fill-opacity:1;stop-opacity:1"/><path id="rect887" d="M392.4 72.7h7.2v27h-7.2z" class="st0" style="opacity:1;fill:#2d2d80;fill-opacity:1;stop-opacity:1"/><path id="path889" d="M395.9 60.8c-1.2 0-2.2.4-2.9 1.1-.7.7-1.1 1.7-1.1 2.9s.4 2.2 1.1 2.9c.7.7 1.7 1.1 2.9 1.1 1.3 0 2.4-.4 3.1-1.1.8-.7 1.1-1.7 1.1-2.9s-.4-2.2-1.1-2.9c-.7-.8-1.8-1.1-3.1-1.1" class="st0" style="opacity:1;fill:#2d2d80;fill-opacity:1;stop-opacity:1"/><path id="path891" d="M399 67.7c-.8.7-1.8 1.1-3.1 1.1-1.2 0-2.2-.4-2.9-1.1-.7-.7-1.1-1.7-1.1-2.9s.4-2.2 1.1-2.9c.7-.7 1.7-1.1 2.9-1.1 1.3 0 2.4.4 3.1 1.1.8.7 1.1 1.7 1.1 2.9s-.3 2.2-1.1 2.9" class="st0" style="opacity:1;fill:#2d2d80;fill-opacity:1;stop-opacity:1"/><path id="path893" d="M420 60.7c-.8-.1-1.7-.2-2.4-.2-5.7 0-8.5 3-8.5 9.3v3.8h-3.9V80h3.9v19.8h7.2V79.9h6.1v-6.4h-6.1V70c0-.9.3-1.7 1-2.3.7-.6 1.5-.9 2.5-.9s1.9.2 2.6.5v-6l-.5-.2c-.4-.1-1-.2-1.9-.4" class="st0" style="opacity:1;fill:#2d2d80;fill-opacity:1;stop-opacity:1"/><path id="path895" d="M440.4 60.7c-.8-.1-1.7-.2-2.4-.2-5.7 0-8.5 3-8.5 9.3v3.8h-3.9V80h3.9v19.8h7.2V79.9h6.1v-6.4h-6.1V70c0-.9.3-1.7 1-2.3.7-.6 1.5-.9 2.5-.9s1.9.2 2.6.5v-6l-.5-.2c-.5-.1-1.1-.2-1.9-.4" class="st0" style="opacity:1;fill:#2d2d80;fill-opacity:1;stop-opacity:1"/><path id="path897" d="M460.5 72.2c-3.8 0-7.2 1.4-9.9 4.1-2.7 2.7-4.1 6.1-4.1 9.9 0 3.8 1.4 7.2 4.2 9.9 2.8 2.7 6.2 4.1 10.1 4.1 1.4 0 2.8-.2 4.1-.5 1.3-.3 2.4-.7 3.2-1.1.8-.4 1.6-.9 2.3-1.4.8-.6 1.2-.9 1.4-1.1l.4-.4-3.7-4.7-.7.7c-.5.6-1.3 1.1-2.6 1.7-1.2.6-2.6.8-4 .8-2 0-3.7-.5-5-1.6-1.3-1-2.1-2.3-2.4-3.9v-.2h19.8l.3-2.9c0-3.8-1.3-7.1-3.8-9.6-2.6-2.5-5.8-3.8-9.6-3.8m-6.7 11.4.1-.2c.5-1.5 1.3-2.8 2.4-3.7 1.1-.9 2.5-1.4 4.2-1.4 1.6 0 3 .5 4.2 1.5 1.1 1 1.8 2.2 2.1 3.7v.2h-13z" class="st0" style="opacity:1;fill:#2d2d80;fill-opacity:1;stop-opacity:1"/><path id="rect899" d="M480.1 61h7.2v38.7h-7.2z" class="st0" style="opacity:1;fill:#2d2d80;fill-opacity:1;stop-opacity:1"/></g></svg>