<svg xmlns="http://www.w3.org/2000/svg" xmlns:xlink="http://www.w3.org/1999/xlink" width="829.238" height="829.238"><svg xmlns="http://www.w3.org/2000/svg" xmlns:xlink="http://www.w3.org/1999/xlink" width="829.238" height="829.238"><svg xmlns="http://www.w3.org/2000/svg" xmlns:svg="http://www.w3.org/2000/svg" xmlns:xlink="http://www.w3.org/1999/xlink" xml:space="preserve" id="Layer_1" width="829.238" height="829.238" version="1.1" viewBox="0 0 530.712 530.712"><defs id="defs7"><linearGradient xlink:href="#linearGradient1524" id="linearGradient1526" x1="31.904" x2="494.322" y1="365.031" y2="365.031" gradientTransform="matrix(1.14769 0 0 1.14769 -36.616 -153.585)" gradientUnits="userSpaceOnUse" spreadMethod="pad"/><linearGradient id="linearGradient1524"><stop id="stop1520" offset="0" style="stop-color:#000091;stop-opacity:1"/><stop id="stop1522" offset="1" style="stop-color:#004bce;stop-opacity:1"/></linearGradient><linearGradient xlink:href="#linearGradient20581" id="linearGradient23180" x1="440.127" x2="940.011" y1="305.191" y2="305.191" gradientTransform="translate(-450.83 388.142)" gradientUnits="userSpaceOnUse"/><linearGradient id="linearGradient20581"><stop id="stop20577" offset="0" style="stop-color:#d81e26;stop-opacity:1"/><stop id="stop20579" offset="1" style="stop-color:#c7000a;stop-opacity:1"/></linearGradient><linearGradient xlink:href="#linearGradient20581" id="linearGradient23188" x1="658.474" x2="721.664" y1="305.189" y2="305.189" gradientTransform="translate(-450.83 388.142)" gradientUnits="userSpaceOnUse"/></defs><path id="path8676" d="M473.676 262.045a212.24 213.437 0 0 1-212.24 213.437 212.24 213.437 0 0 1-212.24-213.437A212.24 213.437 0 0 1 261.437 48.61a212.24 213.437 0 0 1 212.24 213.436Z" style="display:inline;opacity:.981594;fill:#f6f5f4;stroke-width:1.74582;stroke-linecap:square;stroke-linejoin:round;stroke-miterlimit:3.1;paint-order:markers fill stroke"/><path id="path18653" d="M274.172 31.704c-3.352 3.032-4.751 5.58-4.604 8.47.379 7.424 8.653 12.755 35.791 23.063 11.39 4.327 15.559 6.464 22.39 11.473 6.79 4.979 11.97 7.416 23.53 11.068 9.404 2.971 11.63 3.907 14.51 6.108 2.582 1.974 3.369 3.352 2.98 5.213-.399 1.904-2.387 3.617-7.59 6.54-9.13 5.127-9.876 6.087-12.556 16.187-3.035 11.436-4.831 13.726-17.794 22.674-12.522 8.643-13.576 10.02-16.512 21.61-1.405 5.546-2.475 8.644-3.849 11.143-2.459 4.473-17.847 23.7-22.482 28.088-1.967 1.863-7.332 5.955-11.919 9.094-9.573 6.55-12.44 8.97-15.563 13.136l-2.233 2.977-2.555 12.025c-2.871 13.516-2.738 13.215-9.94 22.586-4.877 6.344-5.912 8.366-6.439 12.602-.704 5.658.862 8.424 9.298 16.417 5.7 5.4 7.506 7.558 9.072 10.845 3 6.294 1.487 11.568-5.558 19.399-5.912 6.572-7.039 8.904-6.092 12.62.96 3.773 8.423 8.903 15.194 10.447 4.346.991 8.166.868 15.605-.503 9.177-1.69 14.674-1.937 22.834-1.02 3.493.392 9.026 1.283 12.293 1.98 7.57 1.614 16.968 2.679 21.597 2.445 5.215-.262 10.65-1.49 20.215-4.558 9.395-3.015 15.784-4.308 26.683-5.402 9.983-1.001 12.205-1.368 17.99-2.971 6.826-1.893 12.415-4.417 26.99-12.193 23.662-12.625 27.454-15.467 47.556-35.627 1.193-1.196 1.949-1.991 2.985-3.043v-1.385c-.747.75-1.065 1.134-1.916 1.978-3.48 3.448-7.939 7.907-9.907 9.909-10.997 11.184-18.384 16.348-39.46 27.586-21.808 11.629-26.643 13.26-44.837 15.12-11.464 1.17-17.414 2.38-27.197 5.528-9.472 3.047-15.22 4.265-20.991 4.452-5.184.168-8.715-.265-19.067-2.347-9.87-1.984-18.976-2.93-25.109-2.607-1.972.104-7.173.809-11.557 1.568-7.292 1.263-8.29 1.343-11.72.944-4.713-.551-8.92-2.35-13.062-5.585-5.994-4.683-5.819-8.193.782-15.63 5.188-5.845 6.89-8.675 7.743-12.876 1.253-6.17-1.261-11.21-9.402-18.835-7.895-7.395-10.006-10.523-10.305-15.276-.206-3.275 1.624-7.156 6.055-12.85 7.622-9.793 7.003-8.43 9.907-21.855 2.792-12.914 3.23-14.024 7.424-18.821 2.602-2.978 5.14-4.99 12.79-10.141 11.92-8.025 13.176-9.229 25.03-24.01 10.414-12.988 10.889-13.84 13.803-24.724 3.208-11.982 4.002-13.035 15.933-21.177 12.67-8.646 15.956-12.635 17.889-21.693 2.15-10.076 3.842-12.38 12.83-17.482 5.994-3.403 6.948-4.157 7.86-6.228 1.374-3.117-1.195-6.546-6.828-9.118-1.71-.78-6.555-2.492-10.766-3.8-12.242-3.808-15.494-5.348-23.28-11.032-7.02-5.125-11.323-7.321-22.583-11.517-21.402-7.975-31.779-13.7-34.664-19.126-1.006-1.891-1.088-2.659-.542-5.265.503-2.42 1.438-3.94 4.077-6.162zm-59.917 24.412-.909.527c6.296.835 14.217 1.618 23.636 2.275 18.555 1.294 27.777 2.508 35.449 4.67 13.95 3.933 22.29 9.821 21.921 15.479-.183 2.814-2.35 5.477-8.182 10.06-8.325 6.544-11.076 9.967-11.238 13.985-.192 4.748 2.31 8.502 10.842 16.27 3.15 2.867 6.131 5.97 6.627 6.898 1.18 2.206.517 3.566-3.777 7.727-9.496 9.202-10.195 12.915-4.11 21.876 5.35 7.877 6.638 11.391 6.17 16.866-.313 3.666-2.731 8.915-7.711 16.749-6.378 10.031-8.82 12.63-20.821 22.15-12.02 9.534-16.451 16.088-18.96 28.056-1.657 7.897-4.302 12.447-12.132 20.869-7.529 8.098-8.524 9.387-14.87 19.276-7.585 11.823-9.066 15.16-10.092 22.754-1.319 9.75-1.903 11.524-5.333 16.14-.834 1.124-2.28 2.449-10.568 9.686-3.816 3.332-5.935 5.57-7.039 7.437-3.008 5.093-2.294 10.093 1.972 13.801 4.23 3.678 10.8 5.04 23.442 4.86 13.278-.19 18.76 1.028 23.905 5.31 3.142 2.617 4.225 4.36 6.49 10.455 2.77 7.45 5.371 10.51 11.16 13.128 4.116 1.861 7.906 2.687 15.156 3.301 6.772.574 7.343.543 22.764-1.236 5.284-.61 6.72-.63 11.26-.142 4.58.49 5.541.714 8.043 1.876 3.872 1.799 6.732 3.904 10.399 7.65 8.469 8.651 15.145 13.364 22.493 15.883 3.016 1.034 4.917 1.408 10.069 1.988 5.933.678 6.621.68 10.446.023 7.268-1.246 12.45-3.99 16.347-8.66 1.74-2.083 2.175-3.068 2.98-6.743 1.129-5.153.926-6.534-2.121-14.389-2.66-6.858-2.8-8.453-.914-10.584 1.891-2.139 5.877-3.774 16.26-6.672 17.127-4.782 26.685-8.956 32.978-14.402 1.77-1.53 5.745-5.723 8.836-9.316 8.744-10.165 15.026-15.61 30.449-26.395 3.519-2.461 7.273-5.446 10.427-8.145v-1.071c-2.937 2.555-6.584 5.354-12.16 9.3-14.998 10.617-20.783 15.66-29.426 25.651-2.856 3.303-6.144 6.933-7.304 8.068-6.076 5.943-16.347 10.64-33.875 15.491-13.767 3.81-17.306 5.696-18.171 9.681-.522 2.406-.316 3.306 2.124 9.173 2.408 5.79 2.975 9.207 2.166 13.073-1.995 9.538-12.413 15.94-25.608 15.733-7.592-.119-16.166-2.862-22.708-7.267-2.851-1.92-7.46-5.88-10.383-8.923-3.44-3.582-8.763-7.873-11.289-9.1-3.411-1.655-8.46-2.724-13.434-2.843-2.159-.051-7.871.363-12.692.925-15.87 1.849-23.401 1.36-31.46-2.044-6.088-2.572-9.36-6.277-11.87-13.45-1.804-5.156-3.157-7.39-6.042-9.966-5.323-4.753-11.265-6.21-24.32-5.962-15.671.297-22.348-1.661-25.94-7.613-1.447-2.397-1.468-2.617-.67-6.432.979-4.667 1.944-5.86 10.53-13.022 2.915-2.432 6.559-5.908 8.098-7.725 2.68-3.163 2.849-3.516 3.919-8.322.614-2.761 1.542-7.452 2.062-10.425 1.122-6.406 2.162-8.65 8.94-19.29 6.08-9.545 7.867-11.879 14.842-19.367 8.802-9.45 9.629-10.945 13.594-24.577 3.372-11.594 6.43-15.708 19.247-25.903 10.986-8.738 12.787-10.668 19.123-20.494 5.61-8.702 7.112-12.05 7.929-17.669.949-6.53.074-9.17-5.888-17.761-3.313-4.774-4.093-7.099-3.426-10.2.723-3.361 1.678-4.76 6.544-9.582 3.432-3.402 4.359-4.624 4.926-6.5.87-2.882.425-3.566-6.377-9.744-9.168-8.326-11.463-11.841-10.872-16.64.468-3.797 2.191-5.975 9.078-11.472 7.731-6.171 8.426-6.956 9.516-10.76.824-2.877.819-3.502-.038-5.151-1.476-2.844-5.629-5.958-11.363-8.52-10.31-4.606-20.795-6.657-40.99-8.011-11.289-.757-20.818-1.681-28.076-2.629zm-22.777 13.448c-.198 0-.395.038-.593.046l-1.371.793c9.427-.822 17.473 1.782 20.15 7.097 3.242 6.432-1.062 13.248-9.986 15.813-4.632 1.331-9.94 1.483-14.526.417-6.86-1.595-12.51-5.025-14.445-8.769a7.23 7.23 0 0 1-.81-3.235l-.859.497c.015 1.155.162 2.266.614 3.065 1.506 2.663 4.533 5.131 8.506 6.932 3.442 1.56 3.978 1.69 9.705 2.337 5.374.607 6.445.617 9.436.093 7.859-1.378 12.925-5.278 14.09-10.85 1.617-7.728-5.11-13.613-16.24-14.213a39.825 39.825 0 0 0-3.671-.023zm-46.22 26.39-.813.47c3.625 1.087 7.74 2.384 12.919 4.083 16.098 5.28 26.054 7.397 36.78 7.817 8.05.315 14.71-.375 27.134-2.81 12.822-2.51 14.764-2.57 19.237-.597 3.644 1.608 12.853 9.158 16.41 13.455 5.046 6.092 5.473 9.432 2.306 18.043-5.065 13.767-4.468 17.335 4.516 26.97 7.41 7.947 8.732 11.562 6.733 18.393-1.527 5.215-5.537 12.712-9.429 17.624-1.742 2.198-6.27 6.9-10.06 10.446-11.106 10.388-13.693 13.825-18.918 25.122-4.66 10.073-7.092 13.394-16.239 22.185-2.416 2.321-6.123 6.037-8.24 8.258-2.116 2.222-6.195 6.339-9.061 9.15-11.458 11.231-12.8 13.316-18.206 28.271-3.135 8.672-6.825 12.878-18.112 20.646-8.846 6.088-9.734 7.01-10.138 10.526-.358 3.112-.345 3.143 8.23 17.844 6.506 11.156 7.801 13.041 10.903 15.871 3.17 2.893 6.983 4.792 16.852 8.4 9.001 3.29 11.932 4.644 20.478 9.457 10.614 5.979 16.888 8.615 31.095 13.06 16.494 5.16 26.678 6.754 41.591 6.515 15.166-.244 18.63.574 30.239 7.126 8.725 4.925 13.224 6.958 19.827 8.963 9.17 2.785 28.859 6.765 39.247 7.935 9.715 1.094 13.192.63 25.159-3.37 5.896-1.971 9.738-1.901 12.62.23 1.4 1.035 2.023 2.072 1.877 3.413l1.151-.664c-.478-2.437-3.37-4.586-7.137-4.997-3.209-.35-6.369.247-12.062 2.278-11.12 3.966-16.001 3.978-36.664.098-21.993-4.13-29.677-6.7-43.534-14.559-11.336-6.429-15.277-7.354-29.957-7.05-16.718.348-26.424-1.337-46.743-8.117-10.684-3.565-17.065-6.36-25.675-11.241-7.757-4.397-11.717-6.211-21.557-9.883-10.165-3.793-12.384-4.917-15.744-7.974-3.398-3.093-5.135-5.682-13.102-19.524-3.9-6.777-6.221-11.389-6.376-12.663-.382-3.132 1.222-4.906 9.773-10.8 12.738-8.78 15.63-12.233 19.261-23.006 3.673-10.895 6.786-15.726 15.832-24.575a649.081 649.081 0 0 0 10.446-10.504 494.967 494.967 0 0 1 9.941-9.944c7.95-7.67 10.078-10.715 15.332-21.932 4.85-10.354 7.702-14.058 18.892-24.54 8.19-7.673 10.828-10.844 14.377-17.283 7.858-14.253 7.575-19.437-1.595-29.226-9.144-9.761-9.885-12.895-5.757-24.356 2.756-7.653 3.403-12.016 2.235-15.111-1.314-3.486-5.014-7.842-11.087-13.055-6.952-5.967-9.621-7.319-15.265-7.74-3.294-.246-4.776-.098-10.611 1.06-20.29 4.028-23.836 4.307-36.658 2.895-11.13-1.225-14.168-1.945-29.843-7.068-4.932-1.612-9.104-2.924-12.81-4.016zm249.092 5.135c-2.249 1.406-4.183 2.682-4.84 3.283-2.71 2.478-4.28 6.213-4.402 10.47-.204 7.112 2.148 13.45 8.968 24.165 7.118 11.182 8.012 15.778 4.089 21.026-2.752 3.68-6.225 5.804-20.689 12.657-6.82 3.232-9.915 5.182-12.368 7.789-2.618 2.783-3.199 6.228-1.557 9.24 3.842 7.049 17.839 12.465 32.793 12.692 6.73.102 12.291-.549 27.301-3.193 17.204-3.03 18.982-3.2 25.632-2.453 4.532.508 5.593.76 8.291 1.964 4.35 1.942 7.238 4.898 11.036 11.297 2.524 4.252 4.543 7.007 7.395 10.497v-1.574c-2.364-2.994-4.406-5.868-6.847-9.983-3.655-6.163-6.095-8.57-10.83-10.689-3.214-1.438-3.993-1.63-8.819-2.153-7.1-.77-11.717-.345-27.527 2.55-16.672 3.05-21.456 3.487-30.114 2.745-5.028-.431-7.574-.82-10.308-1.581-8.738-2.433-16.01-7.186-17.591-11.5-.995-2.71-.815-3.707 1.132-6.296 2.222-2.954 5.611-5.075 17.057-10.67 14.444-7.061 17.755-9.829 18.987-15.864.448-2.194.399-3.796-.175-5.696-.948-3.137-.952-3.144-6.308-11.855-7.872-12.802-9.567-18.254-8.028-25.813l.955-4.689 2.71-2.432c.955-.856 2.843-2.127 4.921-3.434zm-255.269 9.11c-8.171-.256-15.568.552-22.554 2.341l-2.78 1.605c6.917-2.142 15.38-3.46 23.12-3.44 5.941.022 14.057 1.15 27.044 3.78 17.807 3.609 29.948 5.177 43.428 5.615 12.512.406 18.87 1.217 22.45 2.86 4.857 2.229 7.422 5.212 8.336 9.689.27 1.326.015 5.264-.66 10.13-1.666 12.017-.65 15.731 6.707 24.46 5.394 6.4 6.309 7.79 7.414 11.307 1.733 5.516-.37 14.24-5.144 21.345-1.18 1.757-5.065 6.257-8.63 10-3.566 3.742-9.84 10.995-13.942 16.118-7.83 9.778-11.326 13.251-19.731 19.593-6.391 4.823-9.342 7.471-15.646 14.048-5.861 6.115-11.935 11.63-19.628 17.82-7.1 5.714-9.243 8.03-13.112 14.176-4.832 7.675-8.007 10.074-13.726 10.377-2.015.107-2.998-.04-5.274-.792-3.603-1.189-5.793-2.509-13.54-8.165-3.491-2.55-12.33-8.457-19.641-13.129-7.312-4.672-14.934-9.55-16.94-10.837-13.595-8.725-21.454-16.914-23.496-24.484-1.83-6.789-1.14-12.133 2.736-21.19 2.308-5.394 2.903-7.618 6.246-23.37l3.695-17.408 4.458-6.85c5.855-8.995 6.895-11.265 7.636-16.685.696-5.082.126-8.585-2.296-14.136-.881-2.02-2.251-5.151-3.046-6.959h-.002c-.965-2.193-1.246-3.667-1.122-5.218l-1.273.734c.192 1.996 1.214 4.618 3.168 8.814 2.859 6.137 4.01 10.452 3.995 15.005-.013 4.558-1.819 8.738-7.392 17.11l-4.444 6.677-3.565 16.872c-3.197 15.133-3.834 17.514-6.17 23.101-3.13 7.493-4.812 14.872-4.401 19.311.26 2.817 1.82 7.83 3.107 9.984 1.835 3.07 5.76 7.421 9.654 10.699 4.824 4.06 6.736 5.352 27.961 18.9 7.456 4.758 16.212 10.583 19.457 12.944 11.361 8.267 13.08 9.133 19.035 9.564 7.053.51 10.415-1.66 15.917-10.276 4.131-6.471 6.097-8.543 14.715-15.505 8.964-7.242 9.621-7.84 18.054-16.499 4.017-4.124 9.21-8.998 11.542-10.829 2.331-1.831 6.061-4.75 8.288-6.488 5.851-4.568 7.77-6.58 15.228-15.986 3.679-4.64 9.792-11.714 13.588-15.72 10.393-10.969 12.745-14.797 14.574-23.742 1.673-8.179.567-11.407-6.87-20.07-7.44-8.662-8.682-12.46-7.42-22.702 1.628-13.21 1.21-15.765-3.203-19.49-4.686-3.956-9.908-5.105-25.217-5.55-14.705-.427-25.96-1.785-42.423-5.116-16.872-3.414-21.56-4.133-28.264-4.344zm308.62 21.695c-.91 2.239-1.835 4.828-2.85 8.139-1.197 3.908-2.315 7.173-2.485 7.254-.17.08-.822 3.152-1.451 6.82-1.403 8.186-1.074 9.92 2.435 12.794 3.283 2.69 6.507 3.588 19.712 5.505 5.435.789 10.64 1.726 12.937 2.291v-.59c-2.573-.59-5.874-1.216-12.054-2.171-14.68-2.27-16.904-2.893-19.944-5.596-4.057-3.606-4.061-7.957-.021-20.855 2.045-6.53 3.349-10.383 4.481-13.155zM62.94 143.48l-.49.285c.478.613 1.211 1.426 2.265 2.398 3.145 2.9 5.767 7.197 6.228 10.21.715 4.664-1.58 9.756-6.7 14.863l-6.62 6.606c-1.285 1.283-2.24 2.332-2.91 3.19v1.438c.82-1.12 3.472-3.932 6.193-6.534 6.917-6.614 9.175-9.61 10.415-13.825 1.785-6.07-.177-11.438-6.135-16.786-.86-.772-1.655-1.42-2.246-1.845zm132.948 2.643c-4.844-.188-9.434 1.016-18.495 4.848-8.996 3.804-12.995 4.978-19.532 5.741-3.486.407-5.058.374-10.728-.25-6.945-.761-7.827-.987-17.81-4.508-10.048-3.544-13.511-2.24-21.7 8.164-8.272 10.508-11.974 17.448-12.757 23.91-.558 4.61-.1 7.722 2.32 15.725 2.992 9.89 2.752 10.502-7.902 20.06-7.375 6.618-9.54 9.133-11.384 13.235-1.933 4.297-1.54 10.107.94 13.889 5.688 8.67 24.464 15.874 46.47 17.83 8.35.743 14.128.351 20.666-1.4 8.764-2.349 14.95-5.946 26.023-15.13 8.692-7.21 13.41-10.476 23.038-15.941 4.585-2.603 10.17-5.988 12.41-7.52 7.315-5.004 19.004-16.6 23.464-23.28 1.894-2.836 2.4-4.128 3.352-8.545 1.271-5.905 1.007-8.323-1.4-12.837-1.56-2.923-3.484-5.124-11.75-13.442-2.876-2.894-7.156-7.7-9.51-10.68-6.09-7.706-9.13-9.615-15.715-9.87zm-2.363.685a18.976 18.976 0 0 1 3.604.064c5.343.602 8.148 2.552 13.35 9.277 3.79 4.902 6.172 7.539 12.094 13.394 11.036 10.914 12.957 15.414 10.483 24.558-1.412 5.22-3.128 7.946-9.181 14.588-8.75 9.6-15.855 15.202-27.971 22.055-11.861 6.707-14.568 8.593-27.158 18.925-10.844 8.9-18.27 12.554-28.907 14.227-5.86.922-9.668.936-17.262.061-7.63-.878-16.558-2.845-23.32-5.138-12.722-4.314-20.124-10.351-21.575-17.6-.237-1.182-.155-3.367.183-4.853 1.213-5.344 4.666-9.83 12.546-16.307 7.283-5.985 7.817-6.673 8.788-11.258.816-3.861.79-4.087-1.175-10.244-2.586-8.1-2.968-11.28-1.956-16.204 1.18-5.732 5.07-12.59 12.461-21.966 3.972-5.039 6.57-7.485 9.208-8.674 3.615-1.629 4.687-1.464 16.081 2.496 10.961 3.81 21.598 4.35 32.74 1.664 1.918-.462 7.203-2.424 11.746-4.36 7.09-3.018 11.479-4.416 15.22-4.704zm-4.644 35.537c-1.262.021-2.436.18-4.253.491-4.422.758-9.812 2.779-12.408 4.65-1.606 1.157-3.763 3.896-4.615 5.863-.735 1.7-4.986 21.783-4.797 22.671.273 1.292 1.94 1.456 6.273.62 8.395-1.622 18.662-4.697 24.412-7.315 4.74-2.16 6.188-3.075 8.952-5.66 3.808-3.561 5.106-5.47 5.723-8.418.929-4.437-1.453-8.16-6.842-10.699-2.366-1.115-3.47-1.384-7.671-1.86-2.164-.247-3.512-.364-4.774-.343zm-.455.77c4.16-.247 8.273.278 11.58 1.712 9.684 4.202 9.769 12.249.21 19.668-3.126 2.425-12.305 6.557-18.273 8.227-6.582 1.841-16.226 4.12-17.052 4.027-.372-.043-.804-.379-.956-.75-.403-.976.481-5.627 2.92-15.385 1.94-7.754 2.31-8.759 3.863-10.463 3.707-4.065 10.775-6.623 17.708-7.035zm140.633 13.278c-6.477-.249-11.698 1.73-20.635 7.82-6.151 4.192-11.184 7.187-20.808 12.387-8.767 4.737-13.1 8.138-15.975 12.535-1.717 2.627-2.901 7.458-4.035 16.465-.91 7.226-1.713 9.36-6.512 17.261-1.667 2.744-3.238 5.462-3.493 6.04-.917 2.08-1.477 5.098-1.3 7.012.308 3.32 2.21 6.49 7.464 12.426 9.45 10.68 11.46 13.91 14.391 23.158 2.293 7.234 4.173 9.723 8.993 11.908 4.512 2.046 8.448 2.85 23.806 4.854 13.914 1.816 17.892 1.946 26.302.858 7.599-.982 30.23-6.415 43.739-10.502 11.364-3.437 15.766-5.806 26.24-14.122 11.065-8.785 15.335-11.268 28.509-16.576 18.099-7.293 25.048-11.035 31.72-17.073 3.901-3.532 6.718-7.049 8.534-10.564v-2.23c-1.588 3.879-4.456 7.796-8.62 11.683-6.316 5.896-14.403 10.37-30.074 16.645-15.202 6.086-19.661 8.617-30.81 17.48-12.001 9.54-15.353 11.15-33.859 16.294-9.747 2.709-24.839 6.363-31.26 7.565-2.78.52-7.428 1.125-10.329 1.345-4.967.374-5.908.324-16.238-.862-12.295-1.41-20.93-2.94-25.053-4.436-5.955-2.162-8.114-4.813-10.847-13.31-2.794-8.685-4.827-12.042-12.382-20.461-6.162-6.867-8.037-9.497-8.817-12.363-.922-3.387.095-7.629 2.937-12.246 6.26-10.172 7.094-12.563 8.934-25.64.95-6.743 1.142-7.42 2.828-9.97 3.373-5.1 7.453-8.079 20.906-15.271 3.734-1.996 9.936-5.752 13.785-8.344 16.135-10.87 19.845-11.355 37.217-4.878 14.559 5.429 24.346 7.905 36.764 9.303 8.21.926 12.671 1.076 26.703.904 12.815-.157 20.931.533 25.755 2.196 4.43 1.528 29.122 15.94 33.856 19.76 4.155 3.354 7.019 6.9 8.604 10.571v-2.182c-.063-.123-.094-.244-.16-.367-3.026-5.653-7.96-9.622-22.364-17.99-13.779-8.004-16.4-9.373-20.18-10.542-4.724-1.46-12.705-2.165-23.028-2.03-18.702.24-26.698-.169-36.283-1.853-8.675-1.526-17.347-3.976-27.817-7.86-9.978-3.701-13.385-4.656-17.108-4.798zm-2.876 21.11c-4.828.075-8.444.552-13.171 1.47-13.431 2.61-23.542 7.626-27.99 13.889-.992 1.397-2.02 4.64-4.152 13.115-2.615 10.397-3.05 11.656-5.68 16.451-3.696 6.741-4.877 11.58-3.714 15.223 1.131 3.542 3.106 6.186 9.485 12.695 3.073 3.136 7.483 7.844 9.797 10.46 5.187 5.862 8.356 8.533 12.374 10.43 6.009 2.837 17.156 5.26 25.627 5.57 12.496.456 27.897-2.753 39.255-8.177 5.946-2.84 8.892-4.926 14.611-10.346 8.07-7.646 11.285-10.344 15.94-13.38 5.779-3.768 20.99-10.67 31.741-14.405 14.53-5.046 19.273-7.474 23.288-11.919 1.768-1.956 2.195-2.849 2.897-6.066.778-3.56.745-3.92-.574-6.387-2.397-4.487-5.536-6.49-20.964-13.384-14.905-6.659-18.995-8.332-23.41-9.574-4.566-1.284-18.98-2.745-30.382-3.08-15.342-.453-24.056-.866-34.53-1.63-9.578-.7-15.62-1.028-20.448-.955zm.271.601c4.294-.085 9.36.151 16.563.686 12.422.922 18.631 1.241 36.193 1.858 23.995.842 31.2 2.03 41.926 6.903 2.98 1.354 9.07 4.018 13.532 5.922 10.067 4.296 14.398 6.662 17.562 9.588 3.22 2.977 4.271 5.78 3.517 9.375-.93 4.434-4.857 8.432-11.528 11.738-2.139 1.06-8.254 3.465-13.588 5.343-5.335 1.879-12.88 4.8-16.768 6.491-13.328 5.8-19.505 9.867-29.566 19.471-3.74 3.572-8.417 7.566-10.39 8.873-8.841 5.855-23.513 10.448-37.35 11.693-4.535.408-5.976.369-12.628-.367-8.463-.934-13.593-2.162-19.287-4.612-4.292-1.846-7.543-4.54-13.129-10.874-2.424-2.749-6.742-7.369-9.596-10.268-6.281-6.383-8.405-9.158-9.399-12.278-.742-2.33-.535-6.79.412-8.857.265-.577 1.56-3.076 2.876-5.555 3.502-6.597 4.869-10.55 6.59-19.048 1.733-8.56 2.83-10.903 6.773-14.492 4.356-3.965 15.51-8.51 25.358-10.332 4.11-.761 7.633-1.172 11.927-1.258zm-172.532 4.716c-.771.068-1.795.316-3.398.776-6.592 1.891-15.562 6.748-16.956 9.184h.002c-1.409 2.463.355 3.718 4.9 3.482 6.9-.359 12.638-3.458 16.514-8.924 1.758-2.478 1.983-3.657.806-4.202-.582-.27-1.098-.383-1.87-.316zm-.054.69c.544-.074.944-.061 1.162.056 2.115 1.143-4.656 8.45-9.63 10.39-4.79 1.87-9.462 2.28-11.016.968-.873-.737-.676-1.112 1.734-3.256 3.199-2.846 13.947-7.635 17.75-8.158zm219.183 8.523c-3.36 0-7.246.07-11.866.2-14.979.416-16.931.42-28.97.05-18.244-.562-25.28.86-30.954 6.26-2.902 2.762-4.3 5.472-9.237 17.879-4.613 11.592-5.305 13.935-4.942 16.791.828 6.509 7.206 11.022 22.467 15.89 3.576 1.141 9.57 3.38 13.317 4.974 8.054 3.426 10.11 4.073 14.502 4.569 5.666.641 9.526-.053 15.532-2.802 4.265-1.95 6.324-3.273 11.18-7.171 7.004-5.624 11.148-8.34 19.858-13.025 15.691-8.44 22.194-12.682 26.239-17.118 2.125-2.332 2.54-3.124 3.192-6.103.713-3.257.669-3.573-.856-6.412-2.673-4.977-9.908-9.768-17.767-11.767-6.262-1.593-11.614-2.218-21.695-2.214zm1.398.584c16.317.115 25.356 2.665 32.822 8.897 4.853 4.051 5.908 6.347 4.96 10.8-.606 2.853-1.047 3.748-2.698 5.478-4.626 4.848-10.596 8.744-26.844 17.525-7.57 4.091-13.314 7.914-21.034 13.993-4.731 3.725-10.767 7.017-14.763 8.051-1.248.323-3.823.69-5.72.813-4.67.307-7.61-.447-16.791-4.303-3.983-1.673-10.662-4.163-14.843-5.534-12.388-4.063-17.868-7.276-20.364-11.94-1.324-2.476-1.357-2.836-.595-6.94.454-2.45 1.71-6.46 2.892-9.238 1.149-2.7 3.021-7.298 4.16-10.215 3.428-8.782 6.444-12.345 12.485-14.76 5.953-2.38 10.843-2.796 26.913-2.289 9.745.308 14.989.268 31.964-.242 2.645-.079 5.125-.113 7.456-.095zm-11.475 13.203c-7.94.06-33 1.678-36.887 2.382-6.408 1.161-11.516 4.175-13.63 8.046-2.72 4.981-1.423 9.052 3.625 11.377 5.877 2.705 26.233 3.633 38.083 1.738 9.565-1.53 21.088-6.058 25.366-9.97 2.581-2.36 3.944-6.252 2.858-8.16-2.027-3.563-8.947-5.491-19.415-5.413zm-.84.644c5.382-.166 11.554.544 14.481 1.66 3.179 1.214 5.204 3.272 5.269 5.354.199 6.396-16.314 14.22-33.61 15.922-8.322.82-24.414-.021-29.542-1.533-2.768-.82-5.166-2.597-6.09-4.514-.495-1.028-.582-2.376-.244-3.902 1.21-5.483 6.659-9.337 15.2-10.75 3.56-.589 24.02-1.914 34.536-2.237zm-307.421 8.484v2.081c3.203 5.001 7.7 10.068 15.106 17.374 10.678 10.535 15.276 16.238 22.325 27.69 5.238 8.51 6.842 10.463 11.938 14.531a636.855 636.855 0 0 1 8.198 6.672c7.283 6.058 7.19 6.976-1.531 15.12-7.915 7.39-7.685 7.138-10.298 11.26-2.745 4.33-4.76 11-4.734 15.666.01 1.82.522 5.885 1.138 9.032 1.375 7.037 1.366 9.171-.05 11.449-1.707 2.742-5.475 5.053-16.013 9.816a213.256 213.256 0 0 0-10.247 4.96l.882.508c2.95-1.525 6.07-3.059 9.923-4.832 11.593-5.338 12.192-5.666 14.63-7.996 2.743-2.622 3.348-6.229 2.121-12.637-1.91-9.98-1.87-14.018.2-19.468 2.504-6.596 5.933-10.968 14.263-18.197 4.161-3.611 4.896-4.47 5.52-6.454 1.037-3.288-.319-5.292-7.134-10.547-10.863-8.378-11.943-9.599-19.598-22.097-5.54-9.047-10.634-15.143-21.488-25.712-3.257-3.172-6.63-6.61-7.496-7.642-3.16-3.77-5.703-7.323-7.655-10.577zm0 22.823v1.985c10.063 15.031 11.835 21.148 10.975 35.712-.556 9.43.127 11.82 5.428 19.006 4.082 5.531 5.315 8.98 5.662 15.818.156 3.08.46 8.679.675 12.443.496 8.7-.101 13.638-2.025 16.77-2.238 3.642-5.01 5.882-17.507 13.806l.832.478c4.251-2.712 9.117-5.789 10.7-6.924 7.911-5.679 10.004-11.113 8.992-23.344-.175-2.11-.41-6.739-.524-10.29-.326-10.136-1.218-12.958-6.26-19.815-4.875-6.63-5.605-9.488-4.984-19.49.212-3.412.255-7.607.096-9.322-.592-6.382-4.159-15.325-8.69-21.783-1.342-1.913-2.202-3.323-3.37-5.05zm421.286 46.123c-2.243 1.332-5.771 3.877-8.253 6.154-1.962 1.8-4.347 4.51-5.298 6.02-2.135 3.393-3.531 9.294-2.987 12.63.658 4.04 3.407 7.99 7.416 10.653 1.283.853 2.55 1.575 2.815 1.605 1.12.126.472-.65-1.476-1.767-6.81-3.905-9.78-12.295-6.791-19.168 2.28-5.242 8.278-11.465 14.574-15.13zM131.274 356.3c-4.183-.471-9.07 1.248-11.07 3.897-4.457 5.901-.166 12.48 8.798 13.487 6.112.686 9.615-1.31 11.124-6.331 1.096-3.646.465-6.033-2.164-8.19-2.083-1.709-4.1-2.571-6.688-2.863zm-1.998.665c.773 0 1.584.072 2.5.226 5.531.932 8.72 4.837 7.715 9.444-.993 4.548-5.117 7.104-10.49 6.5-3.918-.442-6.974-2.309-8.473-5.179-.616-1.18-1.132-2.645-1.151-3.253-.083-2.936 3.702-6.65 7.629-7.486a10.877 10.877 0 0 1 2.27-.25zm331.391 29.563c-2.336-.038-5.232.117-7.39.492-6.888 1.195-13.56 4.99-15.844 9.011-2.23 3.928-.763 8.888 3.679 12.437.805.644 1.63 1.187 2.469 1.707l.808-.465c-2.848-1.795-5.768-4.86-6.59-7.066-2.808-7.539 8.57-15.518 22.148-15.518 1.766 0 3.538.12 3.934.266.396.147.762.064.813-.183.086-.408-1.69-.641-4.027-.68zm-311.08 1.824c-2.61.104-4.817.458-6.734 1.071-1.296.415-5.447 2.178-9.223 3.915-7.986 3.674-11.932 4.8-25.77 7.355-12.21 2.255-18.552 3.999-25.237 6.88l.928.534c1.652-.687 3.285-1.386 5.06-1.98 6.503-2.177 10.245-3.07 22.17-5.285 12.49-2.32 15.466-3.209 24.542-7.336 4.777-2.173 8.744-3.674 10.661-4.035 8.603-1.62 19.512-.032 28.735 4.184 2.036.93 6.528 3.446 9.98 5.587 6.572 4.076 12.033 6.682 16.54 7.897 1.47.397 7.357 1.503 13.08 2.456 12.132 2.02 14.912 2.675 28.317 6.662 5.493 1.633 13.65 3.878 18.13 4.989 14.85 3.683 16.789 4.554 25.269 11.387 6.557 5.284 8.568 6.196 14.556 6.598 2.685.18 5.39.046 8.511-.423 16.457-2.47 20.445-2.686 28.03-1.526 10.08 1.542 17.696 5.419 22.195 11.297 1.923 2.513 2.888 5.41 3.012 8.5l.943-.544c-.03-.615-.03-1.245-.14-1.818-.774-4.002-2.377-6.594-6.08-9.833-5.475-4.788-12.022-7.32-21.764-8.407-7.055-.79-11.178-.627-20.558.805-17.166 2.62-19.002 2.26-28.466-5.582-7.261-6.017-10.039-7.271-23.484-10.598-4.596-1.136-13.239-3.512-19.208-5.279-13.339-3.947-18.05-5.05-29.018-6.788-14.579-2.311-17.903-3.487-28.889-10.226-11.298-6.931-16.4-8.83-26.934-10.016-3.53-.397-6.545-.545-9.155-.441zM108.81 414.6c-4.034.074-7.83.63-11.364 1.53l.963.556c3.476-.877 7.155-1.451 10.438-1.502 4.38-.068 12.253.88 18.275 2.201 8.461 1.857 12.95 2.204 20.645 1.595 8.412-.666 11.308-.359 21.975 2.32 7.345 1.846 9.631 2.241 23.38 4.062 15.58 2.064 17.66 2.491 22.124 4.532 2.609 1.194 6.119 4.129 7.193 6.016 1.056 1.855 1.989 5.753 2.424 10.127.542 5.457 1.124 7.792 2.62 10.524 2.367 4.317 7.024 7.47 14.402 9.747 1.754.54 7.075 1.544 12.507 2.358 5.2.779 11.367 1.817 13.702 2.307 16.675 3.497 28.628 12.642 26.996 20.656-.444 2.18-2.437 4.79-5.372 7.379l3.402-1.967c2.119-2.8 3.363-7.228 2.597-9.82-1.127-3.814-4.25-7.178-9.56-10.294-7.295-4.28-13.487-6.087-28.209-8.238-5.843-.854-12.131-1.977-13.973-2.495-11.434-3.215-16.35-7.984-17.674-17.15-1.365-9.452-1.61-10.66-2.594-12.683-1.295-2.66-4.475-5.582-7.55-6.94-4.795-2.117-7.713-2.708-24.045-4.885-14.27-1.902-16.411-2.275-21.958-3.804-8.908-2.455-15.186-3.119-22.895-2.427-8.112.728-9.826.61-18.955-1.297-9.411-1.966-13.853-2.513-19.494-2.408zm76.734 41.307c-1.678.05-3.667.997-8.551 3.732-.65.364-1.473.752-2.217 1.137l.859.495c1.544-.797 2.682-1.305 4.713-2.422 6.193-3.407 7.68-3.012 11.966 3.185 3.145 4.545 8.522 9.25 14.338 12.54 2.27 1.285 8.42 4.318 13.663 6.741 13.32 6.157 16.925 9.003 14.548 11.483-.514.537-1.302.962-2.324 1.327l.91.526c1.783-.696 2.844-1.628 3.104-2.865.569-2.692-3.403-5.514-15.69-11.148-16.038-7.354-23.094-12.195-27.382-18.788-2.401-3.692-3.989-5.144-6.268-5.728-.585-.149-1.11-.232-1.669-.215z" style="display:inline;mix-blend-mode:normal;fill:#929292;fill-opacity:1;stroke:none;stroke-width:3.6726;stroke-dasharray:none;stroke-opacity:.490196"/><path id="circle3001-3" d="M265.355 0C118.804 0 .001 118.804 0 265.355c0 146.552 118.803 265.357 265.355 265.357 146.553 0 265.357-118.804 265.357-265.357C530.712 118.803 411.907 0 265.355 0Zm0 58.943c118.056 0 206.415 88.357 206.415 206.412 0 118.057-88.358 206.415-206.415 206.415-118.055 0-206.413-88.359-206.412-206.415 0-118.055 88.357-206.412 206.412-206.412Zm0 14.767zm0 0zm31.95 3.019zm-63.906 0zm88.857 5.989zm-113.813.005zm136.916 8.861zm-160.016.006zm-21.51 11.604zm203.058.008zm-222.81 14.154zm242.566.012zm17.744 16.489zm-278.075.005zm-15.498 18.562zm309.08.004zm13.036 20.362zm-335.158.005zm-10.357 21.812zm355.877.004zm7.534 22.945zm-370.95.002zm-4.59 23.701zm-1.58 24.093zm381.712-24.092zm1.58 24.093zm-.359 11.065zm-.736 9.005zm-1.097 8.575zm-378.081 3.304zm376.629 5.073zm-1.823 8.31zm-2.167 8.139zm-366.65 3.43zm364.128 4.614zm-2.876 7.936zm-4.159 9.796zm-348.227.757zm344.166 7.622zm-4.18 7.694zm-328.367 6.216zm323.965 1.086zm-4.69 7.054zm-4.977 6.817zm-300.133 4.8zm294.866 1.785zm-5.555 6.354zm-5.809 6.083zm-267.012 3.52zm258.843 4.13zm-6.788 5.76zm-6.846 5.296zm-226.637.322zm219.649 4.597zm-7.13 4.563zm-192.157 3.875zm184.843.365zm-7.454 3.893zm-7.638 3.574zm-147.93 2.53zm138.127 1.432zm-8.815 3.063zm-8.383 2.482zm-97.984.558zm89.666 1.505zm-8.292 1.67zm-8.378 1.307zm-49.291.11zm24.092 1.58zm16.837-.76z" style="display:inline;fill:url(#linearGradient1526);fill-opacity:1;fill-rule:nonzero;stroke-width:14.742"/><g id="text11952-1" aria-label="Paris × 2026" style="font-size:40.96px;line-height:1.25;font-family:Courgette;-inkscape-font-specification:&quot;Courgette, Normal&quot;;text-align:center;letter-spacing:3.2px;word-spacing:3.2px;text-anchor:middle;white-space:pre;fill:#f6f5f4;stroke-width:.64;stroke-linecap:round;stroke-linejoin:round;stroke-miterlimit:3.1;stop-color:#000" transform="matrix(1.14769 0 0 1.14769 -38.92 -38.995)"><path id="path357" d="m127.586 403.98-7.834 8.392 4.196 3.917q.862.806 1.923 1.194 1.074.373 2.177.335 1.102-.038 2.133-.497 1.06-.461 1.865-1.324.805-.863 1.179-1.937.402-1.075.364-2.177-.038-1.103-.498-2.134-.446-1.046-1.309-1.851zm-15.654 16.77-4.196-3.918 19.571-20.964 8.392 7.834q1.155 1.078 1.936 2.382.794 1.288 1.196 2.704.43 1.414.468 2.899.065 1.483-.268 2.924-.318 1.454-1.022 2.794-.689 1.354-1.767 2.51-1.61 1.724-3.702 2.645-2.077.906-4.282.982-2.205.076-4.354-.7-2.134-.76-3.86-2.371l-4.195-3.917z" style="font-family:Righteous;-inkscape-font-specification:&quot;Righteous, Normal&quot;;baseline-shift:baseline"/><path id="path359" d="m146.121 448.236-1.074-.767-.017-3.624q-1.042.116-2.118.11-1.049-.012-2.097-.195-1.037-.2-2.019-.581-.965-.37-1.811-.974-1.84-1.313-3.025-3.094-1.17-1.769-1.554-3.812-.357-2.048.164-4.257.52-2.209 2.077-4.39 1.453-2.035 3.361-3.228 1.92-1.21 3.997-1.57 2.092-.35 4.18.134 2.116.478 3.955 1.791.846.605 1.526 1.409.679.804 1.193 1.736.514.933.853 1.937.356 1.016.556 2.043l3.202-.835 1.074.767zm1.857-12.067q.651-.911.897-2.013.274-1.107.137-2.188-.126-1.097-.66-2.069-.508-.976-1.42-1.627-.91-.65-1.946-.923-1.018-.26-2.05-.088-1.016.184-1.997.836-.97.634-1.783 1.774-.813 1.14-1.11 2.279-.287 1.123-.13 2.143.172 1.032.749 1.911.593.89 1.504 1.541.912.651 1.988.83 1.105.174 2.172-.047 1.078-.238 2.025-.84.974-.607 1.624-1.519z" style="font-family:Righteous;-inkscape-font-specification:&quot;Righteous, Normal&quot;;baseline-shift:baseline"/><path id="path361" d="m157.23 454.666-4.765-2.665 10.457-18.694 1.152.644.331 3.096q1.738-.403 3.517-.141 1.788.244 3.359 1.123l4.206 2.353-2.655 4.748-4.207-2.354q-.75-.42-1.57-.511-.82-.092-1.582.123-.762.216-1.412.723-.65.507-1.07 1.257z" style="font-family:Righteous;-inkscape-font-specification:&quot;Righteous, Normal&quot;;baseline-shift:baseline"/><path id="path363" d="M187.565 439.481q-.32.69-.87 1.162-.531.48-1.195.724-.656.225-1.4.21-.716-.023-1.405-.344-.69-.32-1.188-.86-.473-.55-.724-1.196-.225-.655-.22-1.38.025-.717.345-1.406.311-.671.843-1.152.559-.49 1.196-.724.664-.243 1.38-.219.744.014 1.433.334.69.32 1.162.87.499.54.742 1.205.251.646.219 1.38-.006.725-.318 1.396zm-12.322 24.312-4.988-2.316 9.019-19.428 4.988 2.316z" style="font-family:Righteous;-inkscape-font-specification:&quot;Righteous, Normal&quot;;baseline-shift:baseline"/><path id="path365" d="m193.006 470.857-11.73-4.264 1.86-5.113 11.728 4.265q.527.191 1.04-.048.512-.24.703-.766.199-.545-.116-.85-.314-.306-.84-.498l-5.339-1.94q-1.334-.486-2.315-1.417-.98-.931-1.531-2.11-.544-1.198-.627-2.548-.065-1.343.42-2.678.485-1.334 1.397-2.322.932-.98 2.11-1.53 1.18-.551 2.523-.616 1.35-.084 2.684.401l10.394 3.78-1.858 5.112-10.395-3.78q-.526-.19-1.039.049-.512.239-.704.765-.198.545.035 1.077.239.512.765.704l5.338 1.94q1.316.479 2.317 1.354 1.009.856 1.586 1.96.578 1.103.682 2.397.104 1.293-.374 2.61-.485 1.334-1.417 2.315-.924.962-2.11 1.53-1.179.55-2.529.635-1.343.065-2.658-.414z" style="font-family:Righteous;-inkscape-font-specification:&quot;Righteous, Normal&quot;;baseline-shift:baseline"/><path id="path367" d="m261.94 476.195-3.868-3.831 3.851-3.87-4.029-4.01 3.851-3.849 4.01 3.991 4.17-4.17 3.869 3.872-4.17 4.15 4.028 4.01-3.85 3.849-4.03-3.99z" style="font-family:Righteous;-inkscape-font-specification:&quot;Righteous, Normal&quot;;baseline-shift:baseline"/><path id="path369" d="M344.962 446.747q.623 1.667.54 3.385-.09 1.7-.783 3.218-.68 1.493-1.903 2.676-1.223 1.183-2.89 1.807l-2.698 1.008q-.562.21-.972.598-.41.389-.645.903-.223.49-.247 1.053-.024.565.187 1.127l1.001 2.678 12.702-4.748 2.01 5.376-18.078 6.76-3.012-8.056q-.623-1.667-.533-3.367.084-1.718.764-3.21.692-1.52 1.922-2.684 1.223-1.183 2.89-1.806l2.698-1.009q.562-.21.972-.598.41-.388.633-.877.235-.515.259-1.08.017-.582-.193-1.144-.21-.562-.599-.972-.388-.41-.896-.626-.496-.242-1.06-.266-.564-.024-1.126.187l-9.591 3.586-2.01-5.377 9.59-3.586q1.668-.623 3.368-.533 1.699.09 3.199.79 1.511.673 2.694 1.896 1.184 1.223 1.807 2.89z" style="font-family:Righteous;-inkscape-font-specification:&quot;Righteous, Normal&quot;;baseline-shift:baseline"/><path id="path371" d="M366.665 442.147q-2.233-4.227-4.731-5.53-2.481-1.314-4.992.013-2.494 1.317-2.799 4.08-.304 2.762 1.947 7.024 2.233 4.226 4.696 5.549 2.463 1.322 4.957.005 1.255-.664 1.984-1.682.72-1.036.85-2.417.147-1.39-.321-3.133-.46-1.77-1.591-3.91zm4.828-2.551q1.906 3.607 2.427 6.521.522 2.914-.045 5.181-.566 2.268-2.059 3.938-1.484 1.644-3.588 2.756-2.104 1.112-4.325 1.403-2.213.264-4.405-.546-2.184-.836-4.288-2.892-2.113-2.072-4-5.645-1.906-3.607-2.419-6.503-.521-2.914.028-5.172.566-2.267 2.04-3.928 1.493-1.671 3.597-2.783 2.105-1.112 4.318-1.376 2.22-.291 4.422.536 2.202.827 4.306 2.883 2.103 2.055 3.99 5.627z" style="font-family:Righteous;-inkscape-font-specification:&quot;Righteous, Normal&quot;;baseline-shift:baseline"/><path id="path373" d="M388.667 420.726q1.025 1.455 1.38 3.138.342 1.667.058 3.311-.28 1.616-1.164 3.071-.883 1.455-2.338 2.48l-2.354 1.659q-.49.346-.789.825-.298.48-.395 1.037-.091.53.028 1.081.12.552.466 1.042l1.647 2.338 11.084-7.811 3.307 4.691-15.776 11.119-4.954-7.03q-1.026-1.455-1.368-3.122-.355-1.683-.075-3.3.285-1.644 1.18-3.082.883-1.454 2.338-2.48l2.354-1.659q.49-.346.789-.825.298-.48.39-1.009.097-.557-.023-1.109-.131-.568-.477-1.059-.346-.49-.825-.788-.48-.299-1.025-.379-.541-.108-1.093.012-.552.12-1.042.465l-8.37 5.9-3.307-4.693 8.37-5.899q1.455-1.025 3.122-1.368 1.667-.343 3.295-.046 1.632.268 3.087 1.151 1.454.884 2.48 2.339z" style="font-family:Righteous;-inkscape-font-specification:&quot;Righteous, Normal&quot;;baseline-shift:baseline"/><path id="path375" d="M414.553 410.468q1.563 1.715 2.33 3.803.78 2.075.752 4.212-.042 2.121-.929 4.147-.872 2.012-2.601 3.588-1.73 1.577-3.873 2.312-2.13.723-4.305.622-2.189-.116-4.242-1.033-2.038-.93-3.6-2.644-1.86-2.04-3.225-4.34-1.379-2.316-2.186-4.746-.82-2.445-1.046-4.919-.225-2.473.183-4.847l5.72-5.213q-.36 1.384-.557 2.862-.196 1.477-.224 2.99-.013 1.5.159 2.995.17 1.495.557 2.929.245-1.008.715-1.978.471-.997 1.255-1.711 1.788-1.63 3.775-2.33 1.987-.73 3.976-.566 1.975.148 3.869 1.128 1.894.98 3.497 2.739zm-4.243 3.866q-.768-.843-1.722-1.326-.953-.511-1.968-.615-1.028-.118-2.033.203-1.006.321-1.879 1.116-.872.795-1.285 1.767-.413.972-.39 2.006.024 1.006.444 2.003.408.981 1.176 1.824.74.813 1.694 1.325.954.483 1.982.601 1.028.119 2.033-.174 1.02-.307 1.877-1.088.872-.795 1.285-1.767.413-.972.404-1.991-.023-1.035-.444-2.031-.406-1.01-1.174-1.853z" style="font-family:Righteous;-inkscape-font-specification:&quot;Righteous, Normal&quot;;baseline-shift:baseline"/></g><g id="text11952" aria-label="State Of The Map" style="font-size:36.9517px;line-height:1.25;font-family:Courgette;-inkscape-font-specification:&quot;Courgette, Normal&quot;;text-align:center;letter-spacing:3.2px;word-spacing:5.77371px;text-anchor:middle;white-space:pre;fill:#f6f5f4;stroke-width:.64;stroke-linecap:round;stroke-linejoin:round;stroke-miterlimit:3.1;stop-color:#000" transform="rotate(-1.112 -1906.03 3813.503) scale(1.27218)"><path id="path378" d="M93.891 148.231q-1.308-.931-2.098-2.247-.79-1.317-1.035-2.776-.25-1.485.067-2.987t1.248-2.81l6.888-9.67 4.218 3.004-6.888 9.67q-.314.441-.424.938-.111.498-.026 1 .08.479.347.913.267.434.708.748.44.314.952.435.498.11.99.04.49-.095.923-.362.434-.267.748-.708l3.004-4.217q.932-1.308 2.248-2.099 1.312-.815 2.786-1.05 1.47-.26 2.976.082 1.503.317 2.81 1.249 1.308.931 2.099 2.248.8 1.301 1.05 2.786.245 1.46-.082 2.976-.317 1.502-1.249 2.81l-6.668 9.361-4.217-3.004 6.668-9.361q.314-.441.424-.938.11-.497.03-.976-.084-.503-.351-.937-.267-.433-.708-.748-.44-.314-.938-.424-.497-.11-.986-.016-.493.07-.926.337-.434.267-.748.708l-3.004 4.218q-.932 1.308-2.248 2.098-1.316.79-2.786 1.05-1.475.235-2.977-.082-1.517-.327-2.825-1.259z" style="font-family:Righteous;-inkscape-font-specification:&quot;Righteous, Normal&quot;"/><path id="path380" d="M130.937 130.352q-1.197 1.326-2.745 2.043-1.56.705-3.23.802-1.67.072-3.294-.472-1.612-.557-2.937-1.754l-4.257-3.847-1.61 1.78-3.64-3.29 1.608-1.78-5.73-5.177 3.29-3.641 5.73 5.177 5.008-5.543 3.641 3.29-5.007 5.543 4.257 3.846q.576.52 1.278.766.689.233 1.402.197.714-.036 1.401-.34.674-.314 1.194-.89l2.504-2.771 3.641 3.29z" style="font-family:Righteous;-inkscape-font-specification:&quot;Righteous, Normal&quot;"/><path id="path382" d="m151.69 110.974-.897.784-3.186-.737q-.114.939-.343 1.883-.228.918-.606 1.8-.39.87-.929 1.652-.525.77-1.23 1.388-1.535 1.342-3.345 2.014-1.796.66-3.67.573-1.872-.112-3.703-1.027-1.831-.915-3.423-2.735-1.485-1.697-2.136-3.62-.664-1.937-.55-3.835.128-1.91.985-3.642.86-1.758 2.394-3.1.706-.619 1.553-1.048.847-.43 1.772-.687.925-.258 1.877-.348.966-.101 1.91-.064l-.07-2.984.897-.784zm-10.21-4.134q-.665-.76-1.582-1.205-.914-.47-1.892-.574-.99-.118-1.954.15-.962.243-1.723.908-.76.666-1.213 1.518-.44.84-.503 1.782-.05.93.319 1.926.356.983 1.188 1.934.831.95 1.77 1.448.927.484 1.855.558.942.063 1.833-.26.905-.337 1.665-1.002t1.141-1.573q.382-.934.41-1.917.015-.996-.318-1.951-.33-.982-.996-1.742z" style="font-family:Righteous;-inkscape-font-specification:&quot;Righteous, Normal&quot;"/><path id="path384" d="M165.31 101.387q-1.475 1.008-3.148 1.342-1.683.32-3.328.023-1.64-.322-3.091-1.232-1.437-.92-2.444-2.394l-3.237-4.738-1.981 1.353-2.768-4.052 1.981-1.354-4.355-6.376 4.052-2.769 4.356 6.377 6.168-4.213 2.768 4.052-6.168 4.214 3.236 4.737q.438.641 1.063 1.044.615.389 1.317.521t1.441-.001q.73-.148 1.37-.586l3.084-2.107 2.768 4.053z" style="font-family:Righteous;-inkscape-font-specification:&quot;Righteous, Normal&quot;"/><path id="path386" d="M178.076 88.392q.298-.055.57-.158.263-.12.519-.254.638-.337 1.135-.825.498-.487.84-1.076.349-.613.503-1.286.162-.698.114-1.407l4.885 1.52q-.151 1.182-.586 2.29-.42 1.098-1.092 2.066-.656.959-1.55 1.738-.87.786-1.94 1.35-1.802.953-3.752 1.126-1.933.165-3.762-.4-1.812-.572-3.367-1.852-1.562-1.297-2.608-3.275-1.07-2.026-1.27-4.063-.199-2.038.358-3.842.573-1.813 1.806-3.302 1.25-1.497 3.053-2.45 1.068-.564 2.224-.848 1.156-.285 2.318-.287 1.178-.01 2.347.27 1.16.265 2.221.806zm-2.513-10.162q-.362.049-.682.177-.304.12-.623.289-.893.472-1.514 1.228-.613.732-.883 1.65-.254.91-.133 1.949.111 1.022.676 2.09.127.24.303.535.192.286.408.58.224.27.456.514.231.245.477.401z" style="font-family:Righteous;-inkscape-font-specification:&quot;Righteous, Normal&quot;"/><path id="path390" d="m246.58 72.074-4.889.596-1.743-14.31-2.382.29-.593-4.872 2.382-.29-.111-.914q-.216-1.773.257-3.412.49-1.64 1.515-2.929 1.04-1.308 2.518-2.16 1.475-.871 3.248-1.087l3.672-.447.593 4.872-3.671.447q-.788.096-1.434.465-.63.35-1.07.912-.425.543-.629 1.258-.206.698-.11 1.486l.112.913 6-.73.593 4.871-6 .73z" style="font-family:Righteous;-inkscape-font-specification:&quot;Righteous, Normal&quot;"/><path id="path394" d="m309.194 76.745-4.756-1.283 7.033-26.078 4.756 1.282-2.222 8.24q1.027-.414 2.003-.431.981-.034 1.922.22 1.725.464 3.062 1.535 1.342 1.053 2.146 2.504.827 1.437 1.059 3.144.253 1.694-.212 3.419l-2.876 10.661-4.79-1.292 2.875-10.66.035.008q.197-.731.092-1.45-.1-.738-.456-1.357-.356-.62-.926-1.072-.57-.453-1.3-.65-.75-.202-1.487-.102-.737.1-1.357.457-.619.356-1.076.943-.453.569-.65 1.3z" style="font-family:Righteous;-inkscape-font-specification:&quot;Righteous, Normal&quot;"/><path id="path396" d="M336.36 80.746q.232.194.485.338.26.127.526.237.667.275 1.36.347.693.071 1.364-.042.695-.122 1.312-.434.64-.32 1.155-.81l1.95 4.729q-1.005.639-2.136 1.011-1.113.38-2.287.48-1.157.108-2.328-.083-1.16-.167-2.278-.63-1.884-.778-3.262-2.167-1.362-1.383-2.095-3.15-.718-1.76-.725-3.774 0-2.031.854-4.099.875-2.117 2.316-3.572 1.44-1.455 3.184-2.179 1.76-.717 3.694-.719 1.95.006 3.834.784 1.117.462 2.074 1.17.957.708 1.701 1.6.76.9 1.291 1.979.538 1.061.8 2.224zm6.213-8.423q-.269-.248-.572-.412-.286-.157-.62-.295-.933-.386-1.912-.38-.955-.005-1.834.374-.862.386-1.584 1.142-.715.739-1.177 1.856-.103.25-.218.574-.097.33-.185.685-.064.344-.105.679-.04.334-.004.623z" style="font-family:Righteous;-inkscape-font-specification:&quot;Righteous, Normal&quot;"/><path id="path398" d="m385.964 116.452-4.116-3.112 11.142-14.738q.326-.432.437-.936.124-.494.043-.985-.056-.495-.31-.936-.255-.441-.687-.768-.431-.326-.925-.45-.494-.125-1-.055-.48.067-.921.321-.441.255-.768.686l-11.142 14.738-4.13-3.122 11.142-14.738q.326-.432.45-.926.125-.494.044-.985-.056-.495-.31-.936-.255-.441-.687-.768-.431-.326-.925-.45-.494-.125-1-.055-.48.067-.921.321-.441.255-.768.687l-11.142 14.738-4.13-3.123 11.142-14.738q.968-1.281 2.292-2.045 1.349-.767 2.815-.97 1.49-.208 2.972.166 1.507.37 2.788 1.339 1.152.87 1.901 2.093.76 1.208 1.022 2.627 1.437-.135 2.792.256 1.38.388 2.532 1.259 1.281.968 2.034 2.306.778 1.335.97 2.815.219 1.477-.166 2.973-.36 1.492-1.328 2.773z" style="font-family:Righteous;-inkscape-font-specification:&quot;Righteous, Normal&quot;"/><path id="path400" d="m404.105 134.84-.828-.857.578-3.218q-.943-.067-1.897-.25-.928-.181-1.829-.515-.887-.347-1.695-.846-.796-.486-1.448-1.16-1.417-1.466-2.178-3.24-.748-1.76-.754-3.637.019-1.875.842-3.75.823-1.874 2.561-3.554 1.622-1.568 3.51-2.314 1.902-.759 3.803-.74 1.913.033 3.686.804 1.8.77 3.216 2.236.652.675 1.123 1.5.47.824.774 1.735.304.911.44 1.858.15.96.16 1.904l2.977-.217.827.856zm3.622-10.402q.726-.702 1.125-1.64.424-.937.48-1.918.067-.995-.248-1.944-.29-.95-.993-1.676-.702-.726-1.575-1.137-.861-.397-1.805-.413-.932-.003-1.908.414-.964.404-1.872 1.282-.909.878-1.359 1.84-.437.95-.466 1.88-.016.945.352 1.819.38.886 1.083 1.613.702.727 1.628 1.061.951.335 1.934.314.996-.034 1.934-.414.963-.379 1.69-1.081z" style="font-family:Righteous;-inkscape-font-specification:&quot;Righteous, Normal&quot;"/><path id="path402" d="m405.631 148.528-2.946-3.992 21.474-15.843.707.958-.706 2.964q.905.163 1.826.47.922.306 1.745.753.848.45 1.583 1.052.735.6 1.292 1.356 1.21 1.64 1.676 3.517.49 1.88.208 3.747-.27 1.882-1.335 3.631-1.049 1.738-2.893 3.099-1.916 1.414-3.916 1.925-1.985.5-3.863.204-1.852-.292-3.49-1.326-1.627-1.02-2.837-2.66-.386-.523-.655-1.132-.259-.593-.445-1.24-.161-.645-.278-1.32-.107-.661-.178-1.304zm19.696-2.266q.987-.729 1.536-1.627.559-.883.7-1.816.155-.945-.09-1.885-.245-.94-.845-1.753t-1.426-1.325q-.815-.497-1.763-.627-.934-.141-1.954.118-1.009.273-1.996 1.002-.944.696-1.503 1.58-.548.897-.703 1.842-.156.944.064 1.88.23.951.83 1.764.6.813 1.441 1.314.84.501 1.789.631.948.13 1.957-.143 1.02-.26 1.963-.955z" style="font-family:Righteous;-inkscape-font-specification:&quot;Righteous, Normal&quot;"/><path id="path337" d="M294.441 73.198q-1.755-.33-3.174-1.277-1.416-.965-2.37-2.337-.932-1.388-1.315-3.057-.365-1.666-.035-3.422l1.062-5.638-2.358-.444.908-4.823 2.358.444 1.43-7.59 4.822.91-1.429 7.588 7.34 1.382-.907 4.823-7.341-1.382-1.062 5.638q-.144.763.013 1.49.16.71.563 1.3.403.59 1.02 1.018.62.41 1.383.554l3.67.691-.908 4.823z" style="font-family:Righteous;-inkscape-font-specification:&quot;Righteous, Normal&quot;;fill:#fff"/><path id="path447" d="M234.45 63.823q.281 2.158-.248 4.13-.532 1.953-1.685 3.494-1.155 1.522-2.85 2.548-1.68 1.005-3.731 1.273-2.032.265-3.932-.274-1.884-.56-3.409-1.733-1.509-1.193-2.524-2.945-1.017-1.77-1.298-3.928-.286-2.195.243-4.166.53-1.971 1.685-3.494 1.17-1.543 2.85-2.548 1.698-1.008 3.731-1.273 2.05-.267 3.927.238 1.893.485 3.4 1.66 1.504 1.158 2.524 2.946 1.017 1.77 1.317 4.072zm-4.946.645q-.155-1.188-.675-2.09-.504-.921-1.259-1.518-.757-.615-1.703-.857-.93-.263-1.938-.132-1.007.132-1.857.627-.835.474-1.409 1.262-.558.768-.81 1.789-.253 1.002-.098 2.19.145 1.115.647 2.019.502.904 1.241 1.52.757.615 1.692.914.951.279 1.959.147 1.007-.13 1.839-.623.85-.495 1.426-1.266.577-.77.828-1.79.27-1.023.117-2.192z" style="font-size:53.3333px;font-family:Righteous;-inkscape-font-specification:&quot;Righteous, Normal&quot;;fill:#fff;stroke-width:13.1626"/></g><g id="g2917" transform="matrix(.77363 0 0 .77363 80.274 -271.03)"><path id="path16380" d="M340.87 774.563a229.567 229.567 0 0 0-20.176 20.564l70.382 50.044z" style="display:inline;fill:#ce0c15;fill-opacity:1;stroke:#520509;stroke-width:3.27646;stroke-linecap:square;stroke-linejoin:round;stroke-miterlimit:3.1;stroke-dasharray:none;stroke-opacity:1;paint-order:markers fill stroke"/><path id="path16382" d="M137.607 774.558 87.4 845.17l70.386-50.047a229.526 229.526 0 0 0-20.179-20.566z" style="display:inline;fill:#ce0c15;fill-opacity:1;stroke:#520509;stroke-width:3.27646;stroke-linecap:square;stroke-linejoin:round;stroke-miterlimit:3.1;stroke-dasharray:none;stroke-opacity:1;paint-order:markers fill stroke"/><path id="path16384" d="m391.076 541.495-70.382 50.042a229.524 229.524 0 0 0 20.18 20.564z" style="display:inline;fill:#ce0c15;fill-opacity:1;stroke:#520509;stroke-width:3.27646;stroke-linecap:square;stroke-linejoin:round;stroke-miterlimit:3.1;stroke-dasharray:none;stroke-opacity:1;paint-order:markers fill stroke"/><path id="path16386" d="m87.4 541.495 50.207 70.613a229.45 229.45 0 0 0 20.181-20.567z" style="display:inline;fill:#ce0c15;fill-opacity:1;stroke:#520509;stroke-width:3.27646;stroke-linecap:square;stroke-linejoin:round;stroke-miterlimit:3.1;stroke-dasharray:none;stroke-opacity:1;paint-order:markers fill stroke"/><path id="path16390" d="m238.923 443.392-48.865 48.927 12.214 12.23 3.034 3.037-.314 8.016c-1.037 26.576-13.277 53.063-37.986 82.206-32.345 38.149-73.596 62.201-107.653 62.774l-4.95.084-4.023-4.03-12.214-12.23-48.869 48.927 48.869 48.927 12.214-12.23 4.023-4.03 4.95.083c34.057.573 75.308 24.626 107.653 62.775 24.709 29.143 36.949 55.63 37.986 82.206l.314 8.016-3.034 3.038-12.214 12.23 48.865 48.926 49.498-48.927-12.214-12.23-3.033-3.037.313-8.016c1.038-26.577 13.277-53.063 37.986-82.206 32.346-38.149 73.594-62.202 107.652-62.775l4.95-.083 4.025 4.03 12.214 12.23 48.866-48.927-48.866-48.927-12.214 12.23-4.025 4.03-4.95-.084c-34.058-.573-75.306-24.625-107.652-62.774-24.709-29.143-36.948-55.63-37.986-82.206l-.313-8.016 3.033-3.038 12.214-12.23z" style="color:#000;display:inline;fill:url(#linearGradient23180);fill-opacity:1;stroke-width:5.55733;stroke-linecap:square;stroke-linejoin:round;stroke-miterlimit:3.1;-inkscape-stroke:none;paint-order:markers fill stroke"/><path id="path16392" d="m238.923 443.391-48.866 48.927 12.216 12.23 3.033 3.037-.313 8.015c-1.038 26.577-13.278 53.064-37.986 82.207-32.346 38.149-73.597 62.201-107.654 62.774l-4.95.083-4.024-4.03-12.213-12.23-48.87 48.928h249.627z" style="color:#000;display:inline;fill:#000;fill-opacity:.350018;stroke:none;stroke-width:1.02249;stroke-linecap:square;stroke-linejoin:round;stroke-miterlimit:3.1;stroke-dasharray:none;stroke-opacity:1;paint-order:markers fill stroke"/><path id="path16394" d="M489.18 693.332H238.923v249.942l49.498-48.928-12.213-12.228-3.034-3.038.313-8.015c1.038-26.576 13.278-53.064 37.986-82.207 32.346-38.149 73.595-62.201 107.652-62.774l4.95-.085 4.024 4.03 12.215 12.23z" style="color:#000;display:inline;fill:#000;fill-opacity:.350018;stroke:none;stroke-width:1.02249;stroke-linecap:square;stroke-linejoin:round;stroke-miterlimit:3.1;stroke-dasharray:none;stroke-opacity:1;paint-order:markers fill stroke"/><path id="path16398" d="M232.588 722.963c-3.384-3.017-7.62-7.07-11.766-11.215-4.145-4.145-8.198-8.382-11.215-11.766v-13.3c3.017-3.385 7.07-7.622 11.215-11.767s8.382-8.198 11.766-11.215h13.301c3.384 3.017 7.621 7.07 11.766 11.215s8.198 8.382 11.215 11.766v13.301c-3.017 3.384-7.07 7.621-11.215 11.766s-8.382 8.198-11.766 11.215z" style="display:inline;fill:url(#linearGradient23188);fill-opacity:1;stroke:#520509;stroke-width:3.92636;stroke-linecap:square;stroke-linejoin:round;stroke-miterlimit:3.1;stroke-opacity:1;paint-order:markers fill stroke"/><path id="path16396" d="M1298.319 107.57c-.512 0-36.2-35.689-36.2-36.2 0-.513 35.688-36.201 36.2-36.201.512 0 36.2 35.688 36.2 36.2 0 .512-35.688 36.2-36.2 36.2z" style="display:inline;fill:none;stroke:#520509;stroke-width:2.55999;stroke-linecap:square;stroke-linejoin:round;stroke-miterlimit:3.1;paint-order:markers fill stroke" transform="translate(-3730.179 475.13) scale(3.05735)"/><path id="rect16402" d="M653.06 314.075h13.157v13.156H653.06Z" style="display:inline;opacity:.981594;fill:#520509;stroke-width:5.74411;stroke-linecap:square;stroke-linejoin:round;stroke-miterlimit:3.1;paint-order:markers fill stroke" transform="rotate(45)"/><path id="path16404" d="M240.876 441.415a2.779 2.779 0 0 0-3.918.015l-48.865 48.924a2.779 2.779 0 0 0 0 3.928l12.215 12.228 2.174 2.181-.267 6.803c-1.008 25.797-12.863 51.661-37.327 80.516-31.965 37.7-72.796 61.243-105.584 61.794l-3.768.063-3.19-3.194-12.215-12.231a2.779 2.779 0 0 0-3.931 0l-48.87 48.927a2.779 2.779 0 0 0 0 3.928l48.87 48.928a2.779 2.779 0 0 0 3.931 0l12.215-12.232 3.19-3.193 3.768.062c32.788.552 73.62 24.095 105.584 61.795 24.464 28.854 36.32 54.718 37.327 80.516l.267 6.802-2.174 2.181-12.215 12.229a2.779 2.779 0 0 0 0 3.928l48.865 48.924a2.779 2.779 0 0 0 3.918.014l49.5-48.927a2.779 2.779 0 0 0 .01-3.939l-12.214-12.228-2.174-2.181.267-6.803c1.007-25.797 12.862-51.662 37.327-80.516 31.964-37.7 72.792-61.243 105.58-61.794l3.772-.063 3.19 3.193 12.214 12.232a2.779 2.779 0 0 0 3.932 0l48.865-48.927a2.779 2.779 0 0 0 0-3.928l-48.865-48.928a2.779 2.779 0 0 0-3.932 0l-12.214 12.232-3.19 3.193-3.772-.063c-32.788-.551-73.616-24.095-105.58-61.794-24.465-28.855-36.32-54.719-37.327-80.516l-.267-6.803 2.174-2.18 12.214-12.229a2.779 2.779 0 0 0-.01-3.939zm-1.941 5.898 45.547 45.017-10.242 10.255-3.034 3.038a2.779 2.779 0 0 0-.807 2.073l.312 8.016c1.068 27.355 13.692 54.463 38.644 83.893 32.726 38.598 74.395 63.162 109.723 63.757l4.951.083a2.779 2.779 0 0 0 2.011-.815l4.025-4.032 10.249-10.26 44.94 44.997-44.94 44.992-10.249-10.259-4.025-4.032a2.779 2.779 0 0 0-2.01-.815l-4.952.083c-35.328.595-76.997 25.159-109.723 63.757-24.953 29.43-37.577 56.54-38.644 83.897l-.312 8.016a2.779 2.779 0 0 0 .807 2.07l3.034 3.037 10.242 10.255-45.547 45.017-44.948-45.006 10.252-10.266 3.034-3.038a2.779 2.779 0 0 0 .808-2.07l-.312-8.015c-1.068-27.357-13.692-54.466-38.644-83.897-32.727-38.598-74.4-63.162-109.727-63.757l-4.948-.083a2.779 2.779 0 0 0-2.014.815l-4.022 4.032-10.249 10.26-44.94-44.993 44.94-44.996 10.25 10.259 4.021 4.032a2.779 2.779 0 0 0 2.014.815l4.948-.083c35.328-.595 77-25.159 109.727-63.757 24.951-29.43 37.575-56.538 38.644-83.893v-.004l.312-8.013a2.779 2.779 0 0 0-.808-2.073l-3.034-3.037-10.252-10.266z" style="color:#000;display:inline;fill:#520509;stroke-width:1.77515;stroke-linecap:square;stroke-linejoin:round;stroke-miterlimit:3.1;-inkscape-stroke:none;paint-order:markers fill stroke"/></g></svg></svg><style>@media (prefers-color-scheme:light){:root{filter:none}}@media (prefers-color-scheme:dark){:root{filter:none}}</style></svg>