<?xml version="1.0" encoding="UTF-8"?>
<svg id="Calque_1" data-name="Calque 1" xmlns="http://www.w3.org/2000/svg" viewBox="0 0 72.98 73.17">
  <defs>
    <style>
      .cls-1 {
        fill: #fff;
      }

      .cls-2 {
        fill: #162e4a;
      }
    </style>
  </defs>
  <g id="LOGO_SIGLE_BLUE_WEB">
    <path id="path10" class="cls-2" d="M14.33,0C6.45,0,0,6.45,0,14.33v58.84h72.98V0H14.33Z"/>
    <path id="path12" class="cls-1" d="M22.09,27.73l.02.02-3.35-3.35c-.46,3.45.06,6.96,1.5,10.12.11-2.12.75-4.44,1.83-6.79ZM27.92,19.27l.03.03-4.68-4.68c-1.9,2.11-3.28,4.64-4.02,7.38l3.83,3.83-.02-.02c1.26-2.25,2.9-4.48,4.86-6.55ZM32.12,46.66c-3.63-.88-6.95-2.75-9.59-5.39-5.13-5.13-6.95-12.33-5.46-18.93-.01-.2.04-.39.14-.56.9-3.53,2.74-6.75,5.32-9.33,7.71-7.71,20.08-7.95,28.08-.71l-1.49,1.49c-2.22-1.45-5.8-1.33-9.75.3l4.72,4.72-1.44,1.44-5.24-5.25c-2.2,1.16-4.46,2.76-6.63,4.8l6.16,6.16-1.44,1.44-6.16-6.15c-2.05,2.16-3.65,4.41-4.81,6.6l5.26,5.26-1.44,1.44-4.74-4.75c-4.97,11.74,5.37,16.14,8.5,17.41ZM29.38,17.87l-.03-.03.03.03ZM35.93,12.98l.02.02-3.84-3.84c-2.75.75-5.28,2.13-7.4,4.03l4.65,4.65c2.07-1.95,4.31-3.6,6.58-4.85ZM44.64,10.2c-3.17-1.46-6.68-1.99-10.14-1.52l3.36,3.36h-.02c2.35-1.09,4.68-1.72,6.8-1.83ZM56.41,7.39h-9.03c1.9,1.03,3.65,2.32,5.18,3.85l3.85-3.85Z"/>
    <g id="g26">
      <path id="path14" class="cls-1" d="M17.47,46.33h9.03c-1.9-1.03-3.65-2.32-5.17-3.85-2.22,2.22-3.85,3.85-3.85,3.85ZM39.4,45.04h0s-3.34-3.34-3.34-3.34c-2.07.95-4.12,1.55-6.02,1.76,1.04.58,4.55,2.18,9.37,1.58ZM49.18,40.53l-4.65-4.65c-2.07,1.95-4.31,3.59-6.57,4.85l3.81,3.81.02.02c2.74-.75,5.27-2.13,7.39-4.03ZM54.64,31.69l-.02-.02-3.79-3.79c-1.26,2.25-2.91,4.5-4.86,6.57l4.65,4.65c1.9-2.12,3.28-4.65,4.03-7.4ZM53.62,19.2c-.11,2.12-.74,4.43-1.82,6.78l3.31,3.31h.01c.46-3.43-.06-6.93-1.51-10.09Z"/>
      <g id="g18">
        <path id="path16" class="cls-1" d="M27.12,41.36c2.06.35,4.65-.05,7.41-1.19l-.03-.03-4.7-4.7-4.17,4.17c.43.64.93,1.23,1.49,1.75ZM50.56,14.68l-5.03,5.03,4.71,4.71.03.03c1.65-3.96,1.75-7.54.29-9.77ZM49.35,26.4l-.03-.03-5.22-5.22-5.72,5.71,6.14,6.15h0c2.05-2.16,3.66-4.42,4.81-6.61ZM43.1,34.45h0s-6.15-6.16-6.15-6.16l-5.71,5.71,5.22,5.22.03.03c2.2-1.16,4.45-2.76,6.61-4.79Z"/>
      </g>
      <g id="g22">
        <path id="path20" class="cls-1" d="M15.34,65.51c-3.03.01-5.5-2.43-5.51-5.46,0-.02,0-.03,0-.05,0-2.92,2.45-5.36,5.51-5.36,1.61,0,3.13.69,4.18,1.91h1.69c-1.21-1.93-3.38-3.27-5.86-3.27-3.8,0-6.92,3.08-6.92,6.72s3.12,6.87,6.92,6.87c2.42,0,4.66-1.27,5.9-3.34h-1.69c-.98,1.22-2.51,1.98-4.21,1.98ZM31.81,57.55c0-2.47-1.71-4.12-4.23-4.12h-4.34v13.25h1.35v-5.01h2.47l3.95,5.01h1.8l-4.05-5.14c1.87-.45,3.04-1.93,3.04-3.99ZM24.59,60.37v-5.64h2.99c1.71,0,2.82,1.13,2.82,2.82s-1.13,2.82-2.82,2.82h-2.99ZM48.6,53.43h1.35v13.25h-1.35v-13.25ZM63.2,59.98v2.99c-1.02,1.58-2.76,2.53-4.64,2.52-3.03.01-5.5-2.44-5.51-5.47,0-.01,0-.03,0-.04,0-2.91,2.45-5.36,5.51-5.36,1.78,0,3.4.83,4.4,2.12h1.52c-1.19-2.04-3.34-3.47-5.92-3.47-3.8,0-6.92,3.08-6.92,6.72s3.12,6.87,6.92,6.87c1.71,0,3.37-.63,4.64-1.78v1.61h1.36v-6.7h-1.36ZM33.74,66.68h1.47l1.52-3.37c-.43-.13-.85-.29-1.26-.47l-1.73,3.84Z"/>
      </g>
      <path id="path24" class="cls-1" d="M41.16,53.43h-1.47l-3.55,7.9.09.04c.11.05.22.09.32.13.03.01.07.03.1.04.14.05.28.1.41.15.03,0,.06.02.1.03.1.03.2.07.3.1.05.01.09.02.14.04.09.02.17.05.25.07.05.01.1.02.14.03l.24.05s.09.02.14.03c.09.02.17.03.25.04.04,0,.07.01.11.02.12.02.24.03.35.05h0c.11.01.23.02.34.03.04,0,.07,0,.11,0,.08,0,.15,0,.22,0h.12s.07,0,.11,0c.02,0,.04,0,.07,0,.12,0,.23,0,.35,0l.23-.02s.07,0,.11,0c.22-.02.42-.05.61-.08.03,0,.06-.01.08-.02.06-.01.13-.02.19-.04.03,0,.06-.01.1-.02.06-.01.11-.03.16-.04.03,0,.06-.02.09-.02.05-.01.1-.03.15-.04.03,0,.06-.02.08-.02l.14-.05s.04-.01.07-.02l.15-.05s.02-.01.03-.01c.06-.02.11-.04.17-.07,0,0,.02,0,.02-.01.04-.02.08-.04.12-.05.01,0,.03-.01.04-.02.03-.02.05-.03.08-.04.01,0,.03-.01.04-.02.02,0,.04-.02.06-.03,0,0,.02-.01.03-.01.02,0,.03-.02.04-.02,0,0,.01,0,.02,0,.01,0,.02-.01.03-.02,0,0,0,0,0,0,0,0,.01,0,.01,0l2.38,5.27h1.47l-5.95-13.25ZM42.69,60.12s0,0-.01,0c0,0-.02.02-.03.02,0,0-.01,0-.02.01-.02.01-.05.03-.08.05,0,0-.01,0-.02,0-.03.02-.06.03-.09.05l-.04.02-.11.06s-.02.01-.03.02c-.05.03-.11.05-.16.08-.02,0-.03.02-.05.02-.05.02-.09.04-.15.07-.02,0-.04.02-.06.03-.07.03-.14.06-.22.09h-.02c-.1.05-.21.09-.32.12-.07.02-.14.05-.21.07-.03,0-.05.02-.08.02-.1.03-.2.06-.3.08-.02,0-.04.01-.06.02-.09.02-.18.04-.27.06-.04,0-.07.01-.11.02-.09.02-.19.03-.29.05-.03,0-.05,0-.07.01-.12.02-.25.04-.38.05-.03,0-.07,0-.11.01-.1.01-.21.02-.31.02-.04,0-.09,0-.13,0-.14,0-.28.01-.43.01h-.02c-.13,0-.27,0-.4-.01h-.14c-.1-.01-.2-.02-.31-.03,0,0,0,0-.01,0l2.76-6.13,2.27,5.05h-.01Z"/>
    </g>
  </g>
</svg>