<svg xmlns="http://www.w3.org/2000/svg" width="104" height="104" fill="none" viewBox="0 0 104 104"><path fill="#1ef3e4" d="M28.6 85.15 14.386 99.364.11 85.15z"/><path fill="#fff" d="M49.385 52.722c-2.953-3.508-2.83-5.415-.984-7.261 2.215-2.215 4.491-1.292 7.076 1.17zm30.46-38.705c2.214-2.215 4.491-1.292 7.076 1.17l-6.092 6.091c-2.954-3.507-2.83-5.415-.985-7.26m18.398 6.215c-2.77 4.123-7.569 10.83-12.615 5.784l12.8-12.737c-1.17-1.23-2.031-2.277-2.708-2.892-6.892-6.892-14.645-7.015-20.737-.923-4.061 4.061-5.107 8.676-3.938 13.107l-4-4.615c-1.169.615-6.092 4.984-2.4 11.506l-4.553-3.815L54 31.74l8.184 8.184c-6.338-5.046-13.168-4.553-18.644.923-5.846 5.846-5.477 12.984-1.047 18.83l-.861-.862c-5.784-5.784-12.122-3.754-15.26-.616-2.4 2.4-3.877 5.723-3.262 8.061L10.496 53.645 3.79 60.352 28.587 85.15h13.291l-8.922-8.922c-4.677-4.8-4.8-7.323-2.523-9.6 2.215-2.215 4.738-.8 9.291 3.692l8.861 8.861 6.646-6.645-8.369-8.369c6.03 4.554 13.292 4.8 19.753-1.6l.123-.123c3.938-3.63 5.107-7.2 5.107-7.2l-5.046-3.384c-2.769 4.123-7.569 10.83-12.614 5.785l12.799-12.8 7.999 8 6.953-6.953-9.968-10.215c-4.677-4.676-1.908-9.045.061-10.707.923 1.908 2.216 3.754 3.939 5.477 6.46 6.46 14.83 7.753 22.152.492l.123-.123c3.938-3.63 5.107-7.2 5.107-7.2z"/></svg>