<svg width="126" height="27" viewBox="0 0 126 27" fill="none" xmlns="http://www.w3.org/2000/svg">
<path fill-rule="evenodd" clip-rule="evenodd" d="M31.2648 0C32.4169 0 32.4457 1.6166 32.4457 2.77941V8.96218C33.6555 8.11134 35.1533 7.60084 36.651 7.60084C40.7411 7.60084 42.0373 10.1817 42.0373 13.3582V17.6408C42.0373 19.0305 42.0373 19.3708 42.4693 19.6828C42.9302 19.8813 43.1894 20.0798 43.1894 20.562C43.1894 21.4412 42.4693 21.4695 41.8357 21.4695H37.5439C36.9103 21.4695 36.1902 21.4412 36.1902 20.562C36.1902 20.0798 36.4494 19.8813 36.9103 19.6828C37.3423 19.3708 37.3423 19.0305 37.3423 17.6408V13.1597C37.3423 11.5431 37.0831 9.89811 35.0092 9.89811C34.2892 9.89811 33.5691 10.1817 33.0794 10.7206C32.5321 11.3162 32.4457 11.9118 32.4457 12.7059V17.6408C32.4457 19.0305 32.4457 19.3708 32.8778 19.6828C33.3386 19.8813 33.5979 20.0798 33.5979 20.562C33.5979 21.4412 32.8778 21.4695 32.2441 21.4695H27.9524C27.3187 21.4695 26.5986 21.4412 26.5986 20.562C26.5986 20.0798 26.8579 19.8813 27.3187 19.6828C27.7508 19.3708 27.7508 19.0305 27.7508 17.6408V5.84244C27.7508 3.31828 27.6356 3.14811 26.8291 2.69433C26.7866 2.66993 26.7437 2.64638 26.7011 2.62301L26.701 2.62299C26.397 2.45622 26.109 2.2982 26.109 1.90021C26.109 1.38971 26.4834 1.16282 27.4915 0.879202C27.743 0.810102 28.0111 0.732818 28.2862 0.653522C29.3659 0.342263 30.5532 0 31.2648 0ZM3.51402 5.98424C4.81018 5.98424 6.39437 5.21849 6.39437 3.7437C6.39437 2.21218 4.983 1.47479 3.57163 1.47479C2.18906 1.47479 0.777693 2.35399 0.777693 3.85714C0.777693 5.24685 2.24667 5.98424 3.51402 5.98424ZM1.6418 17.6408C1.6418 19.0305 1.6418 19.3708 1.20974 19.6828C0.74889 19.8813 0.489659 20.0798 0.489659 20.562C0.489659 21.4412 1.20974 21.4695 1.84342 21.4695H6.13513C6.76881 21.4695 7.4889 21.4412 7.4889 20.562C7.4889 20.0798 7.22967 19.8813 6.76881 19.6828C6.33676 19.3708 6.33676 19.0305 6.33676 17.6408V10.3803C6.33676 9.21744 6.30796 7.60084 5.15582 7.60084C4.4442 7.60084 3.25693 7.9431 2.17721 8.25436C1.90213 8.33366 1.63404 8.41094 1.38257 8.48004C0.374445 8.76366 0 8.99055 0 9.50105C0 9.89904 0.288037 10.0571 0.592052 10.2238C0.634666 10.2472 0.677594 10.2708 0.720086 10.2952C1.52658 10.7489 1.6418 10.9191 1.6418 13.4433V17.6408ZM14.7129 13.6134C14.7129 12.7059 14.7417 11.6565 15.4042 10.9191C15.9227 10.3235 16.614 10.0116 17.4205 10.0116C19.8399 10.0116 20.5024 12.9895 20.5024 14.8613C20.5024 18.3498 18.6878 19.5977 17.3917 19.5977C17.1576 19.5977 16.9309 19.5757 16.7079 19.5541H16.7079H16.7079H16.7078H16.7078H16.7078H16.7078H16.7078H16.7077C16.4918 19.5332 16.2792 19.5126 16.0667 19.5126C15.6634 19.5126 15.433 19.8529 15.433 20.2216C15.433 21.5263 17.4493 21.895 18.4286 21.895C22.4899 21.895 25.4566 18.7185 25.4566 14.6912C25.4566 10.7489 22.8931 7.60084 18.7166 7.60084C16.9884 7.60084 15.5482 8.30987 14.2809 9.64286L14.2801 9.63788C14.1648 8.8996 13.9618 7.60084 12.9847 7.60084C12.0918 7.60084 8.549 8.67857 8.549 9.69958C8.549 10.1534 8.86584 10.3519 9.15387 10.4653C10.0356 10.8994 10.0301 11.3565 10.0202 12.1679C10.0191 12.2576 10.018 12.3517 10.018 12.4506V22.8592C10.018 24.2489 10.018 24.5893 9.26908 24.9013C8.80823 25.0998 8.549 25.2983 8.549 25.7805C8.549 26.6597 9.26908 26.688 10.2196 26.688H14.5113C15.4618 26.688 16.1819 26.6597 16.1819 25.7805C16.1819 25.2983 15.9227 25.0998 15.4618 24.9013C14.7129 24.5893 14.7129 24.2489 14.7129 22.8592V13.6134ZM47.5709 5.98424C48.8671 5.98424 50.4513 5.21849 50.4513 3.7437C50.4513 2.21218 49.0399 1.47479 47.6285 1.47479C46.246 1.47479 44.8346 2.35399 44.8346 3.85714C44.8346 5.24685 46.3036 5.98424 47.5709 5.98424ZM45.6987 17.6408C45.6987 19.0305 45.6987 19.3708 45.2666 19.6828C44.8058 19.8813 44.5466 20.0798 44.5466 20.562C44.5466 21.4412 45.2666 21.4695 45.9003 21.4695H50.192C50.8257 21.4695 51.5458 21.4412 51.5458 20.562C51.5458 20.0798 51.2866 19.8813 50.8257 19.6828C50.3937 19.3708 50.3937 19.0305 50.3937 17.6408V10.3803C50.3937 9.21744 50.3649 7.60084 49.2127 7.60084C48.5011 7.60084 47.3138 7.9431 46.2341 8.25436L46.2341 8.25437C45.959 8.33366 45.6909 8.41094 45.4395 8.48004C44.4313 8.76366 44.0569 8.99055 44.0569 9.50105C44.0569 9.89904 44.3449 10.0571 44.6489 10.2238C44.6916 10.2472 44.7345 10.2708 44.777 10.2952C45.5835 10.7489 45.6987 10.9191 45.6987 13.4433V17.6408ZM62.9756 7.73425C63.6122 7.78359 64.1817 7.82773 65.0202 7.82773H66.6044C67.5261 7.82773 68.5342 7.85609 68.5342 9.01891C68.5342 9.96842 67.5009 10.0105 66.8092 10.0386L66.7772 10.0399H66.0283C67.0652 11.146 67.6125 12.6208 67.6125 14.0956C67.6125 16.3361 66.6044 18.1229 64.7033 19.3424C66.4027 19.7395 68.1021 20.7321 68.1021 22.6891C68.1021 26.3477 62.8311 27 60.0372 27C58.2226 27 52.6347 26.8015 52.6347 24.2489C52.6347 22.6324 54.4493 21.98 55.8031 21.98C56.2639 21.98 57.3873 22.0651 57.3873 22.7174C57.3873 22.948 57.3204 23.0321 57.2545 23.1149C57.1908 23.195 57.128 23.2739 57.128 23.4832C57.128 24.4475 59.2595 24.646 59.922 24.646C61.3045 24.646 63.6376 24.334 63.6376 22.5189C63.6376 21.3845 62.6871 20.8172 61.7366 20.4202C61.0165 20.6187 60.2676 20.7038 59.5187 20.7038C55.6303 20.7038 52.4331 18.4349 52.4331 14.3792C52.4331 12.3939 53.182 10.437 54.795 9.18907C56.3792 7.96954 58.453 7.60084 60.4116 7.60084C61.298 7.60084 61.7859 7.64008 62.3559 7.68592C62.4712 7.6952 62.5899 7.70474 62.7159 7.71429C62.8042 7.72097 62.8905 7.72766 62.9756 7.73425ZM57.3873 14.0672C57.3873 15.6555 57.6753 18.6618 59.8932 18.6618C62.2839 18.6618 62.6583 15.6271 62.6583 13.8687C62.6583 12.2805 62.1686 9.3876 60.066 9.3876C57.9345 9.3876 57.3873 12.479 57.3873 14.0672ZM74.6293 16.5914C81.9165 15.854 83.9616 13.8403 83.9616 11.7416C83.9616 8.76365 80.6204 7.60084 78.0569 7.60084C73.5636 7.60084 69.3871 10.437 69.3871 15.2017C69.3871 19.3708 73.2179 21.895 77.1352 21.895C78.921 21.895 80.4188 21.583 81.9165 20.7038C82.6942 20.2784 84.2496 19.0872 84.2496 18.0662C84.2496 17.6408 83.8176 17.3004 83.4143 17.3004C82.9343 17.3004 82.7142 17.4974 82.4209 17.76L82.4207 17.7602L82.4202 17.7606C82.3617 17.8129 82.3003 17.8679 82.2334 17.9244C81.0812 18.9454 79.9003 19.6261 78.3449 19.6261C76.4727 19.6261 75.0325 18.3782 74.6293 16.5914ZM74.37 14.6912C74.226 12.7059 75.3206 9.58613 77.7401 9.58613C78.8922 9.58613 79.4683 10.3519 79.4683 11.4296C79.4683 13.7836 76.2711 14.5494 74.37 14.6912ZM99.5319 9.10399C100.569 10.2101 100.77 11.7983 100.77 13.2164V17.6408C100.77 19.0305 100.77 19.3708 101.202 19.6828C101.663 19.8813 101.923 20.0798 101.923 20.562C101.923 21.4412 101.202 21.4695 100.569 21.4695H96.2771C95.6434 21.4695 94.9233 21.4412 94.9233 20.562C94.9233 20.0798 95.1826 19.8813 95.6434 19.6828C96.0755 19.3708 96.0755 19.0305 96.0755 17.6408V17.6408V13.3015C96.0755 11.7416 96.0179 9.98319 93.944 9.98319C92.9935 9.98319 92.2158 10.3519 91.7262 11.146C91.2941 11.8267 91.2941 12.7059 91.2941 13.4716V17.6408C91.2941 19.0305 91.2941 19.3708 91.7262 19.6828C92.187 19.8813 92.4462 20.0798 92.4462 20.562C92.4462 21.4412 91.7262 21.4695 91.0925 21.4695H86.8008C86.1671 21.4695 85.447 21.4412 85.447 20.562C85.447 20.0798 85.7062 19.8813 86.1671 19.6828C86.5991 19.3708 86.5991 19.0305 86.5991 17.6408V12.4506C86.5991 12.352 86.6003 12.2581 86.6014 12.1685V12.1683V12.1682V12.168V12.1679C86.6112 11.3565 86.6168 10.8994 85.735 10.4653C85.447 10.3519 85.1302 10.1534 85.1302 9.69958C85.1302 8.67857 88.673 7.60084 89.5659 7.60084C90.543 7.60084 90.7459 8.89957 90.8613 9.63785L90.862 9.64286C92.0142 8.25315 93.5696 7.60084 95.4418 7.60084C96.9108 7.60084 98.495 8.02626 99.5319 9.10399ZM106.304 5.98424C107.6 5.98424 109.184 5.21849 109.184 3.7437C109.184 2.21218 107.773 1.47479 106.362 1.47479C104.979 1.47479 103.568 2.35399 103.568 3.85714C103.568 5.24685 105.037 5.98424 106.304 5.98424ZM104.432 17.6408V17.6408C104.432 19.0305 104.432 19.3708 104 19.6828C103.539 19.8813 103.28 20.0798 103.28 20.562C103.28 21.4412 104 21.4695 104.633 21.4695H108.925C109.559 21.4695 110.279 21.4412 110.279 20.562C110.279 20.0798 110.02 19.8813 109.559 19.6828C109.127 19.3708 109.127 19.0305 109.127 17.6408V10.3803C109.127 9.21744 109.098 7.60084 107.946 7.60084C107.234 7.60084 106.047 7.9431 104.967 8.25436C104.692 8.33366 104.424 8.41094 104.173 8.48004C103.164 8.76366 102.79 8.99055 102.79 9.50105C102.79 9.89904 103.078 10.0571 103.382 10.2238C103.425 10.2472 103.468 10.2708 103.51 10.2952C104.317 10.7489 104.432 10.9191 104.432 13.4433V17.6408ZM125.712 11.7416C125.712 13.8403 123.667 15.854 116.38 16.5914C116.783 18.3782 118.223 19.6261 120.095 19.6261C121.651 19.6261 122.832 18.9454 123.984 17.9244C124.051 17.8677 124.112 17.8126 124.171 17.7602L124.171 17.76C124.465 17.4974 124.685 17.3004 125.165 17.3004C125.568 17.3004 126 17.6408 126 18.0662C126 19.0872 124.445 20.2784 123.667 20.7038C122.169 21.583 120.671 21.895 118.886 21.895C114.968 21.895 111.137 19.3708 111.137 15.2017C111.137 10.437 115.314 7.60084 119.807 7.60084C122.371 7.60084 125.712 8.76365 125.712 11.7416ZM119.49 9.58613C117.071 9.58613 115.976 12.7059 116.12 14.6912C118.021 14.5494 121.219 13.7836 121.219 11.4296C121.219 10.3519 120.643 9.58613 119.49 9.58613ZM76.8244 3.50171L74.9165 1.60721C74.6056 1.30098 74.4738 0.953222 74.7268 0.704084C74.9587 0.475706 75.3118 0.563943 75.6438 0.688512L81.9632 2.97748C82.1397 3.04236 82.2741 3.11762 82.3664 3.20845C82.5666 3.40568 82.5666 3.70673 82.3664 3.90396C82.2741 3.99479 82.1397 4.07005 81.9658 4.13234L75.6438 6.4239C75.2934 6.55106 74.9587 6.63151 74.7294 6.40573C74.4712 6.1514 74.6135 5.79845 74.9165 5.50001L76.8218 3.6133C76.864 3.57178 76.864 3.54063 76.8244 3.50171Z" fill="#00664D"/>
</svg>
