<svg xmlns="http://www.w3.org/2000/svg" width="133" height="48" fill="none" viewBox="0 0 133 48"><path fill="#282b2b" d="m115.603 31.554-3.185.196a1.65 1.65 0 0 0-.352-.735 1.86 1.86 0 0 0-.71-.53q-.434-.205-1.037-.205-.81 0-1.364.343-.556.335-.556.899 0 .449.36.76.359.31 1.233.497l2.27.458q1.83.375 2.728 1.209.899.833.899 2.189 0 1.233-.727 2.164-.719.93-1.977 1.454-1.25.514-2.883.514-2.492 0-3.969-1.037-1.47-1.045-1.724-2.842l3.423-.18q.155.76.751 1.16.597.392 1.527.392.915 0 1.471-.351.563-.36.571-.923a.96.96 0 0 0-.4-.776q-.392-.31-1.209-.474l-2.172-.433q-1.838-.368-2.736-1.274-.891-.907-.891-2.311 0-1.209.654-2.083.662-.874 1.854-1.348 1.2-.473 2.809-.473 2.377 0 3.741 1.004 1.373 1.005 1.601 2.736M91.568 44.487v-16.51h3.299v2.107h.155a4.6 4.6 0 0 1 .662-1.029 3.5 3.5 0 0 1 1.143-.882q.711-.36 1.764-.36 1.373 0 2.532.72 1.161.71 1.854 2.147.695 1.43.695 3.586 0 2.099-.678 3.545-.67 1.437-1.83 2.18-1.152.736-2.58.736-1.014 0-1.724-.335a3.6 3.6 0 0 1-1.152-.842 4.3 4.3 0 0 1-.686-1.037h-.106v7.016zm3.275-10.237q0 1.118.31 1.952t.898 1.298q.588.458 1.43.458.849 0 1.437-.466.588-.473.89-1.307.31-.84.311-1.935 0-1.087-.302-1.912-.303-.825-.89-1.29-.59-.465-1.446-.466-.85 0-1.438.45-.58.449-.89 1.274t-.31 1.944M82.875 40.76q-1.201 0-2.14-.417a3.45 3.45 0 0 1-1.487-1.25q-.54-.833-.539-2.075 0-1.045.384-1.756a3.1 3.1 0 0 1 1.045-1.143 5 5 0 0 1 1.503-.654q.85-.22 1.78-.31 1.095-.114 1.765-.212.669-.106.972-.31t.302-.605v-.049q0-.776-.49-1.2-.482-.426-1.372-.425-.94 0-1.495.416-.555.408-.735 1.03l-3.037-.897q.271-.75.783-1.342.718-.84 1.854-1.29 1.143-.457 2.646-.457 1.046 0 2.001.244a5.2 5.2 0 0 1 1.707.76q.752.514 1.185 1.323.432.801.432 1.92v8.461h-3.3v-1.74h-.097a3.5 3.5 0 0 1-.809 1.038 3.7 3.7 0 0 1-1.217.694q-.71.245-1.642.245m.996-2.402q.768 0 1.356-.302.588-.31.923-.833t.335-1.185v-1.331q-.165.105-.45.196a8 8 0 0 1-.629.155q-.351.065-.702.123-.352.048-.637.09-.612.09-1.07.285a1.7 1.7 0 0 0-.71.531q-.255.327-.254.817 0 .711.515 1.086.523.368 1.323.368M59.586 24.072h4.361l4.433 11.15h.197l4.344-11.238h4.361V40.71h-3.43V29.824h-.139l-4.067 10.805h-2.335l-4.156-10.758h-.139v10.928h-3.43zM96.374 21.597a4.74 4.74 0 0 1-2.59-.735q-1.15-.743-1.83-2.18-.669-1.446-.669-3.545 0-2.157.694-3.586.695-1.437 1.846-2.148a4.73 4.73 0 0 1 2.54-.719q1.054 0 1.756.36.71.351 1.144.882.44.522.67 1.029h.106l.036-7.816 3.471 1.028-.036 17.226h-3.43v-2.009h-.147a4.5 4.5 0 0 1-.695 1.037 3.45 3.45 0 0 1-1.151.841q-.702.335-1.715.335m1.102-2.768q.842 0 1.421-.458.588-.465.899-1.298.318-.834.318-1.953 0-1.118-.31-1.943t-.898-1.275-1.43-.449q-.858 0-1.445.466-.59.465-.89 1.29-.303.825-.303 1.912 0 1.094.302 1.935.31.833.89 1.307.589.465 1.446.466M82.902 21.597q-1.2 0-2.14-.416a3.45 3.45 0 0 1-1.487-1.25q-.539-.833-.539-2.074 0-1.046.384-1.756a3.1 3.1 0 0 1 1.046-1.144 5 5 0 0 1 1.502-.653q.85-.22 1.781-.31 1.095-.115 1.764-.213.67-.105.972-.31.302-.204.302-.605v-.049q0-.776-.49-1.2-.48-.426-1.372-.425-.939 0-1.495.416-.555.41-.735 1.03l-3.036-.897q.27-.75.782-1.341.72-.841 1.854-1.29 1.144-.458 2.646-.458 1.045 0 2.002.245a5.2 5.2 0 0 1 1.707.76 3.7 3.7 0 0 1 1.184 1.322q.432.801.433 1.92v8.462h-3.3v-1.74h-.098a3.5 3.5 0 0 1-.809 1.037 3.7 3.7 0 0 1-1.217.694q-.71.246-1.641.245m.996-2.4q.768 0 1.356-.303.588-.31.923-.833t.335-1.184v-1.332q-.163.106-.45.196a8 8 0 0 1-.628.155q-.35.066-.703.123l-.637.09q-.612.09-1.07.286-.457.195-.71.53-.254.327-.253.817 0 .71.514 1.087.523.367 1.323.367M64.923 8.588a2 2 0 0 0-.605-.701q-.743-.547-2.017-.547-.866 0-1.462.245-.597.237-.915.661-.31.425-.31.964-.016.45.188.784.211.335.58.58.367.237.849.417.481.171 1.03.294l1.502.36q1.095.243 2.01.652.913.41 1.584 1.005.67.597 1.037 1.405.375.809.384 1.854-.009 1.536-.784 2.663-.768 1.118-2.222 1.74-1.446.612-3.487.612-2.026 0-3.529-.62-1.494-.622-2.336-1.839c-.555-.816-.87-1.523-.87-3.531l3.5 1.046c0 .273.117.484.4.86q.434.555 1.152.841.727.279 1.642.278.899 0 1.56-.261.67-.262 1.037-.727.368-.465.368-1.07 0-.564-.335-.948-.328-.384-.964-.653a10 10 0 0 0-1.544-.49l-1.821-.457q-2.115-.515-3.34-1.61-1.225-1.094-1.218-2.948-.008-1.52.809-2.654.825-1.135 2.262-1.773t3.267-.637q1.863 0 3.251.637 1.396.638 2.173 1.773c.517.756.775 1.74.803 2.875zM106.094 21.339V9.1h3.479V21.34zM107.834 3.607a1.658 1.658 0 1 0 0 3.315 1.658 1.658 0 0 0 0-3.315M115.632 21.597q-1.2 0-2.14-.416a3.45 3.45 0 0 1-1.486-1.25q-.54-.833-.539-2.074 0-1.046.384-1.756a3.1 3.1 0 0 1 1.045-1.144 5 5 0 0 1 1.503-.653 11.4 11.4 0 0 1 1.781-.31 46 46 0 0 0 1.764-.213q.669-.105.972-.31.302-.204.302-.605v-.049q0-.776-.49-1.2-.482-.426-1.372-.425-.94 0-1.495.416-.555.41-.735 1.03l-3.037-.897q.271-.75.783-1.341.718-.841 1.854-1.29 1.143-.458 2.646-.458 1.046 0 2.001.245a5.2 5.2 0 0 1 1.707.76q.752.513 1.184 1.322.433.801.433 1.92v8.462h-3.299v-1.74h-.098a3.5 3.5 0 0 1-.809 1.037 3.7 3.7 0 0 1-1.217.694q-.71.246-1.642.245m.997-2.4q.768 0 1.356-.303.588-.31.922-.833.336-.523.335-1.184v-1.332q-.163.106-.449.196a8 8 0 0 1-.629.155q-.351.066-.702.123l-.637.09q-.613.09-1.07.286t-.711.53q-.253.327-.253.817 0 .71.515 1.087.522.367 1.323.367M75.06 8.815h2.36v2.613h-2.36v6.077q0 .482.146.751a.8.8 0 0 0 .41.368q.269.107.62.107.244 0 .49-.041.244-.05.375-.074l.546 2.59q-.261.08-.734.187-.474.114-1.152.14-1.257.048-2.204-.335a3.08 3.08 0 0 1-1.462-1.193q-.523-.809-.515-2.042v-6.535h-1.715V8.815h1.715V6.919l3.48-1.033zM23.078 28.36c1.365-6.267 3.808-8.534 5.213-11.656l.015-.033c.351-.744.518-1.537.518-2.415 0-3.175-2.577-5.74-5.763-5.74a5.727 5.727 0 0 0-5.74 5.74c0 .878.187 1.699.538 2.442 1.394 3.129 3.831 5.39 5.202 11.657zm-1.616-15.738a1.61 1.61 0 1 1 3.22 0 1.61 1.61 0 0 1-3.22 0M5.438 27.357l-4.56 3.709c-1.215.987-1.166 2.209.13 2.72l14.546 5.747 6.823-6.042zm9.948 10.916-13.448-5.25c-.756-.296-.792-1.006-.086-1.583l3.672-3 14.85 5.44zM16.668 39.973l5.777 2.282c1.55.612 3.83.179 5.057-.963l4.596-4.28-8.606-3.117z"/><path fill="#282b2b" d="M23.798 29.017a.74.74 0 0 1-.72.585v-.005a.74.74 0 0 1-.727-.586 29 29 0 0 0-1.376-4.542l-6.145 5.213 18.159 6.5 6.788-6.321-14.821-4.849a29 29 0 0 0-1.158 4.005"/><path fill="#282b2b" d="m43.892 22.573-14.459-4.295q.218-.43.416-.87l.058-.118q.643-1.451.644-3.034c0-4.123-3.356-7.48-7.486-7.48-4.123 0-7.474 3.357-7.48 7.48 0 1.101.235 2.173.704 3.151q.187.413.39.81l-10.355 8.42 7.469 2.673 6.806-5.743c-.638-1.45-1.315-2.657-1.95-3.787a52 52 0 0 1-1.094-2.022c-.127-.25-.254-.5-.37-.755a6.6 6.6 0 0 1-.598-2.753 6.48 6.48 0 0 1 6.479-6.478c3.585 0 6.502 2.905 6.502 6.485 0 .925-.229 1.891-.616 2.747-.175.401-.372.796-.58 1.19a47 47 0 0 1-.884 1.586l-.371.664q-.014.024-.027.049a38 38 0 0 0-1.41 2.765h-.002l-.029.067-.069.15.003.002c-.094.212-.189.425-.282.65l15.316 4.952 4.163-3.877c1.065-.993.656-2.17-.888-2.629m-.295 2.267-3.33 3.082-13.629-4.358c.567-1.235 1.158-2.3 1.717-3.298.227-.402.446-.794.658-1.187l14.077 4.23c.897.27 1.128.956.507 1.53"/></svg>