<svg xmlns="http://www.w3.org/2000/svg" width="133" height="29.574" fill="none" viewBox="0 0 483.81 66.282"><path d="M483.81 21.421c0 7.79-2.26 10.08-8.46 11.95-6.72 2.03-18.65 3.29-25.75 3.29-8.4 0-18.87-.54-27.8-2.59v-9h49.29v-12.23H436.2c-10.49 0-14.4-2.89-14.4-13.13v-5.35c0-8.07 2.39-10.51 8.95-12.2 6.59-1.71 17.4-2.81 24.46-2.81 8.57 0 18.86.67 27.82 2.65v9.01h-48.5v10.34h34.89c10.49 0 14.39 2.83 14.39 13.07zm-84.07 12.66c-10.21 2.03-20.5 2.58-30.46 2.58s-20.44-.55-30.65-2.58v-52.08c10.21-2.03 20.57-2.65 30.53-2.65s20.13.63 30.34 2.65v9.29h-46.16v10.4h30.06v10.81h-30.06v12.29h46.4zm-78.73 0c-9.17 2.04-18.41 2.58-27.3 2.58s-18.32-.54-27.48-2.58v-53.43h14.71v43.46h40.07v9.98zm-72.43.33c-4.9 1.41-11.38 1.91-16.2 1.99l-22.66-45.77h-1.27l-22.65 45.77c-4.83-.08-10.52-.58-15.41-1.99l28.69-53.74h20.45z" style="fill:#fff"/><path d="M218.69 20.761c0 5.25-4.33 9.52-9.59 9.52s-9.52-4.27-9.52-9.52 4.27-9.53 9.52-9.53 9.59 4.26 9.59 9.53" style="fill:#5ebfd4"/><path d="M152.66 34.471c-4.7 1.35-9.72 1.84-14.72 1.93v-23.35h-36.55v23.35c-5-.09-10.02-.58-14.71-1.93v-52.8c4.7-1.35 9.71-1.85 14.71-1.93v22.53h36.55v-22.53c5 .09 10.02.58 14.72 1.93zM66.19-8.569H40.38v44.04H25.81v-44.04H0v-9.4c11.11-2.02 22.28-2.65 33.13-2.65s21.96.63 33.06 2.65z" style="fill:#fff"/><path d="M17.18 56.281c1.4 1.04 2.12 2.87 2.12 5.45 0 3.56-1.04 5.22-3.69 5.71v.1c3.13.39 4.24 2.22 4.24 5.88 0 2.58-.69 4.41-2.06 5.42s-3.62 1.5-6.76 1.5c-3.85 0-7.15-.1-9.89-.33-.33-.03-.49-.16-.49-.46v-24.02c0-.36.1-.42.49-.46 2.64-.23 5.68-.36 9.11-.36 3.23 0 5.52.52 6.92 1.57zm-11.39 2.91v6.5h3.33c1.93 0 3.26-.2 3.95-.59.69-.42 1.04-1.27 1.04-2.58 0-2.58-1.21-3.33-4.37-3.33zm0 10.18v6.5h4.9c2.9 0 3.98-.75 3.98-3.13 0-2.58-1.21-3.36-3.95-3.36H5.79Zm32.93-7.48c.29 0 .46.16.46.49v16.84c0 .39-.1.46-.46.55-1.93.36-4.54.55-7.83.55s-4.96-.26-6.27-1.44c-1.27-1.18-1.6-3-1.6-6.43v-10.08c0-.33.16-.49.52-.49h3.85c.29 0 .46.16.46.49v8.84c0 1.6.1 2.74.29 3.43.39 1.31 1.01 1.5 3.23 1.5h2.94v-13.77c0-.33.16-.49.49-.49h3.92zm9.6-5.09c0 1.66-1.01 2.64-2.81 2.64s-2.87-.98-2.87-2.64 1.04-2.61 2.87-2.61 2.81.95 2.81 2.61m-.91 5.09c.33 0 .49.16.49.49v17.27c0 .36-.16.52-.49.52h-3.85c-.33 0-.49-.16-.49-.52v-17.27c0-.33.16-.49.49-.49zm8.74-6.98c.33 0 .49.16.49.49v24.25c0 .36-.16.52-.49.52H52.3c-.33 0-.49-.16-.49-.52v-24.25c0-.33.16-.49.49-.49zm19.68 0c.33 0 .49.16.49.52v23.47c0 .49-.23.75-.69.82-2.61.42-4.99.62-7.18.62-3.43 0-5.68-.62-6.79-1.86S60 74.761 60 71.071s.49-6.14 1.5-7.41 3-1.93 5.97-1.93c1.47 0 2.81.06 4.01.2v-6.5c0-.36.16-.52.49-.52h3.85zm-4.34 11.03h-2.94c-1.6 0-2.64.33-3.07.95s-.65 1.99-.65 4.15.2 3.43.59 4.11c.42.69 1.4 1.01 2.94 1.01 1.18 0 2.22-.07 3.13-.23zm13.97-9.14c0 1.66-1.01 2.64-2.81 2.64s-2.87-.98-2.87-2.64 1.04-2.61 2.87-2.61 2.81.95 2.81 2.61m-.91 5.09c.33 0 .49.16.49.49v17.27c0 .36-.16.52-.49.52H80.7c-.33 0-.49-.16-.49-.52v-17.27c0-.33.16-.49.49-.49zm18.93 1.28c1.31 1.17 1.63 3 1.63 6.4v10.08c0 .36-.16.52-.52.52h-3.85c-.33 0-.49-.16-.49-.52v-8.84c0-2.45-.03-3.49-.65-4.18-.56-.69-1.14-.72-2.84-.72h-2.97v13.74c0 .36-.16.52-.49.52h-3.88c-.33 0-.49-.16-.49-.52v-16.87c0-.39.16-.42.49-.49 1.66-.36 4.24-.55 7.8-.55 3.3 0 4.99.26 6.27 1.44zm20.56-.82c.46.06.69.33.69.82v16.61c0 2.12-.16 3.39-.82 4.6-.85 1.76-3.04 2.55-7.18 2.55-2.25 0-4.28-.16-6.04-.46-.29-.03-.46-.23-.46-.52v-2.48c0-.33.16-.49.46-.49h5.61c2.84 0 3.56-.62 3.56-2.81v-.2a22.4 22.4 0 0 1-3.98.36c-2.97 0-4.96-.65-6.01-1.96-1.01-1.31-1.53-3.85-1.53-7.61s.56-6 1.7-7.21 3.39-1.83 6.82-1.83c2.51 0 4.93.2 7.18.62zm-4.18 3.56h-3.23c-1.5 0-2.45.33-2.87 1.01-.39.69-.59 2.02-.59 4.08s.23 3.53.65 4.18c.46.62 1.5.95 3.13.95 1.21 0 2.15-.07 2.9-.2v-10.02zm28.47-2.81c1.11.91 1.66 2.32 1.66 4.24v11.29c0 .52-.23.85-.72 1.01-1.99.46-4.47.69-7.41.69-2.74 0-4.11-.13-5.55-.88-1.4-.78-1.96-2.25-1.99-4.77.03-2.09.56-3.49 1.6-4.24 1.08-.75 2.77-1.11 5.09-1.11h4.15v-1.17c0-1.5-1.01-2.25-3.07-2.25h-5.91c-.36 0-.46-.1-.46-.49v-2.68c0-.36.1-.42.46-.52 1.66-.33 3.62-.49 5.91-.49 3.04 0 5.12.46 6.23 1.37zm-3.17 9.37h-3.75c-1.7 0-2.28.52-2.28 1.96 0 1.53.69 1.99 2.77 1.99 1.4 0 2.48-.1 3.26-.33zm25.95-17.4c.36.06.52.26.52.62v2.71c0 .36-.2.52-.55.52h-2.58c-1.34 0-1.83.23-1.83 1.27v1.73h3.98c.33 0 .46.2.39.55l-.49 2.74c-.07.29-.26.46-.56.46h-3.33v13.97c0 .36-.16.52-.49.52h-3.85c-.33 0-.49-.16-.49-.52v-13.97h-2.12c-.36 0-.55-.16-.55-.49v-2.77c0-.33.2-.49.55-.49h2.12v-2.58c0-1.96.62-3.23 1.8-3.85 1.17-.62 2.25-.75 3.95-.75 1.21 0 2.38.1 3.52.33zm17.82 6.82c.29 0 .46.16.46.49v16.84c0 .39-.1.46-.46.55-1.93.36-4.54.55-7.83.55s-4.96-.26-6.27-1.44c-1.27-1.18-1.6-3-1.6-6.43v-10.08c0-.33.16-.49.52-.49h3.85c.29 0 .46.16.46.49v8.84c0 1.6.1 2.74.29 3.43.39 1.31 1.01 1.5 3.23 1.5h2.94v-13.77c0-.33.16-.49.49-.49h3.92zm9.8-5.06c.36-.1.52.07.52.49v4.67h3c.36 0 .55.16.55.49v2.61c0 .33-.2.49-.55.49h-3v8.91c0 1.34.46 1.66 1.93 1.66h1.34c.36 0 .56.16.56.49v2.77c0 .36-.16.55-.52.62-.98.2-1.89.29-2.77.29-1.4 0-1.99 0-3.07-.29-1.53-.42-2.15-1.44-2.28-3.92v-10.54h-1.93c-.36 0-.52-.16-.52-.49v-2.61c0-.33.16-.49.52-.49h1.93v-3.62c0-.29.16-.46.46-.52l3.85-1.01zm22.52 5.06c.29 0 .46.16.46.49v16.84c0 .39-.1.46-.46.55-1.93.36-4.54.55-7.83.55s-4.96-.26-6.27-1.44c-1.27-1.18-1.6-3-1.6-6.43v-10.08c0-.33.16-.49.52-.49h3.85c.29 0 .46.16.46.49v8.84c0 1.6.1 2.74.29 3.43.39 1.31 1.01 1.5 3.23 1.5h2.94v-13.77c0-.33.16-.49.49-.49h3.92zm14.52.2c.36.1.52.29.52.65v2.68c0 .33-.2.49-.55.49h-3.07c-1.8 0-2.28.33-2.28 1.66v12.08c0 .36-.16.52-.49.52h-3.88c-.33 0-.49-.16-.49-.52v-13.32c0-1.57.52-2.74 1.21-3.39 1.21-1.01 2.87-1.21 4.7-1.21s3.3.13 4.34.36zm16.94 1.47c1.08 1.21 1.6 3.62 1.63 7.25v1.01c0 .65-.23.88-1.04.88h-10.25c.03 1.44.26 2.38.75 2.81.49.42 1.47.65 2.94.65h5.78c.33 0 .49.16.49.49v2.71c0 .29-.16.49-.46.52-1.47.29-3.53.46-6.23.46-3.3 0-5.48-.62-6.56-1.86s-1.63-3.72-1.63-7.44.56-6.23 1.63-7.44c1.08-1.24 3.26-1.86 6.56-1.86s5.35.62 6.4 1.83zm-9.69 5.97h6.46c-.03-2.84-.78-3.62-3.17-3.62s-3.26.78-3.3 3.62z" style="fill:#5ebfd4"/><path d="M288.03 62.321c.36 0 .42.1.39.52l-2.87 13.81c-.36 1.6-.75 2.64-1.17 3.07s-1.31.62-2.64.62c-1.4 0-2.29-.2-2.64-.55-.36-.39-.75-1.44-1.14-3.13l-2.12-9.14-2.12 9.14c-.39 1.7-.78 2.74-1.14 3.13-.36.36-1.24.55-2.64.55-1.31 0-2.19-.2-2.64-.62-.42-.42-.82-1.47-1.17-3.07l-2.87-13.81c-.03-.42.03-.52.39-.52h2.38c.16 0 .29.16.39.52l2.68 13.41c.26 1.08.39 1.24.88 1.24.56 0 .62-.1.88-1.24l3.17-12.89c.1-.36.23-.52.46-.52h2.74c.23 0 .36.16.46.52l3.17 12.89c.26 1.14.33 1.24.88 1.24.49 0 .62-.16.88-1.24l2.68-13.41c.1-.42.16-.52.42-.52h2.35zm16.35 1.56c.95 1.14 1.47 3.43 1.5 6.89v.95c0 .69-.23.91-1.17.91h-10.38c.03 1.99.33 3.33.88 3.98s1.73.98 3.46.98h5.35c.33 0 .49.16.49.49v1.44c0 .29-.16.49-.46.52-1.44.2-3.26.29-5.45.29-3.04 0-5.06-.59-6-1.76-.95-1.21-1.44-3.62-1.44-7.31s.49-6.1 1.44-7.31 2.97-1.79 6-1.79 4.83.59 5.78 1.73zm-9.2 2.06c-.55.69-.85 2.06-.88 4.15h8.45c-.03-2.12-.33-3.49-.85-4.18s-1.63-1.01-3.3-1.01-2.87.36-3.43 1.04zm33.68-3.49c.29.03.46.23.46.55v1.4c0 .33-.16.49-.49.49h-4.93c-1.93 0-3.13.39-3.66 1.21-.52.82-.78 2.51-.78 5.16s.26 4.31.78 5.12c.52.82 1.73 1.21 3.66 1.21h4.93c.33 0 .49.16.49.49v1.4c0 .33-.16.52-.46.55-1.44.2-3.1.29-4.96.29-3.26 0-4.99-.39-6.17-1.83-1.14-1.44-1.4-3.43-1.4-7.25s.26-5.81 1.4-7.25c1.18-1.47 2.91-1.86 6.17-1.86 1.86 0 3.53.1 4.96.29zm16.91 4.83v11.42c0 .46-.2.75-.62.91-1.27.49-3.69.72-7.25.72-2.28 0-3.92-.36-4.86-1.04-.95-.72-1.44-2.12-1.44-4.21 0-3.75 1.86-5.03 5.78-5.03l5.25-.03v-2.19c0-2.06-1.21-2.94-4.24-2.94h-4.9c-.39 0-.49-.1-.49-.49v-1.34c0-.36.1-.42.46-.52 1.53-.26 3.2-.39 4.93-.39 5.09 0 7.38 1.57 7.38 5.12zm-3.13 5.29h-5.19c-1.86 0-2.74.65-2.74 2.45 0 2.09.98 2.64 3.75 2.64 1.8 0 3.17-.13 4.18-.39zm18.44-10.19c.85.13 1.6.46 2.25 1.01 1.3 1.04 1.63 2.87 1.63 6.4v9.89c0 .33-.2.49-.56.49h-2.09c-.33 0-.49-.16-.49-.49v-9.63c0-1.99-.23-3.2-.52-3.95-.16-.39-.42-.65-.82-.82-.78-.36-1.31-.39-2.77-.39h-4.47v14.79c0 .33-.16.49-.49.49h-2.15c-.33 0-.49-.16-.49-.49v-16.48c0-.42.16-.46.49-.52 1.79-.36 4.08-.52 6.79-.52 1.6 0 2.84.07 3.69.23zm28.69 4.9v11.42c0 .46-.2.75-.62.91-1.27.49-3.69.72-7.25.72-2.28 0-3.92-.36-4.86-1.04-.95-.72-1.44-2.12-1.44-4.21 0-3.75 1.86-5.03 5.78-5.03l5.25-.03v-2.19c0-2.06-1.21-2.94-4.24-2.94h-4.9c-.39 0-.49-.1-.49-.49v-1.34c0-.36.1-.42.46-.52 1.53-.26 3.2-.39 4.93-.39 5.09 0 7.38 1.57 7.38 5.12zm-3.13 5.29h-5.19c-1.86 0-2.74.65-2.74 2.45 0 2.09.98 2.64 3.75 2.64 1.8 0 3.17-.13 4.18-.39zm10.15-17.11c.33 0 .49.16.49.49v23.73c0 .33-.16.49-.49.49h-2.15c-.33 0-.49-.16-.49-.49v-23.73c0-.33.16-.49.49-.49zm7.64 0c.33 0 .49.16.49.49v23.73c0 .33-.16.49-.49.49h-2.15c-.33 0-.49-.16-.49-.49v-23.73c0-.33.16-.49.49-.49zm15.83 1.93c.36-.1.55.03.55.42v4.54h3.43c.36 0 .52.16.52.49v1.53c0 .33-.16.49-.52.49h-3.43v10.97c0 1.44.39 1.76 2.12 1.76h1.57c.36 0 .52.16.52.46v1.57c0 .29-.16.46-.49.52-.52.13-1.14.2-1.83.2-1.27 0-1.7 0-2.77-.26-1.44-.36-2.12-1.24-2.25-3.46v-11.75h-1.83c-.33 0-.49-.16-.49-.49v-1.53c0-.33.16-.49.49-.49h1.83v-3.92c0-.29.13-.46.42-.52l2.15-.52zm16.45 5.12c.33.1.49.29.49.55v1.37c0 .36-.16.49-.52.46h-2.84c-2.25 0-2.84.36-2.84 1.83v12.96c0 .33-.16.49-.49.49h-2.12c-.33 0-.49-.16-.49-.49v-13.71c0-1.4.59-2.45 1.24-2.94.36-.26.78-.46 1.31-.59 1.04-.29 1.6-.29 2.61-.29 1.76 0 2.97.13 3.66.36zm17.43-.19c.33 0 .49.16.49.49v16.51c0 .39-.16.42-.49.49-1.83.36-4.08.52-6.79.52-1.6 0-2.84-.07-3.69-.2-.85-.16-1.6-.49-2.25-1.04-1.31-1.08-1.63-2.9-1.63-6.43v-9.86c0-.33.2-.49.56-.49h2.09c.33 0 .49.16.49.49v9.63c0 2.48.13 3.75.88 4.44.78.65 1.4.72 3.23.72h4.47v-14.79c0-.33.16-.49.49-.49h2.15zm16.03.13c.29.03.46.23.46.52v1.4c0 .33-.16.49-.49.49h-6.07c-1.6 0-2.38.55-2.38 1.7v.42c0 1.01.69 1.79 2.02 2.28l4.34 1.73c2.71 1.04 3.26 2.42 3.26 4.6v.36c0 1.73-.52 2.9-1.53 3.49s-2.68.88-5.06.88-4.31-.1-5.97-.29c-.33-.03-.49-.2-.49-.49v-1.44c0-.33.16-.49.49-.49h6.04c2.64 0 3.43-.29 3.43-1.7v-.39c0-1.01-.46-1.57-1.89-2.19l-4.63-1.76c-2.09-.82-3.13-2.35-3.13-4.67v-.69c0-1.73.72-2.87 2.02-3.39 1.34-.52 2.61-.69 4.6-.69 1.7 0 3.36.1 4.99.29zm8.19-5.06c.36-.1.55.03.55.42v4.54h3.43c.36 0 .52.16.52.49v1.53c0 .33-.16.49-.52.49h-3.43v10.97c0 1.44.39 1.76 2.12 1.76h1.57c.36 0 .52.16.52.46v1.57c0 .29-.16.46-.49.52-.52.13-1.14.2-1.83.2-1.27 0-1.7 0-2.77-.26-1.44-.36-2.12-1.24-2.25-3.46v-11.75h-1.83c-.33 0-.49-.16-.49-.49v-1.53c0-.33.16-.49.49-.49h1.83v-3.92c0-.29.13-.46.42-.52l2.15-.52z" style="fill:#fff"/></svg>